<svg width="50" height="50" viewBox="0 0 50 50" fill="none" xmlns="http://www.w3.org/2000/svg">
<g clip-path="url(#clip0_2203_40001)">
<path d="M16.6602 1C14.8509 1.46561 13.1516 2.28468 11.6602 3.41C9.92022 4.92 2.38022 13.89 0.320218 18.48C0.0795453 18.9875 -0.0300801 19.5472 0.00136448 20.1079C0.0328091 20.6687 0.204321 21.2126 0.500218 21.69L0.650218 21.89C1.07022 22.39 0.650218 25.17 0.650218 27.49C0.657328 28.6083 0.573721 29.7253 0.400218 30.83C0.395336 30.8799 0.395336 30.9301 0.400218 30.98C0.280218 31.85 -0.189782 35.51 1.61022 36.79C3.41022 38.07 5.46022 39.27 6.30022 40.69C7.00022 41.89 7.84022 44.58 14.8102 48C17.3974 49.2876 20.2614 49.9195 23.1502 49.84C24.2002 49.84 25.4302 49.84 26.7602 49.84C28.3502 49.92 29.7602 49.93 30.8802 49.91C33.1928 49.886 35.4417 49.1491 37.3202 47.8C40.411 45.5164 43.001 42.6236 44.9302 39.3C49.9302 30.96 49.3702 33.21 49.9302 28.37C50.152 26.126 49.8999 23.8604 49.1902 21.72C48.5532 19.6633 48.0948 17.5555 47.8202 15.42C47.6596 13.9872 47.3854 12.5694 47.0002 11.18C46.1702 8.9 35.0002 0.13 32.4902 0C30.3306 0.0212884 28.1778 0.245609 26.0602 0.67C26.0602 0.67 17.3802 0.81 16.6602 1Z" fill="#19A6B8"/>
<path d="M0.320218 18.4799C0.0795453 18.9874 -0.0300801 19.5471 0.00136448 20.1078C0.0328091 20.6686 0.204321 21.2125 0.500218 21.6899L0.650218 21.8899C1.07022 22.3899 0.650218 25.1699 0.650218 27.4899C0.657328 28.6082 0.573721 29.7252 0.400218 30.8299C0.395336 30.8798 0.395336 30.93 0.400218 30.9799C0.280218 31.8499 -0.189782 35.5099 1.61022 36.7899C3.41022 38.0699 5.46022 39.2699 6.30022 40.6899C7.00022 41.8899 7.84022 44.5799 14.8102 47.9999C17.3974 49.2875 20.2614 49.9194 23.1502 49.8399C24.2002 49.8399 25.4302 49.8399 26.7602 49.8399C28.3502 49.9199 29.7602 49.9299 30.8802 49.9099C33.1928 49.8859 35.4417 49.149 37.3202 47.7999C40.411 45.5163 43.001 42.6235 44.9302 39.2999C47.0402 35.7699 48.1502 34.1399 48.7802 33.0699C48.6702 33.3299 7.24022 8.4199 7.22022 8.3999C4.54022 11.6999 1.51022 15.8199 0.320218 18.4799Z" fill="#2EA5B1"/>
<path d="M48.6707 27.3401C48.3406 25.6801 48.5307 25.5701 48.2407 24.5301C47.9637 23.7019 47.7399 22.8569 47.5707 22.0001C47.2907 20.4901 47.6707 20.1801 46.8107 17.4101C45.9507 14.6401 46.6707 16.2701 46.4807 14.7001C46.2907 13.1301 46.4807 13.2901 46.1007 12.4301C45.7206 11.5701 40.5007 7.18014 35.9407 4.00014C34.6707 3.13014 35.1407 2.10014 32.2307 1.37014C29.3207 0.640141 28.5807 2.12014 26.1507 1.66014C23.7207 1.20014 24.0807 1.98014 21.8607 2.03014C19.6407 2.08014 16.8607 2.49014 15.3307 3.82014C13.8007 5.15014 10.7407 8.56014 10.7007 8.61014C10.7007 8.61014 7.76065 14.0001 7.40065 16.7301C7.17765 18.4797 7.17765 20.2506 7.40065 22.0001C7.47065 23.6501 7.18065 23.4101 7.86065 25.4501C8.54065 27.4901 8.26065 27.8201 8.96065 30.1401C9.66065 32.4601 11.0007 32.2201 11.8307 34.8001C12.6607 37.3801 15.0007 34.5701 15.0007 36.5301C15.0007 38.4901 17.9107 38.3701 18.5507 38.8701C19.1907 39.3701 15.4307 43.1501 17.1307 44.0001C18.8307 44.8501 24.7007 44.8201 27.9507 45.6601C31.2007 46.5001 36.9507 45.4001 38.1207 45.3301C39.2907 45.2601 41.2807 42.1301 42.2107 41.4201C43.1407 40.7101 48.8107 33.2701 48.8107 33.2701C49.0287 32.0729 49.1259 30.8568 49.1007 29.6401C49.1507 27.4501 49.0007 29.0001 48.6707 27.3401Z" fill="#1C6B77"/>
<path d="M39.0001 19.2901C35.3401 8.06013 25.4601 1.25013 17.0001 4.08013C8.54014 6.91013 4.50014 18.3001 8.16014 29.5401C8.75129 31.3395 9.52183 33.0749 10.4601 34.7201C12.2401 33.4001 12.0001 32.2701 12.0001 32.2701C12.0001 32.2701 13.6401 30.0001 14.3001 30.8501C14.9601 31.7001 14.9601 31.4001 15.1201 32.2701C15.2801 33.1401 16.9901 32.7001 15.1201 34.0601C13.2501 35.4201 16.2501 33.8601 13.2501 35.4101C12.641 35.7229 12.0052 35.9806 11.3501 36.1801C16.0601 43.2701 23.5501 46.9701 30.2201 44.7501C38.7401 41.9201 42.6701 30.5201 39.0001 19.2901Z" fill="#138297"/>
<path d="M9.53978 35.3102C7.34978 36.5402 9.05978 36.8602 11.3498 36.1802C11.0398 35.7102 10.7498 35.1802 10.4598 34.7202C10.1666 34.9372 9.85926 35.1343 9.53978 35.3102Z" fill="#207A87"/>
<path d="M15.12 34.0599C16.99 32.6999 15.27 33.1299 15.12 32.2699C14.97 31.4099 14.27 32.2698 13.61 31.3998C12.95 30.5298 12.02 32.2699 12.02 32.2699C12.02 32.2699 12.24 33.3999 10.46 34.7199C10.75 35.2199 11.04 35.7199 11.35 36.1799C12.005 35.9804 12.6409 35.7227 13.25 35.4099C16.25 33.8599 13.25 35.4099 15.12 34.0599Z" fill="#0A6977"/>
<path d="M33.6504 32.6298C33.6504 32.6298 38.1704 34.3698 40.0904 33.9498C42.0104 33.5298 42.0904 32.1698 43.3104 30.6098C43.7804 30.0198 43.5704 29.1198 45.0804 28.6798C46.5904 28.2398 43.5104 24.7798 43.5104 24.7798L33.6504 32.6298Z" fill="#144C54"/>
<path d="M34.6401 8.77979C34.6401 8.77979 27.7901 10.3198 27.5301 14.9998C27.4201 17.0998 26.1401 17.7098 25.6701 18.9298C25.3861 19.8442 24.9537 20.7057 24.3901 21.4798C23.6501 22.5398 23.6501 25.6098 23.8701 26.6898C24.0949 27.7482 24.6952 28.6895 25.5601 29.3398C26.5601 30.3398 27.3201 30.4098 29.7801 31.1098C32.2401 31.8098 32.3701 32.4498 34.0001 32.6998C35.2687 32.9397 36.5776 32.8516 37.8026 32.4439C39.0277 32.0361 40.1283 31.3222 41.0001 30.3698L34.6401 8.77979Z" fill="#3DAAB2"/>
<path d="M30.6707 44.4401C30.3478 44.8597 29.9934 45.2542 29.6107 45.6201C28.2828 47.0463 26.48 47.9388 24.5407 48.1301C22.2807 48.1301 17.2207 47.9801 15.3507 46.9601C13.6996 45.8658 12.285 44.4512 11.1907 42.8001C11.1252 41.8279 11.1252 40.8523 11.1907 39.8801C11.1907 39.8801 11.8607 38.5901 14.5607 38.8801C14.892 38.9263 15.2262 38.9497 15.5607 38.9501C18.6107 38.9501 20.3007 37.1801 21.7807 37.4701C23.4207 37.7801 28.2507 39.2001 29.0307 39.8301C29.8107 40.4601 32.0507 42.6301 30.6707 44.4401Z" fill="#59BBCE"/>
<path d="M30.3101 44.5598C29.0001 46.2698 26.6501 47.9998 24.6701 47.9998C21.3501 47.9998 17.2701 47.7098 15.7801 46.8998C14.2681 45.8729 12.9566 44.5783 11.9101 43.0798C11.8659 42.2471 11.8659 41.4126 11.9101 40.5798C12.1719 40.361 12.4749 40.1968 12.8013 40.0972C13.1276 39.9976 13.4707 39.9645 13.8101 39.9998C14.0743 39.9978 14.3383 40.0145 14.6001 40.0498C14.9681 40.0981 15.3389 40.1214 15.7101 40.1198C17.1579 40.0815 18.5817 39.7409 19.8901 39.1198C20.4243 38.856 20.9989 38.6836 21.5901 38.6098C21.663 38.5995 21.7371 38.5995 21.8101 38.6098C23.0363 38.8811 24.2479 39.2148 25.4401 39.6098C26.5951 39.9096 27.7148 40.332 28.7801 40.8698C29.0801 41.0898 31.4501 43.0698 30.3101 44.5598Z" fill="#15424D"/>
<path d="M25.9198 42.6401C25.6593 43.3925 25.232 44.0762 24.6698 44.6401C24.3381 44.9037 23.9553 45.0957 23.5457 45.2042C23.1361 45.3126 22.7085 45.3351 22.2898 45.2701C21.1564 44.9009 19.9862 44.6561 18.7998 44.5401C17.7998 44.5401 15.7998 45.0601 14.8598 44.5401C13.9198 44.0201 14.3398 43.5401 13.8598 42.8501C13.3798 42.1601 13.8598 40.0501 13.8598 40.0501C14.124 40.0481 14.388 40.0648 14.6498 40.1001C15.0178 40.1484 15.3887 40.1717 15.7598 40.1701C17.2076 40.1318 18.6314 39.7912 19.9398 39.1701C20.474 38.9063 21.0486 38.7339 21.6398 38.6601C21.7128 38.6497 21.7869 38.6497 21.8598 38.6601C23.0861 38.9314 24.2977 39.2651 25.4898 39.6601L25.9498 40.4501C26.0678 41.1763 26.0576 41.9175 25.9198 42.6401Z" fill="#002931"/>
<path d="M3.99976 36.84H3.78976C3.40976 36.72 1.59976 35.72 1.38976 35.18C1.35055 35.0769 1.35055 34.963 1.38976 34.86C1.42875 34.501 1.42875 34.1389 1.38976 33.78V33.64L1.45976 33.53C1.4752 33.3937 1.4752 33.2562 1.45976 33.12C1.38298 32.7176 1.44652 32.3011 1.63976 31.94C1.72589 31.8277 1.83868 31.7387 1.96791 31.6811C2.09713 31.6235 2.23869 31.599 2.37976 31.61C2.59256 31.6151 2.80402 31.6453 3.00976 31.7C3.55773 31.8276 4.11176 31.9278 4.66976 32C5.84976 32.2 6.66976 32.33 6.66976 33.12C6.68806 33.3065 6.7249 33.4907 6.77976 33.67C6.92563 33.9808 6.95644 34.3334 6.86671 34.6648C6.77698 34.9963 6.57253 35.2851 6.28976 35.48L5.90976 35.78C5.37976 36.2983 4.72002 36.6645 3.99976 36.84Z" fill="#299781"/>
<path d="M1.60997 33.7098C1.90997 33.2598 1.00997 31.4798 2.92997 31.9798C4.84997 32.4798 6.38997 32.3698 6.42997 33.1498C6.46997 33.9298 7.06997 34.5498 6.16997 35.2198C5.26997 35.8898 4.37997 36.6798 3.86997 36.5098C3.35997 36.3398 1.52997 35.2198 1.60997 34.9398C1.65629 34.5311 1.65629 34.1185 1.60997 33.7098Z" fill="#167280"/>
<path d="M11.64 18.1401L11 18.6801H10.88H10.75C10.4235 18.7666 10.0877 18.8136 9.75 18.8201C9.29201 18.8522 8.83779 18.7183 8.4705 18.4428C8.10321 18.1673 7.84743 17.7688 7.75 17.3201C7.75 17.3201 7.78 21.0001 13 21.0001C15.0571 20.9863 17.1099 20.8124 19.14 20.4801C19.0397 18.2311 18.6292 16.0067 17.92 13.8701C15.7402 15.1619 13.6428 16.588 11.64 18.1401Z" fill="#358891"/>
<path d="M17.7106 13.2702C17.3845 12.3842 16.99 11.525 16.5306 10.7002C16.3206 10.3402 16.1206 9.9902 15.9106 9.7002C14.6106 9.8902 12.5106 12.0702 11.2706 14.0402C11.0588 14.3843 10.9003 14.7586 10.8006 15.1502C10.7025 15.5866 10.6935 16.0383 10.7743 16.4782C10.8551 16.9181 11.0239 17.3371 11.2706 17.7102C11.2706 17.7102 12.9606 16.3802 15.0106 14.9902C16.0106 14.3302 16.9506 13.7802 17.7306 13.3402L17.7106 13.2702Z" fill="#0F363F"/>
<path d="M16 5.51979C18.2002 5.48963 20.3996 5.62333 22.58 5.91979C24.15 6.30979 25.37 5.91979 25.87 7.29979C26.03 7.71979 25.98 7.87979 26.21 8.77979C26.5147 9.66758 26.5735 10.6213 26.38 11.5398C26.09 12.7298 24.71 17.9098 21.23 19.5998" fill="#1C6B77"/>
<path d="M23.4804 11.6699C23.2404 7.28992 21.6804 6.66992 21.6804 6.66992C22.0019 6.90965 22.2539 7.23064 22.4104 7.59992C22.5137 7.86078 22.5646 8.1394 22.5604 8.41992C22.5604 11.9499 20.1704 12.7399 20.0604 12.7699C19.3143 13.0752 18.5923 13.4362 17.9004 13.8499C18.6095 15.9866 19.0201 18.2109 19.1204 20.4599C20.1985 20.2866 21.1961 19.7826 21.9754 19.0176C22.7546 18.2527 23.277 17.2646 23.4704 16.1899C23.6273 14.6875 23.6306 13.173 23.4804 11.6699Z" fill="#247275"/>
<path d="M22.5206 7.77011C22.3694 7.39771 22.1164 7.07541 21.7906 6.84011C20.5706 5.90011 18.2506 5.71011 16.1006 5.71011C15.1103 5.66606 14.1204 5.80505 13.1806 6.12011C13.0906 6.12011 12.8806 6.29011 12.8806 6.29011C12.3906 6.48011 10.6906 7.20011 9.19055 10.0901C8.08704 12.0443 7.58929 14.2824 7.76055 16.5201C7.76429 16.8844 7.81129 17.2469 7.90055 17.6001C7.9949 18.0408 8.2428 18.4336 8.6 18.7083C8.9572 18.9831 9.40043 19.122 9.85055 19.1001C10.1892 19.0962 10.5257 19.0458 10.8506 18.9501H10.9806H11.1106L11.7406 18.4101C13.7377 16.817 15.8281 15.3444 18.0006 14.0001C18.6924 13.5893 19.4145 13.2316 20.1606 12.9301C20.2706 12.9301 22.6506 12.1001 22.6506 8.57011C22.6598 8.29752 22.6157 8.02574 22.5206 7.77011ZM20.0006 12.3401C20.0006 12.3401 19.1506 12.7301 17.8306 13.4701C17.0606 13.9001 16.1306 14.4701 15.1206 15.1201C13.1206 16.5101 11.3806 17.8401 11.3806 17.8401L10.8206 18.3101C9.24055 18.7901 8.49055 18.0901 8.17055 17.4101C8.05256 17.1684 7.97809 16.9077 7.95055 16.6401C7.78386 14.3866 8.25152 12.1315 9.30055 10.1301C10.9006 7.00011 12.8806 6.41011 12.8806 6.41011C13.7906 5.63011 19.3506 5.52011 21.3306 7.21011C21.5462 7.37315 21.7221 7.58291 21.845 7.82365C21.968 8.06439 22.0348 8.32985 22.0406 8.60011C22.0506 11.6901 20.0006 12.3401 20.0006 12.3401Z" fill="#1298B3"/>
<path d="M22.4098 7.56989C22.2533 7.2006 22.0013 6.87962 21.6798 6.63989C20.4498 5.70989 18.1298 5.51989 15.9798 5.51989C14.9936 5.4772 14.0078 5.6127 13.0698 5.91989L12.7698 6.08989C12.2398 6.29989 10.5298 6.99989 8.99976 9.90989C7.91036 11.8723 7.42341 14.1123 7.59976 16.3499C7.63104 16.6878 7.69126 17.0223 7.77976 17.3499C7.87719 17.7985 8.13297 18.1971 8.50026 18.4726C8.86755 18.748 9.32177 18.882 9.77976 18.8499C10.1175 18.8434 10.4532 18.7964 10.7798 18.7099H10.9098H11.0298L11.6698 18.1699C13.6647 16.6013 15.7554 15.1585 17.9298 13.8499C18.6216 13.4362 19.3437 13.0752 20.0898 12.7699C20.1998 12.7699 22.5898 11.9499 22.5898 8.41989C22.5885 8.12723 22.5273 7.83793 22.4098 7.56989ZM19.8798 12.1399C19.8798 12.1399 19.0198 12.5399 17.7098 13.2699C16.9298 13.7099 15.9998 14.2699 14.9898 14.9199C12.9398 16.3099 11.2498 17.6399 11.2498 17.6399L10.6998 18.1199C9.10976 18.5899 8.35976 17.8899 8.03976 17.2099C7.924 16.9673 7.84964 16.707 7.81976 16.4399C7.65281 14.1896 8.12053 11.9376 9.16976 9.93989C10.7798 6.83989 12.7598 6.20989 12.7598 6.20989C13.6598 5.43989 19.2198 5.32989 21.1998 7.00989C21.4154 7.17293 21.5913 7.38269 21.7142 7.62342C21.8372 7.86416 21.9041 8.12962 21.9098 8.39989C21.9298 11.4999 19.8798 12.1399 19.8798 12.1399Z" fill="#59BBCE"/>
<path d="M21.2203 6.99998C19.2203 5.31998 13.6803 5.42998 12.7803 6.19998C14.0315 7.12668 15.0939 8.28414 15.9103 9.60998C16.5551 9.54131 17.2054 9.54131 17.8503 9.60998H18.1403C18.4191 9.6616 18.685 9.76787 18.9226 9.92269C19.1602 10.0775 19.3649 10.2778 19.5247 10.512C19.6846 10.7462 19.7966 11.0098 19.8541 11.2875C19.9117 11.5652 19.9138 11.8515 19.8603 12.13C19.8603 12.13 21.9103 11.49 21.9103 8.37998C21.9054 8.11306 21.841 7.8506 21.7216 7.61182C21.6022 7.37304 21.4309 7.16399 21.2203 6.99998Z" fill="#115965"/>
<path d="M15.8902 9.63022C15.0738 8.30438 14.0114 7.14692 12.7602 6.22021C12.7602 6.22021 10.7602 6.85021 9.17017 9.95021C8.12094 11.9479 7.65322 14.1999 7.82017 16.4502C7.85005 16.7174 7.92441 16.9776 8.04017 17.2202C8.36017 17.9002 9.11017 18.6002 10.7002 18.1302L11.2502 17.6502C11.0034 17.2772 10.8346 16.8581 10.7538 16.4182C10.6731 15.9783 10.682 15.5266 10.7802 15.0902C10.8818 14.7055 11.0402 14.3382 11.2502 14.0002C12.4902 12.0002 14.5902 9.85021 15.8902 9.66021V9.63022Z" fill="#196C7B"/>
<path d="M18.1607 9.61986H17.8707C17.2258 9.55119 16.5755 9.55119 15.9307 9.61986C16.1407 9.92986 16.3407 10.2799 16.5507 10.6199C17.01 11.4446 17.4045 12.3039 17.7307 13.1899C19.0407 12.4599 19.9007 12.0599 19.9007 12.0599C19.9852 11.5067 19.8507 10.9424 19.5258 10.4867C19.2009 10.0311 18.7112 9.72015 18.1607 9.61986Z" fill="#0F363F"/>
<path d="M43.7706 25.2C42.0906 22.5 40.1406 21.08 40.1406 19.82C40.1406 18.56 41.0706 16.51 40.1406 13.74C39.2106 10.97 39.5306 9.45004 36.8906 8.82004C36.102 8.64469 35.2846 8.64331 34.4953 8.81601C33.7061 8.98871 32.964 9.33134 32.3206 9.82004C32.0213 10.0907 31.7406 10.3814 31.4806 10.69L31.3906 10.81C31.4906 10.92 31.6006 11.06 31.7406 11.2C32.0432 10.7879 32.3775 10.4 32.7406 10.04C33.6845 9.39168 34.7959 9.03047 35.9406 9.00004C36.2774 9.00181 36.613 9.04207 36.9406 9.12004C38.7006 9.54004 38.9406 10.45 39.4706 12.28C39.6106 12.76 39.7606 13.28 39.9406 13.84C40.4013 15.3122 40.4497 16.8823 40.0806 18.38C40.0192 18.8206 39.9924 19.2653 40.0006 19.71C40.0006 20.71 40.7006 21.51 41.6606 22.66C42.3837 23.5098 43.0518 24.405 43.6606 25.34C44.5206 26.7 44.0406 27.12 42.8806 28.13C42.2169 28.6699 41.6314 29.2992 41.1406 30C40.9783 30.244 40.7672 30.4517 40.5206 30.61C40.527 30.6732 40.527 30.7369 40.5206 30.8C40.8212 30.5827 41.0789 30.3114 41.2806 30C42.6906 27.79 45.2806 27.61 43.7706 25.2Z" fill="#59BBCE"/>
<path d="M33.0007 12.81L33.2407 12.72C33.7926 12.5868 34.3694 12.5978 34.9158 12.7519C35.4622 12.906 35.9598 13.198 36.3607 13.6C36.8637 14.5664 37.1245 15.6405 37.1207 16.73C36.9518 17.8738 36.9518 19.0362 37.1207 20.18C37.9807 20.7855 38.7031 21.5659 39.2407 22.47C39.3096 23.6583 39.188 24.85 38.8807 26C38.9807 26.19 39.1207 26.41 39.3107 26.7C40.0907 27.91 39.8307 28.32 40.2007 29.24C40.3785 29.6909 40.4865 30.1664 40.5207 30.65C40.7673 30.4917 40.9784 30.284 41.1407 30.04C41.6253 29.3405 42.2041 28.7112 42.8607 28.17C44.0207 27.17 44.5007 26.74 43.6407 25.38C43.0319 24.4449 42.3638 23.5497 41.6407 22.7C40.6407 21.55 39.9807 20.7 39.9807 19.75C40.0001 19.2894 40.0569 18.8313 40.1507 18.38C40.524 16.8687 40.4721 15.2836 40.0007 13.8C39.8207 13.24 39.6707 12.72 39.5307 12.24C39.0007 10.41 38.7407 9.49996 37.0007 9.07996C36.673 9.00199 36.3375 8.96173 36.0007 8.95996C34.8286 8.97483 33.6872 9.33673 32.7207 9.99996C32.3576 10.3599 32.0232 10.7478 31.7207 11.16C32.1207 11.65 32.5807 12.22 33.0007 12.81Z" fill="#196C7B"/>
<path d="M34.1698 19.6398C34.7433 20.3672 35.3863 21.0371 36.0898 21.6398C36.8698 22.4298 37.3398 22.6398 37.6498 23.3998C37.8011 23.87 38.0093 24.32 38.2698 24.7398C38.5898 25.2598 38.5698 25.3698 38.8798 25.9198C39.1862 24.7832 39.3111 23.6054 39.2498 22.4298C38.7122 21.5257 37.9898 20.7454 37.1298 20.1398C36.9609 18.996 36.9609 17.8336 37.1298 16.6898C37.1335 15.6003 36.8727 14.5262 36.3698 13.5598C35.9688 13.1579 35.4713 12.8658 34.9249 12.7117C34.3785 12.5576 33.8016 12.5466 33.2498 12.6798L33.0098 12.7698C33.5502 13.4375 33.9453 14.2106 34.1698 15.0398C34.3698 16.6498 33.3398 18.5398 34.1698 19.6398Z" fill="#0F363F"/>
<path d="M40.3701 30.6098C39.3451 31.1893 38.1758 31.4634 37.0001 31.3998C35.9752 31.4317 34.9545 31.2548 34.0001 30.8798C33.2601 30.5132 32.4434 29.2965 31.5501 27.2298L31.4501 26.9898C31.0901 26.1298 30.7101 25.1298 30.3201 23.9898C29.9363 22.3453 29.9363 20.6344 30.3201 18.9898C30.4991 17.9796 30.5894 16.9557 30.5901 15.9298C30.5838 15.5348 30.5301 15.142 30.4301 14.7598C30.4245 14.6732 30.4245 14.5864 30.4301 14.4998C30.4247 13.286 30.8499 12.1097 31.6301 11.1798C31.5001 11.0398 31.5001 10.9298 31.4001 10.8198C30.5901 11.8198 29.4801 13.3498 29.8701 14.9098C30.4701 17.4298 28.7601 21.1898 29.7701 24.1698C30.1101 25.1698 30.4801 26.1698 30.8901 27.1698C31.7301 29.1698 32.7101 30.8998 33.7601 31.4298C34.8462 31.8251 36.007 31.9728 37.1575 31.8621C38.308 31.7514 39.4193 31.385 40.4101 30.7898C40.4101 30.7898 40.3801 30.7298 40.3701 30.6098Z" fill="#1298B3"/>
<path d="M40.5207 30.61C39.5041 31.1829 38.3462 31.4568 37.1807 31.4C36.1559 31.4292 35.1358 31.2524 34.1807 30.88C33.4507 30.51 32.6307 29.29 31.7407 27.23L31.6407 26.99C31.2807 26.13 30.9007 25.13 30.5107 23.99C30.1269 22.3455 30.1269 20.6346 30.5107 18.99C30.6847 17.9792 30.775 16.9557 30.7807 15.93C30.7645 15.5359 30.7109 15.1441 30.6207 14.76C30.6103 14.6737 30.6103 14.5864 30.6207 14.5C30.61 13.2854 31.0359 12.1072 31.8207 11.18C31.6807 11.04 31.5707 10.9 31.4707 10.79C30.6607 11.79 29.6707 13.35 30.0607 14.91C30.6707 17.43 28.9507 21.19 29.9707 24.17C30.3107 25.17 30.6807 26.17 31.0907 27.17C31.9307 29.17 32.9107 30.9 33.9507 31.43C35.0368 31.8253 36.1975 31.973 37.3481 31.8623C38.4986 31.7516 39.6099 31.3852 40.6007 30.79C40.5804 30.7274 40.5536 30.6671 40.5207 30.61Z" fill="#59BBCE"/>
<path d="M39.3104 26.66C39.1204 26.37 38.9804 26.15 38.8804 25.96C38.8804 26.18 38.8103 26.39 38.7803 26.56C38.6303 27.66 34.5704 29.19 32.5404 27.56C32.2513 27.3321 31.9397 27.1344 31.6104 26.97L31.7104 27.21C32.6004 29.27 33.4204 30.49 34.1504 30.86C35.1055 31.2323 36.1256 31.4091 37.1504 31.38C38.3159 31.4367 39.4737 31.1629 40.4904 30.59C40.4561 30.1064 40.3482 29.6309 40.1703 29.18C39.8303 28.28 40.0904 27.87 39.3104 26.66Z" fill="#0E5A65"/>
<path d="M30.54 14.5099C30.5296 14.5963 30.5296 14.6836 30.54 14.7699C30.6303 15.154 30.6838 15.5458 30.7 15.9399C30.7 15.7899 31.47 13.4999 32.97 12.8099C32.54 12.2199 32.08 11.6499 31.7 11.1899C30.9296 12.1228 30.5182 13.3003 30.54 14.5099Z" fill="#0E5A65"/>
<path d="M38.7805 26.5601C38.7805 26.3901 38.8405 26.1801 38.8805 25.9601C38.5705 25.4101 38.5905 25.3001 38.2705 24.7801C38.0101 24.3603 37.8018 23.9103 37.6505 23.4401C37.3405 22.6801 36.8705 22.4401 36.0905 21.6801C35.387 21.0773 34.744 20.4075 34.1705 19.6801C33.3405 18.5801 34.3705 16.6801 34.1705 15.1201C33.9483 14.276 33.5495 13.4886 33.0005 12.8101C31.5005 13.5001 30.7705 15.8101 30.7305 15.9401C30.7281 16.9655 30.6411 17.9889 30.4705 19.0001C30.0867 20.6446 30.0867 22.3555 30.4705 24.0001C30.8605 25.1401 31.2405 26.1401 31.6005 27.0001C31.9298 27.1645 32.2414 27.3622 32.5305 27.5901C34.5705 29.1901 38.6305 27.6601 38.7805 26.5601Z" fill="#032C35"/>
<path d="M49.1707 21.8C48.5337 19.7433 48.0753 17.6355 47.8007 15.5C47.6509 14.0408 47.3833 12.5961 47.0007 11.18C46.1707 8.9 35.0007 0.13 32.4907 0C30.3311 0.0212884 28.1783 0.245609 26.0607 0.67C26.0607 0.67 17.3807 0.8 16.6607 1.01C14.8514 1.47561 13.1521 2.29468 11.6607 3.42C10.0716 4.98648 8.58832 6.65683 7.2207 8.42C7.2207 8.42 10.5907 5.02 12.2207 3.64C13.8507 2.26 17.0007 1.88 19.4007 1.82C21.8007 1.76 21.7407 1.99 24.4007 2.46C27.0607 2.93 27.4007 0.97 30.5307 1.7C33.6607 2.43 33.3807 2.93 34.7607 3.8C39.7607 6.97 45.4207 11.34 45.8307 12.21C46.2407 13.08 46.0407 12.93 46.2507 14.5C46.4607 16.07 45.6807 14.45 46.6107 17.23C47.5407 20.01 47.1307 20.32 47.4507 21.84C47.6283 22.7129 47.869 23.5718 48.1707 24.41C48.4807 25.46 48.2807 25.56 48.6407 27.24C49.0007 28.92 48.0807 27.56 48.5207 29.67C48.8451 30.7998 48.937 31.9837 48.7907 33.15C49.6607 31.68 49.6107 31.24 49.9207 28.45C50.1392 26.2053 49.8837 23.9397 49.1707 21.8Z" fill="#41D6E1"/>
<path d="M10.3002 24.8802C11.0237 24.8802 11.6102 24.2892 11.6102 23.5602C11.6102 22.8312 11.0237 22.2402 10.3002 22.2402C9.57674 22.2402 8.99023 22.8312 8.99023 23.5602C8.99023 24.2892 9.57674 24.8802 10.3002 24.8802Z" fill="#136470"/>
<path d="M19.7307 22.8502C19.5607 21.8502 18.6007 20.8502 19.7307 21.0102C20.8607 21.1702 21.4307 20.1202 22.3107 20.7502C23.1907 21.3802 22.9807 20.8502 23.3107 22.3202C23.6407 23.7902 23.1307 24.5002 22.5107 24.8802C21.8907 25.2602 21.7807 24.7802 20.9007 25.2802C20.0207 25.7802 19.5307 26.5702 19.2207 25.5702C19.1207 25.2184 19.1191 24.8459 19.2161 24.4933C19.3131 24.1407 19.5049 23.8214 19.7707 23.5702C19.9207 23.4202 19.7307 22.8502 19.7307 22.8502Z" fill="#1E4E57"/>
<path d="M17.51 37.3398C17.51 37.3398 19.65 31.8398 23.05 31.9098C26.45 31.9798 26 35.4098 27 36.1798C28 36.9498 28.46 38.1798 26.48 38.1798C24.5 38.1798 23.57 36.6498 22.24 36.6298C20.91 36.6098 20.13 36.4498 19.12 37.0798C18.11 37.7098 18.07 37.4698 17.71 37.4698C17.35 37.4698 17.51 37.3398 17.51 37.3398Z" fill="#084F59"/>
<path d="M43.3607 33.43C43.3607 33.43 43.3607 32.83 43.8807 32.8C44.4007 32.77 44.8807 32.8 45.0407 33.12C45.1191 33.7873 44.9862 34.4623 44.6607 35.05C44.3507 35.47 43.5307 36.05 43.1007 36.53C42.6707 37.01 42.1007 37.99 41.9007 37.17C41.7007 36.35 41.7207 35.86 42.2407 35.43C42.6274 35.0372 42.8915 34.5404 43.0007 34C43.0833 33.7889 43.2055 33.5954 43.3607 33.43Z" fill="#14869A"/>
<path d="M45.5405 31.91C45.7117 31.91 45.8505 31.6593 45.8505 31.35C45.8505 31.0408 45.7117 30.79 45.5405 30.79C45.3693 30.79 45.2305 31.0408 45.2305 31.35C45.2305 31.6593 45.3693 31.91 45.5405 31.91Z" fill="#14869A"/>
</g>
<defs>
<clipPath id="clip0_2203_40001">
<rect width="50" height="50" fill="white"/>
</clipPath>
</defs>
</svg>
