<svg width="32" height="32" viewBox="0 0 32 32" fill="none" xmlns="http://www.w3.org/2000/svg">
<g clip-path="url(#clip0_2203_32410)">
<path d="M22.4105 6.05584C28.0306 9.53192 29.7884 16.9685 26.3167 22.5816C23.1138 27.76 16.5346 29.6492 11.1219 27.1815C10.3628 26.8354 10.1499 25.8918 10.5958 25.1867C11.0355 24.4915 11.9502 24.2938 12.7106 24.6075C16.7197 26.2614 21.4328 24.8248 23.7876 21.0174C26.4072 16.7821 25.0986 11.2459 20.858 8.62306C18.7376 7.31163 16.3302 7.09252 14.0828 7.64258L14.5354 9.55033L7.48339 7.40576L12.8294 2.34705L13.3797 4.66794C16.3552 3.96854 19.6259 4.33361 22.436 6.07164L22.4105 6.05584Z" fill="white"/>
<path d="M19 16C19 17.6569 17.6569 19 16 19C14.3431 19 13 17.6569 13 16C13 14.3431 14.3431 13 16 13C17.6569 13 19 14.3431 19 16Z" fill="white"/>
</g>
<defs>
<clipPath id="clip0_2203_32410">
<rect width="32" height="32" fill="white"/>
</clipPath>
</defs>
</svg>
