<svg width="32" height="32" viewBox="0 0 32 32" fill="none" xmlns="http://www.w3.org/2000/svg">
<path d="M7.10695 21.2385C6.81343 19.9575 6.66582 18.6474 6.66695 17.3332C6.66695 10.5492 10.5376 4.75183 16.0003 2.42383C21.4629 4.75183 25.3336 10.5492 25.3336 17.3332C25.3336 18.6798 25.1816 19.9878 24.8936 21.2385L27.587 23.6332C27.7029 23.7363 27.7792 23.8766 27.8028 24.0299C27.8264 24.1832 27.7958 24.34 27.7163 24.4732L24.4389 29.9345C24.3868 30.0213 24.3155 30.095 24.2306 30.1502C24.1457 30.2053 24.0493 30.2404 23.9488 30.2527C23.8483 30.265 23.7463 30.2543 23.6506 30.2214C23.5549 30.1884 23.4679 30.1341 23.3963 30.0625L20.3909 27.0572C20.141 26.8071 19.8019 26.6666 19.4483 26.6665H12.5523C12.1987 26.6666 11.8596 26.8071 11.6096 27.0572L8.60428 30.0625C8.53267 30.1341 8.4457 30.1884 8.34996 30.2214C8.25423 30.2543 8.15224 30.265 8.05174 30.2527C7.95125 30.2404 7.85488 30.2053 7.76996 30.1502C7.68503 30.095 7.61379 30.0213 7.56162 29.9345L4.28428 24.4745C4.20438 24.3412 4.17358 24.1841 4.19719 24.0305C4.22081 23.8769 4.29736 23.7363 4.41362 23.6332L7.10695 21.2385ZM16.0003 17.3332C16.7075 17.3332 17.3858 17.0522 17.8859 16.5521C18.386 16.052 18.6669 15.3737 18.6669 14.6665C18.6669 13.9593 18.386 13.281 17.8859 12.7809C17.3858 12.2808 16.7075 11.9998 16.0003 11.9998C15.293 11.9998 14.6148 12.2808 14.1147 12.7809C13.6146 13.281 13.3336 13.9593 13.3336 14.6665C13.3336 15.3737 13.6146 16.052 14.1147 16.5521C14.6148 17.0522 15.293 17.3332 16.0003 17.3332Z" fill="white"/>
</svg>
