<svg width="89" height="12" viewBox="0 0 89 12" fill="none" xmlns="http://www.w3.org/2000/svg">
<path d="M22.27 8.1245C22.3507 8.1245 22.4203 8.15567 22.479 8.218L23.062 8.8505C22.7393 9.25017 22.3415 9.55633 21.8685 9.769C21.3992 9.98167 20.8345 10.088 20.1745 10.088C19.5842 10.088 19.0525 9.98717 18.5795 9.7855C18.1102 9.58383 17.7087 9.30333 17.375 8.944C17.0413 8.58467 16.7847 8.15567 16.605 7.657C16.429 7.15833 16.341 6.61383 16.341 6.0235C16.341 5.42583 16.44 4.8795 16.638 4.3845C16.836 3.88583 17.1147 3.45683 17.474 3.0975C17.8333 2.73817 18.2623 2.4595 18.761 2.2615C19.2633 2.05983 19.817 1.959 20.422 1.959C21.0123 1.959 21.5275 2.05433 21.9675 2.245C22.4112 2.432 22.7907 2.68133 23.106 2.993L22.611 3.6805C22.5817 3.7245 22.5432 3.763 22.4955 3.796C22.4515 3.829 22.3892 3.8455 22.3085 3.8455C22.2242 3.8455 22.138 3.8125 22.05 3.7465C21.962 3.6805 21.8502 3.609 21.7145 3.532C21.5788 3.455 21.4065 3.3835 21.1975 3.3175C20.9922 3.2515 20.73 3.2185 20.411 3.2185C20.037 3.2185 19.6923 3.2845 19.377 3.4165C19.0653 3.54483 18.7958 3.73 18.5685 3.972C18.3448 4.214 18.1688 4.50917 18.0405 4.8575C17.9158 5.20217 17.8535 5.59083 17.8535 6.0235C17.8535 6.47083 17.9158 6.86867 18.0405 7.217C18.1688 7.56533 18.3412 7.85867 18.5575 8.097C18.7738 8.33533 19.0287 8.51867 19.322 8.647C19.6153 8.77167 19.9307 8.834 20.268 8.834C20.4697 8.834 20.6512 8.823 20.8125 8.801C20.9775 8.779 21.1278 8.74417 21.2635 8.6965C21.4028 8.64883 21.533 8.58833 21.654 8.515C21.7787 8.438 21.9015 8.3445 22.0225 8.2345C22.0592 8.2015 22.0977 8.17583 22.138 8.1575C22.1783 8.1355 22.2223 8.1245 22.27 8.1245ZM24.1059 10V4.357H24.9034C25.0427 4.357 25.1399 4.38267 25.1949 4.434C25.2499 4.48533 25.2865 4.57333 25.3049 4.698L25.3874 5.38C25.589 5.03167 25.8255 4.75667 26.0969 4.555C26.3682 4.35333 26.6725 4.2525 27.0099 4.2525C27.2885 4.2525 27.5195 4.31667 27.7029 4.445L27.5269 5.4625C27.5159 5.5285 27.492 5.57617 27.4554 5.6055C27.4187 5.63117 27.3692 5.644 27.3069 5.644C27.2519 5.644 27.1767 5.63117 27.0814 5.6055C26.986 5.57983 26.8595 5.567 26.7019 5.567C26.4195 5.567 26.1775 5.64583 25.9759 5.8035C25.7742 5.9575 25.6037 6.18483 25.4644 6.4855V10H24.1059ZM30.9281 4.269C31.2838 4.269 31.6101 4.32583 31.9071 4.4395C32.2078 4.55317 32.4663 4.72 32.6826 4.94C32.899 5.15633 33.0676 5.424 33.1886 5.743C33.3096 6.05833 33.3701 6.4195 33.3701 6.8265C33.3701 6.92917 33.3646 7.01533 33.3536 7.085C33.3463 7.151 33.3298 7.20417 33.3041 7.2445C33.2821 7.28117 33.251 7.30867 33.2106 7.327C33.1703 7.34167 33.119 7.349 33.0566 7.349H29.5696C29.61 7.92833 29.7658 8.35367 30.0371 8.625C30.3085 8.89633 30.6678 9.032 31.1151 9.032C31.3351 9.032 31.524 9.00633 31.6816 8.955C31.843 8.90367 31.9823 8.84683 32.0996 8.7845C32.2206 8.72217 32.3251 8.66533 32.4131 8.614C32.5048 8.56267 32.5928 8.537 32.6771 8.537C32.7321 8.537 32.7798 8.548 32.8201 8.57C32.8605 8.592 32.8953 8.62317 32.9246 8.6635L33.3206 9.1585C33.1703 9.3345 33.0016 9.483 32.8146 9.604C32.6276 9.72133 32.4315 9.81667 32.2261 9.89C32.0245 9.95967 31.8173 10.0092 31.6046 10.0385C31.3956 10.0678 31.1921 10.0825 30.9941 10.0825C30.6018 10.0825 30.237 10.0183 29.8996 9.89C29.5623 9.758 29.269 9.5655 29.0196 9.3125C28.7703 9.05583 28.5741 8.7405 28.4311 8.3665C28.2881 7.98883 28.2166 7.5525 28.2166 7.0575C28.2166 6.6725 28.279 6.31133 28.4036 5.974C28.5283 5.633 28.7061 5.33783 28.9371 5.0885C29.1718 4.8355 29.456 4.63567 29.7896 4.489C30.127 4.34233 30.5065 4.269 30.9281 4.269ZM30.9556 5.2425C30.5596 5.2425 30.2498 5.35433 30.0261 5.578C29.8025 5.80167 29.6595 6.11883 29.5971 6.5295H32.1491C32.1491 6.3535 32.1253 6.1885 32.0776 6.0345C32.03 5.87683 31.9566 5.73933 31.8576 5.622C31.7586 5.50467 31.634 5.413 31.4836 5.347C31.3333 5.27733 31.1573 5.2425 30.9556 5.2425ZM38.8941 10H38.2836C38.1553 10 38.0544 9.98167 37.9811 9.945C37.9078 9.90467 37.8528 9.82583 37.8161 9.7085L37.6951 9.307C37.5521 9.43533 37.4109 9.549 37.2716 9.648C37.1359 9.74333 36.9948 9.824 36.8481 9.89C36.7014 9.956 36.5456 10.0055 36.3806 10.0385C36.2156 10.0715 36.0323 10.088 35.8306 10.088C35.5923 10.088 35.3723 10.0568 35.1706 9.9945C34.9689 9.9285 34.7948 9.83133 34.6481 9.703C34.5051 9.57467 34.3933 9.41517 34.3126 9.2245C34.2319 9.03383 34.1916 8.812 34.1916 8.559C34.1916 8.34633 34.2466 8.13733 34.3566 7.932C34.4703 7.723 34.6573 7.536 34.9176 7.371C35.1779 7.20233 35.5244 7.063 35.9571 6.953C36.3898 6.843 36.9269 6.78067 37.5686 6.766V6.436C37.5686 6.05833 37.4879 5.77967 37.3266 5.6C37.1689 5.41667 36.9379 5.325 36.6336 5.325C36.4136 5.325 36.2303 5.35067 36.0836 5.402C35.9369 5.45333 35.8086 5.512 35.6986 5.578C35.5923 5.64033 35.4933 5.69717 35.4016 5.7485C35.3099 5.79983 35.2091 5.8255 35.0991 5.8255C35.0074 5.8255 34.9286 5.80167 34.8626 5.754C34.7966 5.70633 34.7434 5.64767 34.7031 5.578L34.4556 5.1435C35.1046 4.5495 35.8874 4.2525 36.8041 4.2525C37.1341 4.2525 37.4274 4.3075 37.6841 4.4175C37.9444 4.52383 38.1644 4.67417 38.3441 4.8685C38.5238 5.05917 38.6594 5.28833 38.7511 5.556C38.8464 5.82367 38.8941 6.117 38.8941 6.436V10ZM36.2541 9.153C36.3934 9.153 36.5218 9.14017 36.6391 9.1145C36.7564 9.08883 36.8664 9.05033 36.9691 8.999C37.0754 8.94767 37.1763 8.88533 37.2716 8.812C37.3706 8.735 37.4696 8.64517 37.5686 8.5425V7.591C37.1726 7.60933 36.8408 7.64417 36.5731 7.6955C36.3091 7.74317 36.0964 7.8055 35.9351 7.8825C35.7738 7.9595 35.6583 8.04933 35.5886 8.152C35.5226 8.25467 35.4896 8.3665 35.4896 8.4875C35.4896 8.72583 35.5593 8.89633 35.6986 8.999C35.8416 9.10167 36.0268 9.153 36.2541 9.153ZM42.0834 10.088C41.5957 10.088 41.2199 9.9505 40.9559 9.6755C40.6919 9.39683 40.5599 9.01367 40.5599 8.526V5.3745H39.9879C39.9146 5.3745 39.8504 5.35067 39.7954 5.303C39.7441 5.25533 39.7184 5.18383 39.7184 5.0885V4.5495L40.6259 4.401L40.9119 2.861C40.9266 2.78767 40.9596 2.73083 41.0109 2.6905C41.0659 2.65017 41.1337 2.63 41.2144 2.63H41.9184V4.4065H43.4034V5.3745H41.9184V8.4325C41.9184 8.6085 41.9624 8.746 42.0504 8.845C42.1384 8.944 42.2557 8.9935 42.4024 8.9935C42.4867 8.9935 42.5564 8.98433 42.6114 8.966C42.6701 8.944 42.7196 8.922 42.7599 8.9C42.8039 8.878 42.8424 8.85783 42.8754 8.8395C42.9084 8.8175 42.9414 8.8065 42.9744 8.8065C43.0147 8.8065 43.0477 8.8175 43.0734 8.8395C43.0991 8.85783 43.1266 8.88717 43.1559 8.9275L43.5629 9.5875C43.3649 9.7525 43.1376 9.87717 42.8809 9.9615C42.6242 10.0458 42.3584 10.088 42.0834 10.088ZM46.8158 4.269C47.1715 4.269 47.4978 4.32583 47.7948 4.4395C48.0955 4.55317 48.354 4.72 48.5703 4.94C48.7866 5.15633 48.9553 5.424 49.0763 5.743C49.1973 6.05833 49.2578 6.4195 49.2578 6.8265C49.2578 6.92917 49.2523 7.01533 49.2413 7.085C49.234 7.151 49.2175 7.20417 49.1918 7.2445C49.1698 7.28117 49.1386 7.30867 49.0983 7.327C49.058 7.34167 49.0066 7.349 48.9443 7.349H45.4573C45.4976 7.92833 45.6535 8.35367 45.9248 8.625C46.1961 8.89633 46.5555 9.032 47.0028 9.032C47.2228 9.032 47.4116 9.00633 47.5693 8.955C47.7306 8.90367 47.87 8.84683 47.9873 8.7845C48.1083 8.72217 48.2128 8.66533 48.3008 8.614C48.3925 8.56267 48.4805 8.537 48.5648 8.537C48.6198 8.537 48.6675 8.548 48.7078 8.57C48.7481 8.592 48.783 8.62317 48.8123 8.6635L49.2083 9.1585C49.058 9.3345 48.8893 9.483 48.7023 9.604C48.5153 9.72133 48.3191 9.81667 48.1138 9.89C47.9121 9.95967 47.705 10.0092 47.4923 10.0385C47.2833 10.0678 47.0798 10.0825 46.8818 10.0825C46.4895 10.0825 46.1246 10.0183 45.7873 9.89C45.45 9.758 45.1566 9.5655 44.9073 9.3125C44.658 9.05583 44.4618 8.7405 44.3188 8.3665C44.1758 7.98883 44.1043 7.5525 44.1043 7.0575C44.1043 6.6725 44.1666 6.31133 44.2913 5.974C44.416 5.633 44.5938 5.33783 44.8248 5.0885C45.0595 4.8355 45.3436 4.63567 45.6773 4.489C46.0146 4.34233 46.3941 4.269 46.8158 4.269ZM46.8433 5.2425C46.4473 5.2425 46.1375 5.35433 45.9138 5.578C45.6901 5.80167 45.5471 6.11883 45.4848 6.5295H48.0368C48.0368 6.3535 48.013 6.1885 47.9653 6.0345C47.9176 5.87683 47.8443 5.73933 47.7453 5.622C47.6463 5.50467 47.5216 5.413 47.3713 5.347C47.221 5.27733 47.045 5.2425 46.8433 5.2425ZM56.9087 10H56.2982C56.1699 10 56.0691 9.98167 55.9957 9.945C55.9224 9.90467 55.8674 9.82583 55.8307 9.7085L55.7097 9.307C55.5667 9.43533 55.4256 9.549 55.2862 9.648C55.1506 9.74333 55.0094 9.824 54.8627 9.89C54.7161 9.956 54.5602 10.0055 54.3952 10.0385C54.2302 10.0715 54.0469 10.088 53.8452 10.088C53.6069 10.088 53.3869 10.0568 53.1852 9.9945C52.9836 9.9285 52.8094 9.83133 52.6627 9.703C52.5197 9.57467 52.4079 9.41517 52.3272 9.2245C52.2466 9.03383 52.2062 8.812 52.2062 8.559C52.2062 8.34633 52.2612 8.13733 52.3712 7.932C52.4849 7.723 52.6719 7.536 52.9322 7.371C53.1926 7.20233 53.5391 7.063 53.9717 6.953C54.4044 6.843 54.9416 6.78067 55.5832 6.766V6.436C55.5832 6.05833 55.5026 5.77967 55.3412 5.6C55.1836 5.41667 54.9526 5.325 54.6482 5.325C54.4282 5.325 54.2449 5.35067 54.0982 5.402C53.9516 5.45333 53.8232 5.512 53.7132 5.578C53.6069 5.64033 53.5079 5.69717 53.4162 5.7485C53.3246 5.79983 53.2237 5.8255 53.1137 5.8255C53.0221 5.8255 52.9432 5.80167 52.8772 5.754C52.8112 5.70633 52.7581 5.64767 52.7177 5.578L52.4702 5.1435C53.1192 4.5495 53.9021 4.2525 54.8187 4.2525C55.1487 4.2525 55.4421 4.3075 55.6987 4.4175C55.9591 4.52383 56.1791 4.67417 56.3587 4.8685C56.5384 5.05917 56.6741 5.28833 56.7657 5.556C56.8611 5.82367 56.9087 6.117 56.9087 6.436V10ZM54.2687 9.153C54.4081 9.153 54.5364 9.14017 54.6537 9.1145C54.7711 9.08883 54.8811 9.05033 54.9837 8.999C55.0901 8.94767 55.1909 8.88533 55.2862 8.812C55.3852 8.735 55.4842 8.64517 55.5832 8.5425V7.591C55.1872 7.60933 54.8554 7.64417 54.5877 7.6955C54.3237 7.74317 54.1111 7.8055 53.9497 7.8825C53.7884 7.9595 53.6729 8.04933 53.6032 8.152C53.5372 8.25467 53.5042 8.3665 53.5042 8.4875C53.5042 8.72583 53.5739 8.89633 53.7132 8.999C53.8562 9.10167 54.0414 9.153 54.2687 9.153ZM60.3715 10V4.357H61.202C61.378 4.357 61.4935 4.4395 61.5485 4.6045L61.6365 5.0225C61.7355 4.9125 61.8382 4.81167 61.9445 4.72C62.0545 4.62833 62.17 4.5495 62.291 4.4835C62.4157 4.4175 62.5477 4.36617 62.687 4.3295C62.83 4.28917 62.9858 4.269 63.1545 4.269C63.5102 4.269 63.8017 4.36617 64.029 4.5605C64.26 4.75117 64.4323 5.006 64.546 5.325C64.634 5.138 64.744 4.9785 64.876 4.8465C65.008 4.71083 65.1528 4.60083 65.3105 4.5165C65.4682 4.43217 65.635 4.36983 65.811 4.3295C65.9907 4.28917 66.1703 4.269 66.35 4.269C66.6617 4.269 66.9385 4.31667 67.1805 4.412C67.4225 4.50733 67.626 4.64667 67.791 4.83C67.956 5.01333 68.0807 5.237 68.165 5.501C68.253 5.765 68.297 6.0675 68.297 6.4085V10H66.9385V6.4085C66.9385 6.04917 66.8597 5.77967 66.702 5.6C66.5443 5.41667 66.3133 5.325 66.009 5.325C65.8697 5.325 65.7395 5.34883 65.6185 5.3965C65.5012 5.44417 65.3967 5.51383 65.305 5.6055C65.217 5.6935 65.1473 5.80533 65.096 5.941C65.0447 6.07667 65.019 6.2325 65.019 6.4085V10H63.655V6.4085C63.655 6.03083 63.578 5.75583 63.424 5.5835C63.2737 5.41117 63.05 5.325 62.753 5.325C62.5587 5.325 62.3753 5.3745 62.203 5.4735C62.0343 5.56883 61.8767 5.70083 61.73 5.8695V10H60.3715ZM71.0778 4.357V10H69.7193V4.357H71.0778ZM71.2813 2.7125C71.2813 2.82983 71.2574 2.93983 71.2098 3.0425C71.1621 3.14517 71.0979 3.235 71.0173 3.312C70.9403 3.389 70.8486 3.45133 70.7423 3.499C70.6359 3.543 70.5223 3.565 70.4013 3.565C70.2839 3.565 70.1721 3.543 70.0658 3.499C69.9631 3.45133 69.8733 3.389 69.7963 3.312C69.7193 3.235 69.6569 3.14517 69.6093 3.0425C69.5653 2.93983 69.5433 2.82983 69.5433 2.7125C69.5433 2.5915 69.5653 2.47783 69.6093 2.3715C69.6569 2.26517 69.7193 2.1735 69.7963 2.0965C69.8733 2.0195 69.9631 1.959 70.0658 1.915C70.1721 1.86733 70.2839 1.8435 70.4013 1.8435C70.5223 1.8435 70.6359 1.86733 70.7423 1.915C70.8486 1.959 70.9403 2.0195 71.0173 2.0965C71.0979 2.1735 71.1621 2.26517 71.2098 2.3715C71.2574 2.47783 71.2813 2.5915 71.2813 2.7125ZM72.6176 10V4.357H73.4481C73.6241 4.357 73.7396 4.4395 73.7946 4.6045L73.8881 5.05C74.0018 4.93267 74.1209 4.82633 74.2456 4.731C74.3739 4.63567 74.5078 4.55317 74.6471 4.4835C74.7901 4.41383 74.9423 4.36067 75.1036 4.324C75.2649 4.28733 75.4409 4.269 75.6316 4.269C75.9396 4.269 76.2128 4.32217 76.4511 4.4285C76.6894 4.53117 76.8874 4.67783 77.0451 4.8685C77.2064 5.0555 77.3274 5.281 77.4081 5.545C77.4924 5.80533 77.5346 6.09317 77.5346 6.4085V10H76.1761V6.4085C76.1761 6.06383 76.0954 5.798 75.9341 5.611C75.7764 5.42033 75.5381 5.325 75.2191 5.325C74.9844 5.325 74.7644 5.37817 74.5591 5.4845C74.3538 5.59083 74.1594 5.73567 73.9761 5.919V10H72.6176ZM81.2016 4.269C81.5572 4.269 81.8836 4.32583 82.1806 4.4395C82.4812 4.55317 82.7397 4.72 82.9561 4.94C83.1724 5.15633 83.3411 5.424 83.4621 5.743C83.5831 6.05833 83.6436 6.4195 83.6436 6.8265C83.6436 6.92917 83.6381 7.01533 83.6271 7.085C83.6197 7.151 83.6032 7.20417 83.5776 7.2445C83.5556 7.28117 83.5244 7.30867 83.4841 7.327C83.4437 7.34167 83.3924 7.349 83.3301 7.349H79.8431C79.8834 7.92833 80.0392 8.35367 80.3106 8.625C80.5819 8.89633 80.9412 9.032 81.3886 9.032C81.6086 9.032 81.7974 9.00633 81.9551 8.955C82.1164 8.90367 82.2557 8.84683 82.3731 8.7845C82.4941 8.72217 82.5986 8.66533 82.6866 8.614C82.7782 8.56267 82.8662 8.537 82.9506 8.537C83.0056 8.537 83.0532 8.548 83.0936 8.57C83.1339 8.592 83.1687 8.62317 83.1981 8.6635L83.5941 9.1585C83.4437 9.3345 83.2751 9.483 83.0881 9.604C82.9011 9.72133 82.7049 9.81667 82.4996 9.89C82.2979 9.95967 82.0907 10.0092 81.8781 10.0385C81.6691 10.0678 81.4656 10.0825 81.2676 10.0825C80.8752 10.0825 80.5104 10.0183 80.1731 9.89C79.8357 9.758 79.5424 9.5655 79.2931 9.3125C79.0437 9.05583 78.8476 8.7405 78.7046 8.3665C78.5616 7.98883 78.4901 7.5525 78.4901 7.0575C78.4901 6.6725 78.5524 6.31133 78.6771 5.974C78.8017 5.633 78.9796 5.33783 79.2106 5.0885C79.4452 4.8355 79.7294 4.63567 80.0631 4.489C80.4004 4.34233 80.7799 4.269 81.2016 4.269ZM81.2291 5.2425C80.8331 5.2425 80.5232 5.35433 80.2996 5.578C80.0759 5.80167 79.9329 6.11883 79.8706 6.5295H82.4226C82.4226 6.3535 82.3987 6.1885 82.3511 6.0345C82.3034 5.87683 82.2301 5.73933 82.1311 5.622C82.0321 5.50467 81.9074 5.413 81.7571 5.347C81.6067 5.27733 81.4307 5.2425 81.2291 5.2425ZM84.7455 10V4.357H85.543C85.6824 4.357 85.7795 4.38267 85.8345 4.434C85.8895 4.48533 85.9262 4.57333 85.9445 4.698L86.027 5.38C86.2287 5.03167 86.4652 4.75667 86.7365 4.555C87.0079 4.35333 87.3122 4.2525 87.6495 4.2525C87.9282 4.2525 88.1592 4.31667 88.3425 4.445L88.1665 5.4625C88.1555 5.5285 88.1317 5.57617 88.095 5.6055C88.0584 5.63117 88.0089 5.644 87.9465 5.644C87.8915 5.644 87.8164 5.63117 87.721 5.6055C87.6257 5.57983 87.4992 5.567 87.3415 5.567C87.0592 5.567 86.8172 5.64583 86.6155 5.8035C86.4139 5.9575 86.2434 6.18483 86.104 6.4855V10H84.7455Z" fill="#00F0FF"/>
<g clip-path="url(#clip0_2204_69237)">
<path d="M4.49996 6.00046H5.99996H4.49996ZM7.49996 6.00046H5.99996H7.49996ZM5.99996 6.00046V4.50046V6.00046ZM5.99996 6.00046V7.50046V6.00046ZM5.84996 0.587063C5.94276 0.533478 6.05716 0.533478 6.14996 0.587068L10.6131 3.16386C10.7059 3.21745 10.7631 3.31649 10.7631 3.42367V8.57726C10.7631 8.68441 10.7059 8.78346 10.6131 8.83706L6.14996 11.4139C6.05716 11.4675 5.94276 11.4675 5.84996 11.4139L1.38682 8.83706C1.294 8.78346 1.23682 8.68441 1.23682 8.57726V3.42367C1.23682 3.31649 1.294 3.21745 1.38682 3.16386L5.84996 0.587063Z" fill="#00F0FF" stroke="#00F0FF" stroke-linecap="round" stroke-linejoin="round"/>
<path d="M4 6H6M6 6H8M6 6V4M6 6V8" stroke="#191A29" stroke-linecap="round" stroke-linejoin="round"/>
</g>
<defs>
<clipPath id="clip0_2204_69237">
<rect width="12" height="12" fill="white"/>
</clipPath>
</defs>
</svg>
