<svg width="91" height="28" viewBox="0 0 91 28" fill="none" xmlns="http://www.w3.org/2000/svg">
<rect width="91" height="28" rx="8" fill="#E1E2EF"/>
<path d="M38.592 12.034C38.532 12.13 38.468 12.202 38.4 12.25C38.336 12.298 38.252 12.322 38.148 12.322C38.056 12.322 37.956 12.294 37.848 12.238C37.744 12.178 37.624 12.112 37.488 12.04C37.356 11.968 37.204 11.904 37.032 11.848C36.86 11.788 36.664 11.758 36.444 11.758C36.064 11.758 35.78 11.84 35.592 12.004C35.408 12.164 35.316 12.382 35.316 12.658C35.316 12.834 35.372 12.98 35.484 13.096C35.596 13.212 35.742 13.312 35.922 13.396C36.106 13.48 36.314 13.558 36.546 13.63C36.782 13.698 37.022 13.776 37.266 13.864C37.51 13.948 37.748 14.048 37.98 14.164C38.216 14.28 38.424 14.428 38.604 14.608C38.788 14.788 38.936 15.008 39.048 15.268C39.16 15.524 39.216 15.834 39.216 16.198C39.216 16.602 39.146 16.98 39.006 17.332C38.866 17.684 38.662 17.992 38.394 18.256C38.13 18.516 37.802 18.722 37.41 18.874C37.022 19.022 36.58 19.096 36.084 19.096C35.812 19.096 35.534 19.068 35.25 19.012C34.97 18.956 34.698 18.878 34.434 18.778C34.17 18.674 33.922 18.552 33.69 18.412C33.458 18.272 33.256 18.116 33.084 17.944L33.684 16.996C33.728 16.924 33.79 16.866 33.87 16.822C33.95 16.778 34.036 16.756 34.128 16.756C34.248 16.756 34.368 16.794 34.488 16.87C34.612 16.946 34.75 17.03 34.902 17.122C35.058 17.214 35.236 17.298 35.436 17.374C35.636 17.45 35.872 17.488 36.144 17.488C36.512 17.488 36.798 17.408 37.002 17.248C37.206 17.084 37.308 16.826 37.308 16.474C37.308 16.27 37.252 16.104 37.14 15.976C37.028 15.848 36.88 15.742 36.696 15.658C36.516 15.574 36.31 15.5 36.078 15.436C35.846 15.372 35.608 15.302 35.364 15.226C35.12 15.146 34.882 15.05 34.65 14.938C34.418 14.822 34.21 14.672 34.026 14.488C33.846 14.3 33.7 14.068 33.588 13.792C33.476 13.512 33.42 13.168 33.42 12.76C33.42 12.432 33.486 12.112 33.618 11.8C33.75 11.488 33.944 11.21 34.2 10.966C34.456 10.722 34.77 10.528 35.142 10.384C35.514 10.236 35.94 10.162 36.42 10.162C36.688 10.162 36.948 10.184 37.2 10.228C37.456 10.268 37.698 10.33 37.926 10.414C38.154 10.494 38.366 10.592 38.562 10.708C38.762 10.82 38.94 10.948 39.096 11.092L38.592 12.034ZM44.5199 19C44.3439 19 44.2099 18.976 44.1179 18.928C44.0299 18.88 43.9559 18.78 43.8959 18.628L43.7639 18.286C43.6079 18.418 43.4579 18.534 43.3139 18.634C43.1699 18.734 43.0199 18.82 42.8639 18.892C42.7119 18.96 42.5479 19.01 42.3719 19.042C42.1999 19.078 42.0079 19.096 41.7959 19.096C41.5119 19.096 41.2539 19.06 41.0219 18.988C40.7899 18.912 40.5919 18.802 40.4279 18.658C40.2679 18.514 40.1439 18.336 40.0559 18.124C39.9679 17.908 39.9239 17.66 39.9239 17.38C39.9239 17.16 39.9799 16.934 40.0919 16.702C40.2039 16.47 40.3979 16.26 40.6739 16.072C40.9499 15.88 41.3219 15.72 41.7899 15.592C42.2579 15.464 42.8479 15.392 43.5599 15.376V15.112C43.5599 14.748 43.4839 14.486 43.3319 14.326C43.1839 14.162 42.9719 14.08 42.6959 14.08C42.4759 14.08 42.2959 14.104 42.1559 14.152C42.0159 14.2 41.8899 14.254 41.7779 14.314C41.6699 14.374 41.5639 14.428 41.4599 14.476C41.3559 14.524 41.2319 14.548 41.0879 14.548C40.9599 14.548 40.8499 14.518 40.7579 14.458C40.6699 14.394 40.5999 14.316 40.5479 14.224L40.2119 13.642C40.5879 13.31 41.0039 13.064 41.4599 12.904C41.9199 12.74 42.4119 12.658 42.9359 12.658C43.3119 12.658 43.6499 12.72 43.9499 12.844C44.2539 12.964 44.5099 13.134 44.7179 13.354C44.9299 13.57 45.0919 13.828 45.2039 14.128C45.3159 14.428 45.3719 14.756 45.3719 15.112V19H44.5199ZM42.3839 17.866C42.6239 17.866 42.8339 17.824 43.0139 17.74C43.1939 17.656 43.3759 17.52 43.5599 17.332V16.468C43.1879 16.484 42.8819 16.516 42.6419 16.564C42.4019 16.612 42.2119 16.672 42.0719 16.744C41.9319 16.816 41.8339 16.898 41.7779 16.99C41.7259 17.082 41.6999 17.182 41.6999 17.29C41.6999 17.502 41.7579 17.652 41.8739 17.74C41.9899 17.824 42.1599 17.866 42.3839 17.866ZM49.9023 19H48.2103L45.7983 12.778H47.3463C47.4783 12.778 47.5883 12.81 47.6763 12.874C47.7683 12.934 47.8303 13.01 47.8623 13.102L48.7263 15.892C48.7943 16.12 48.8583 16.342 48.9183 16.558C48.9823 16.774 49.0363 16.99 49.0803 17.206C49.1243 16.99 49.1783 16.774 49.2423 16.558C49.3063 16.342 49.3743 16.12 49.4463 15.892L50.3463 13.102C50.3783 13.01 50.4383 12.934 50.5263 12.874C50.6143 12.81 50.7183 12.778 50.8383 12.778H52.3143L49.9023 19ZM55.5207 12.682C55.9327 12.682 56.3087 12.746 56.6487 12.874C56.9927 13.002 57.2867 13.188 57.5307 13.432C57.7787 13.676 57.9707 13.976 58.1067 14.332C58.2467 14.684 58.3167 15.084 58.3167 15.532C58.3167 15.672 58.3107 15.786 58.2987 15.874C58.2867 15.962 58.2647 16.032 58.2327 16.084C58.2007 16.136 58.1567 16.172 58.1007 16.192C58.0487 16.212 57.9807 16.222 57.8967 16.222H54.3087C54.3687 16.742 54.5267 17.12 54.7827 17.356C55.0387 17.588 55.3687 17.704 55.7727 17.704C55.9887 17.704 56.1747 17.678 56.3307 17.626C56.4867 17.574 56.6247 17.516 56.7447 17.452C56.8687 17.388 56.9807 17.33 57.0807 17.278C57.1847 17.226 57.2927 17.2 57.4047 17.2C57.5527 17.2 57.6647 17.254 57.7407 17.362L58.2807 18.028C58.0887 18.248 57.8807 18.428 57.6567 18.568C57.4367 18.704 57.2087 18.812 56.9727 18.892C56.7407 18.968 56.5067 19.02 56.2707 19.048C56.0387 19.08 55.8167 19.096 55.6047 19.096C55.1687 19.096 54.7587 19.026 54.3747 18.886C53.9947 18.742 53.6607 18.53 53.3727 18.25C53.0887 17.97 52.8627 17.622 52.6947 17.206C52.5307 16.79 52.4487 16.306 52.4487 15.754C52.4487 15.338 52.5187 14.944 52.6587 14.572C52.8027 14.2 53.0067 13.874 53.2707 13.594C53.5387 13.314 53.8607 13.092 54.2367 12.928C54.6167 12.764 55.0447 12.682 55.5207 12.682ZM55.5567 13.966C55.2007 13.966 54.9227 14.068 54.7227 14.272C54.5227 14.472 54.3907 14.762 54.3267 15.142H56.6487C56.6487 14.994 56.6287 14.85 56.5887 14.71C56.5527 14.57 56.4907 14.446 56.4027 14.338C56.3187 14.226 56.2067 14.136 56.0667 14.068C55.9267 14 55.7567 13.966 55.5567 13.966Z" fill="#1A1B2F"/>
</svg>
