<svg width="93" height="92" viewBox="0 0 93 92" fill="none" xmlns="http://www.w3.org/2000/svg">
<path fill-rule="evenodd" clip-rule="evenodd" d="M92.7208 56.2115L92.3474 57.4254C92.3474 57.5187 92.3473 57.5187 92.254 57.6121C91.3202 60.7868 90.1064 63.7748 88.6124 66.5761C86.1846 71.1514 82.9165 75.3532 79.1815 78.9015C74.7929 83.01 69.564 86.2781 63.7748 88.4257C58.5458 90.3866 52.9433 91.507 47.0607 91.507C46.2204 91.507 45.38 91.507 44.5396 91.4137C43.3257 91.3203 42.1119 91.2269 40.898 91.0402C32.9612 90.013 25.678 87.0251 19.5153 82.5431C18.955 82.0762 18.3948 81.7027 17.8345 81.2358C18.955 80.3021 21.196 80.2087 21.196 80.2087L18.0213 77.6876L10.0844 73.3924C8.59044 71.4315 7.18983 69.3773 5.97596 67.2297C5.69584 66.6694 5.41572 66.2026 5.1356 65.6423C5.1356 65.6423 5.1356 65.6423 5.1356 65.5489C4.85547 64.9887 4.57536 64.4284 4.29523 63.8682C3.45486 62.0941 2.80122 60.2266 2.1476 58.2657C1.68073 56.8651 1.30725 55.4645 1.02712 54.0639C0.840376 53.0368 0.653621 52.0096 0.466872 50.9825C0.186749 48.8349 0 46.5939 0 44.3529C0 43.7927 0 43.3258 0 42.7656C0 42.0186 0.0933802 41.1782 0.0933802 40.4312C0.186755 39.6842 0.280112 38.9372 0.280112 38.1902C0.280112 38.0968 0.280112 38.0969 0.280112 38.0035C0.466861 36.9764 0.560241 35.9492 0.840365 34.9221C1.12049 33.4281 1.494 32.0275 1.96087 30.6269C2.52112 28.666 3.2681 26.7052 4.10847 24.9311C4.94884 23.1569 5.88259 21.3828 6.90971 19.7021C10.0844 18.0213 12.1387 17.0876 12.1387 17.0876C12.1387 17.0876 66.9495 6.25616 67.7899 5.32241C68.6302 4.38867 72.7387 4.94891 72.7387 4.94891C75.3532 6.62965 77.6876 8.59051 79.9286 10.7381C80.4888 11.205 80.9557 11.7652 81.4225 12.2321C81.7026 12.6056 82.0761 12.9791 82.3563 13.3526C82.9165 14.0062 83.3834 14.5665 83.9436 15.2201C85.8111 17.6478 87.4919 20.1689 88.8925 22.8768C89.4527 23.9039 89.9196 25.0244 90.3865 26.0515C94.5883 42.5788 89.3594 56.6784 89.3594 56.6784C90.76 56.3982 91.8805 56.3049 92.7208 56.2115Z" fill="url(#paint0_radial_2203_36505)"/>
<path fill-rule="evenodd" clip-rule="evenodd" d="M92.7208 56.2115L92.3474 57.4254C92.3474 57.5187 92.3473 57.5187 92.254 57.6121C91.3202 60.7868 90.1064 63.7748 88.6124 66.5761C86.1846 71.1514 82.9165 75.3532 79.1815 78.9015C74.7929 83.01 69.564 86.2781 63.7748 88.4257C58.5458 90.3866 52.9433 91.507 47.0607 91.507C46.2204 91.507 45.38 91.507 44.5396 91.4137C43.3257 91.3203 42.1119 91.2269 40.898 91.0402C32.9612 90.013 25.678 87.0251 19.5153 82.5431C18.955 82.0762 18.3948 81.7027 17.8345 81.2358C18.955 80.3021 21.196 80.2087 21.196 80.2087L18.0213 77.6876L10.0844 73.3924C8.59044 71.4315 7.18983 69.3773 5.97596 67.2297C5.69584 66.6694 5.41572 66.2026 5.1356 65.6423C5.1356 65.6423 5.1356 65.6423 5.1356 65.5489C4.85547 64.9887 4.57536 64.4284 4.29523 63.8682C3.45486 62.0941 2.80122 60.2266 2.1476 58.2657C1.68073 56.8651 1.30725 55.4645 1.02712 54.0639C0.840376 53.0368 0.653621 52.0096 0.466872 50.9825C0.186749 48.8349 0 46.5939 0 44.3529C0 43.7927 0 43.3258 0 42.7656C0 42.0186 0.0933802 41.1782 0.0933802 40.4312C0.186755 39.6842 0.280112 38.9372 0.280112 38.1902C0.280112 38.0968 0.280112 38.0969 0.280112 38.0035C0.466861 36.9764 0.560241 35.9492 0.840365 34.9221C1.12049 33.4281 1.494 32.0275 1.96087 30.6269C2.52112 28.666 3.2681 26.7052 4.10847 24.9311C4.94884 23.1569 5.88259 21.3828 6.90971 19.7021C10.0844 18.0213 12.1387 17.0876 12.1387 17.0876C12.1387 17.0876 66.9495 6.25616 67.7899 5.32241C68.6302 4.38867 72.7387 4.94891 72.7387 4.94891C75.3532 6.62965 77.6876 8.59051 79.9286 10.7381C80.4888 11.205 80.9557 11.7652 81.4225 12.2321C81.7026 12.6056 82.0761 12.9791 82.3563 13.3526C82.9165 14.0062 83.3834 14.5665 83.9436 15.2201C85.8111 17.6478 87.4919 20.1689 88.8925 22.8768C89.4527 23.9039 89.9196 25.0244 90.3865 26.0515C94.5883 42.5788 89.3594 56.6784 89.3594 56.6784C90.76 56.3982 91.8805 56.3049 92.7208 56.2115Z" fill="url(#paint1_radial_2203_36505)"/>
<path fill-rule="evenodd" clip-rule="evenodd" d="M91.4137 44.4463C91.4137 46.127 91.3203 47.8077 91.1336 49.3951C90.8535 51.9162 90.3866 54.344 89.733 56.6783C89.733 56.7717 89.733 56.7717 89.733 56.865C88.8926 59.853 87.6787 62.6543 86.2781 65.2688C83.9437 69.564 80.9557 73.4857 77.4075 76.8472C73.299 80.6756 68.3502 83.7569 62.9345 85.8111C58.079 87.6786 52.7567 88.7057 47.2476 88.7057C46.5006 88.7057 45.6602 88.7057 44.9132 88.6124C43.7927 88.519 42.5788 88.4256 41.4583 88.3323C33.9884 87.3985 27.172 84.5039 21.3828 80.302C20.5425 79.6484 19.7021 78.9948 18.8617 78.3412C18.675 78.1544 18.3949 77.9677 18.2081 77.781C16.1539 75.9135 14.193 73.9526 12.5123 71.7116C11.1116 69.9375 9.80438 67.9766 8.59051 65.9224C8.31039 65.4555 8.03028 64.9886 7.84353 64.4284C7.84353 64.4284 7.84353 64.4284 7.84353 64.335C7.56341 63.7748 7.28329 63.3079 7.09654 62.7477C6.34955 61.0669 5.69592 59.2928 5.13567 57.5187C4.76218 56.2114 4.38867 54.9042 4.10855 53.5969C3.9218 52.6632 3.73505 51.7295 3.64168 50.7024C3.36155 48.6481 3.1748 46.5939 3.1748 44.4463C3.1748 43.9794 3.1748 43.4191 3.1748 42.9523C3.1748 42.2053 3.26818 41.4583 3.26818 40.8047C3.36156 40.0577 3.36154 39.404 3.45492 38.657C3.45492 38.5637 3.45492 38.5637 3.45492 38.4703C3.54829 37.5365 3.73504 36.5094 3.92179 35.5757C4.20191 34.1751 4.57542 32.8678 4.94891 31.4672C5.50916 29.5997 6.16279 27.8256 7.00316 26.0515C7.84353 24.184 8.87064 22.3165 9.99113 20.5424C10.7381 19.3285 11.5785 18.1147 12.5123 16.9942C13.7261 15.4068 15.1267 13.9128 16.5273 12.5122C24.4642 4.76209 35.389 0 47.3409 0C47.8078 0 48.2747 0 48.7415 0C49.2084 0 49.7687 5.69773e-06 50.2355 0.0933802C51.6362 0.186755 52.9434 0.373504 54.344 0.560253C54.344 0.560253 54.344 0.560253 54.4374 0.560253C55.5579 0.747001 56.6784 0.933748 57.7055 1.21387C59.1061 1.58737 60.5067 1.96087 61.814 2.42774C62.7477 2.70787 63.5881 3.08137 64.5218 3.45487C65.1755 3.73499 65.8291 4.01511 66.4827 4.29523C66.5761 4.38861 66.6695 4.3886 66.8562 4.48198C71.1514 6.53622 75.0732 9.33745 78.4346 12.6989C78.9015 13.1658 79.3684 13.6327 79.8353 14.0996C80.1154 14.473 80.4889 14.7532 80.769 15.1267C81.2359 15.6869 81.7961 16.3405 82.263 16.9008C84.0371 19.1418 85.5311 21.5695 86.8383 24.0906C88.3323 27.0786 89.5462 30.2533 90.3866 33.5214C90.9468 35.5757 91.2269 37.7233 91.5071 39.9643C91.3203 41.5517 91.4137 42.9523 91.4137 44.4463Z" fill="url(#paint2_radial_2203_36505)"/>
<path fill-rule="evenodd" clip-rule="evenodd" d="M25.5848 26.7987C25.5848 26.7987 24.3709 29.4132 25.398 32.0277C26.3317 34.6421 29.133 32.9614 32.4011 32.0277C35.6692 31.0939 39.0307 27.7324 41.1783 25.5848C43.3259 23.4372 45.3801 20.5426 45.1934 17.7413C45.0066 14.9401 42.0187 13.0726 42.0187 13.0726C42.0187 13.0726 43.1391 11.672 42.2054 17.2745C41.2717 22.7836 40.0578 24.8378 38.8439 25.6782C37.6301 26.5185 34.0818 28.6662 32.121 29.88C30.1601 31.0939 27.9191 32.3078 26.6119 32.0277C25.2113 31.5608 24.5576 28.6662 25.5848 26.7987Z" fill="url(#paint3_radial_2203_36505)"/>
<path fill-rule="evenodd" clip-rule="evenodd" d="M31.5604 24.838C31.5604 24.838 29.8797 26.3319 30.3466 27.5458C30.8135 28.7597 33.9882 28.0127 36.0424 25.3982C38.0967 22.7837 36.5093 20.7295 36.5093 20.7295C36.5093 20.7295 35.7623 25.0247 33.8014 25.7717C31.8406 26.5187 31.1869 26.2386 31.1869 26.2386C31.1869 26.2386 30.7201 25.8651 31.5604 24.838Z" fill="url(#paint4_radial_2203_36505)"/>
<path fill-rule="evenodd" clip-rule="evenodd" d="M26.5186 26.7053C26.5186 26.7053 28.1059 24.8378 29.9734 23.1571C31.8409 21.383 35.0156 20.7293 35.0156 20.7293C35.0156 20.7293 33.1481 19.7022 30.7204 21.1028C28.386 22.5968 26.5186 26.7053 26.5186 26.7053Z" fill="url(#paint5_radial_2203_36505)"/>
<path fill-rule="evenodd" clip-rule="evenodd" d="M19.7959 26.7984C19.7959 26.7984 23.6243 22.5965 28.1996 20.8224C32.775 19.0483 34.3623 18.488 36.4166 16.8073C38.4708 15.1266 40.7118 13.8193 40.7118 13.8193C40.7118 13.8193 36.2298 14.0061 29.4135 18.3947C22.5971 22.5965 19.7959 25.3978 19.7959 26.7984Z" fill="url(#paint6_radial_2203_36505)"/>
<path fill-rule="evenodd" clip-rule="evenodd" d="M10.5518 25.9583C10.5518 25.9583 17.088 19.422 22.2236 16.8075C27.3592 14.1931 30.814 12.6057 35.3894 11.3918C39.9647 10.2713 47.0612 8.21711 47.0612 8.21711L48.3684 7.56348C48.3684 7.56348 33.7086 7.8436 24.1844 13.6328C14.6602 19.422 10.5518 25.9583 10.5518 25.9583Z" fill="url(#paint7_radial_2203_36505)"/>
<path fill-rule="evenodd" clip-rule="evenodd" d="M18.4885 33.521C18.4885 33.521 19.609 42.5784 21.1964 42.9519C22.7837 43.3254 28.3862 43.3254 36.7899 39.0302C45.1936 34.7349 46.8744 35.7621 51.5431 31C56.2118 26.2379 58.1727 20.8221 59.5733 17.2739C61.0673 13.7257 61.4408 9.61719 60.9739 8.40332C60.9739 8.40332 62.5613 9.33708 62.5613 12.8853C62.5613 16.4335 61.5342 22.4095 60.0402 25.771C58.5462 29.2258 54.6245 34.6415 49.9557 37.256C45.287 39.8705 35.8562 45.0061 26.7055 44.9127C17.4614 44.8194 18.9554 44.1658 18.0217 42.2983C16.9945 40.4308 18.4885 33.521 18.4885 33.521Z" fill="url(#paint8_radial_2203_36505)"/>
<path opacity="0.5" fill-rule="evenodd" clip-rule="evenodd" d="M4.1084 41.1781C4.1084 41.1781 5.78915 44.8197 6.62952 48.1811C7.56327 51.5426 7.37651 57.1451 11.2049 58.0788C15.0332 58.9192 20.3556 61.4403 22.3164 60.7867C24.3707 60.1331 31.8406 58.8258 36.0425 59.6662C40.2443 60.5066 47.8077 60.0397 50.4221 58.7325C53.0366 57.4252 58.8258 53.9704 61.5337 52.9433C64.2416 51.9161 67.9765 48.9281 71.2446 45.66C74.5127 42.3919 74.4194 38.6569 75.2598 36.7895C76.1001 34.922 77.6875 27.5454 77.5007 24.1839C77.314 20.8224 75.2598 14.5663 75.2598 14.5663L73.3923 12.6055C73.3923 12.6055 75.7266 21.1959 74.6995 27.3587C73.6724 33.428 74.6061 35.9491 70.4043 41.7383C66.2024 47.6209 60.2265 52.1963 53.5969 54.3439C46.9673 56.5849 42.6721 56.3047 35.8557 56.9583C29.4129 57.5186 21.3827 57.1451 18.208 56.3047C15.3133 55.5577 11.485 53.6902 8.59036 49.0215C5.509 44.166 4.1084 41.1781 4.1084 41.1781Z" fill="#7D72B3"/>
<path opacity="0.4" fill-rule="evenodd" clip-rule="evenodd" d="M18.768 31.6535C18.768 31.6535 19.4216 41.4578 20.6355 42.2982C21.8493 43.1385 24.5572 43.512 26.9849 42.6717C29.506 41.8313 37.9097 39.0301 39.4037 38.1897C40.8977 37.3493 49.7683 32.8674 51.5424 31.4667C53.3165 30.1595 55.6509 25.3974 56.4913 24.4636C57.3316 23.5299 59.4792 17.6473 60.0395 15.4063C60.6931 13.1653 61.0666 10.5509 61.0666 10.5509C61.0666 10.5509 61.2534 9.33697 60.2262 8.8701C59.1991 8.4966 59.0124 8.8701 59.0124 8.8701C59.0124 8.8701 58.8256 10.3641 57.8919 14.5659C56.9581 18.7678 44.4459 33.1475 38.0965 36.9758C31.747 40.7108 25.771 40.8975 23.6234 40.6174C21.3824 40.3373 18.6746 33.3342 18.768 31.6535Z" fill="#7D72B3"/>
<path opacity="0.4" fill-rule="evenodd" clip-rule="evenodd" d="M18.4881 33.5218C18.4881 33.5218 18.7682 27.4524 20.3556 25.3982C21.9429 23.344 27.2653 19.1421 30.3466 17.5548C33.5214 15.9674 38.0033 13.7264 39.5907 13.3529C41.1781 12.9794 42.2986 13.3529 42.2986 13.3529C42.2986 13.3529 40.4311 12.3258 36.0425 13.4463C31.6539 14.5668 26.705 18.5819 24.2773 19.8891C21.8496 21.103 18.208 24.1843 17.2742 25.7717C16.4338 27.1723 18.4881 33.5218 18.4881 33.5218Z" fill="#7D72B3"/>
<path opacity="0.4" fill-rule="evenodd" clip-rule="evenodd" d="M7.65723 27.0781L21.1965 15.2196L29.6002 11.3912C29.6002 11.3912 37.9106 8.58996 41.7389 7.65621C45.5673 6.72247 54.0644 6.53571 54.0644 6.53571L58.5463 7.00258C58.5463 7.00258 50.7963 2.80073 39.2178 5.88209C27.7328 8.96345 20.076 12.8852 16.7146 16.0599C13.4465 19.1413 8.31085 25.4907 7.65723 27.0781Z" fill="#7D72B3"/>
<path fill-rule="evenodd" clip-rule="evenodd" d="M7.284 27.5449C7.284 27.5449 0.000793636 36.3221 3.54902 41.7378C7.09725 47.1535 8.68463 54.997 9.71174 56.7711C10.7389 58.5452 22.504 61.3464 24.9318 60.7862C27.3595 60.2259 33.2421 58.7319 37.0705 60.1325C37.0705 60.1325 43.8868 59.5723 45.7543 59.5723C47.7152 59.5723 51.2634 57.8916 52.1038 57.5181C52.9441 57.1446 57.5195 55.6506 59.8538 54.7168C62.1882 53.7831 66.0165 50.7951 67.5105 49.6746C69.0045 48.4608 73.0197 43.6987 73.86 42.2047C74.607 40.7107 76.9414 32.1202 77.5016 28.0117C78.0619 23.9033 76.3811 16.0598 74.9805 13.352C73.5799 10.6441 69.4714 8.12298 69.4714 8.12298L69.7515 6.9091L73.0196 4.94824C73.0196 4.94824 78.7155 12.3248 79.1824 18.7677C79.4625 22.5026 80.3962 30.5328 79.3691 33.9877C78.6221 36.7889 75.9142 44.8191 73.4865 47.7138C71.1521 50.6084 64.0557 57.985 60.3207 59.4789C56.5857 60.8796 45.3808 62.8404 38.8446 62.9338C33.9891 63.0272 23.3444 62.1868 18.1154 62C12.8865 61.8133 9.15151 58.5452 7.09727 56.8644C5.04303 55.1837 5.69664 50.7017 3.6424 47.0601C1.49479 43.5119 0.374297 38.7498 0.84117 36.1353C1.30804 33.7076 7.284 27.5449 7.284 27.5449Z" fill="url(#paint9_radial_2203_36505)"/>
<path fill-rule="evenodd" clip-rule="evenodd" d="M20.076 61.067C18.9555 60.7869 17.9284 60.2267 16.8079 59.9466C16.1542 59.7598 15.594 59.6664 14.9404 59.4797C14.2868 59.2929 13.6331 59.1996 12.9795 59.1996C11.6723 59.1062 10.365 58.8261 9.52464 57.7989C8.77765 56.8652 8.3108 55.8381 8.03068 54.6242C7.5638 53.0368 7.19028 51.4495 6.72341 49.9555C6.25654 48.4615 5.69629 47.2476 4.85592 45.9404C4.5758 45.4735 4.29567 44.9133 3.92218 44.4464C3.64205 43.9795 3.1752 43.606 2.89508 43.0458C2.24146 41.7385 2.05469 40.3379 2.05469 38.8439C2.05469 38.0969 2.24146 37.3499 2.42821 36.603C2.61496 35.6692 2.89508 34.8288 3.36195 33.9884C3.82883 33.2415 4.20232 32.4011 4.66919 31.6541C5.69631 29.88 6.72343 28.1059 7.9373 26.5185C9.52466 24.5576 11.2988 22.5968 13.1663 20.8227C14.1934 19.7956 15.4072 18.8618 16.6211 17.9281C17.6482 17.1811 18.582 16.3407 19.5157 15.5937C21.1965 14.2865 23.1573 13.4461 25.1182 12.5123C27.4526 11.3918 29.7869 10.2713 32.2147 9.43097C35.1093 8.40386 38.0039 7.56347 40.9919 6.90985C44.4467 6.25623 47.9949 6.06949 51.4498 6.06949C53.3173 6.06949 55.3715 5.88274 57.239 6.53636C58.2661 6.90986 59.48 7.37673 60.3204 7.93698C60.5071 8.12373 60.6005 8.12372 60.7873 8.31047C60.8806 8.40384 60.8806 8.59062 60.974 8.68399C61.1607 9.05749 61.2541 9.52435 61.2541 9.89785C61.2541 10.2713 61.0674 10.6449 61.0674 11.0184C61.0674 11.5786 60.8806 12.1388 60.8806 12.6991C60.8806 13.3527 60.6939 13.8196 60.6005 14.4732C60.4137 15.5937 60.227 16.7142 59.7601 17.8347C59.1065 19.422 58.6396 21.1028 57.986 22.5968C57.7993 23.0637 57.4257 23.4371 57.1456 23.904C56.9589 24.3709 56.7721 24.651 56.492 25.1179C56.0251 25.8649 55.6516 26.7053 55.0914 27.3589C53.9709 28.8529 52.9438 30.4402 51.4498 31.6541C49.6757 33.0547 47.8082 34.2686 45.8473 35.2957C44.5401 35.9493 43.2328 36.5096 41.9256 37.1632C40.8051 37.7234 39.5912 38.3771 38.3774 38.9373C35.3894 40.3379 32.1213 41.365 28.9466 42.3922C28.0128 42.6723 27.1724 42.9524 26.2387 43.1392C25.3983 43.2325 24.3712 43.5127 23.5308 43.5127C22.5971 43.5127 21.6633 43.2325 20.7296 42.9524C19.2356 42.4855 19.0488 40.8048 18.9555 39.4042C18.8621 38.3771 18.7687 37.3499 18.582 36.4162C18.3952 35.5758 18.3952 34.8288 18.2085 33.9884C18.0217 33.1481 17.9283 32.3077 17.9283 31.4674C17.9283 30.3469 18.3019 29.4131 18.582 28.2926C18.7687 27.639 18.7687 26.892 19.1422 26.2384C19.5157 25.3046 20.2627 24.4643 21.1031 23.8106C21.8501 23.157 22.6905 22.41 23.4375 21.7564C23.9043 21.2895 24.4646 21.0094 24.9314 20.6359C25.7718 19.9823 26.7055 19.4221 27.7327 18.9552C28.4797 18.5817 29.0399 17.9281 29.7869 17.4612C30.5339 16.9943 31.3743 16.5274 32.1213 16.0606C32.7749 15.6871 33.5219 15.5003 34.2689 15.2202C34.8291 15.0335 35.3894 14.6599 35.9496 14.4732C36.5099 14.2864 37.0701 14.1931 37.6304 14.0063C38.1906 13.8196 38.6575 13.6328 39.2177 13.4461C39.8714 13.2593 40.525 13.0726 41.0852 13.0726C42.2991 13.0726 42.8593 13.6328 43.2328 14.8467C43.6997 16.434 43.1395 17.8347 42.5792 19.3287C42.1124 20.5425 41.5521 21.663 41.1786 22.8769C40.6184 24.4643 39.1244 25.3046 37.9105 26.4251C36.6033 27.5456 35.0159 28.6661 33.5219 29.3197C33.055 29.5065 32.4948 29.6932 32.0279 29.88C31.6544 30.0667 31.1875 30.3469 30.814 30.5336C30.5339 30.7204 30.3472 30.9071 30.067 31.0939C29.8803 31.2806 29.6002 31.2806 29.32 31.4674C28.7598 31.8409 28.1996 32.2144 27.5459 32.4945C26.9857 32.7746 25.7718 32.9613 25.3983 32.2143C25.2116 31.8408 25.2116 31.374 25.1182 31.0005C25.0248 30.5336 25.0248 30.0667 25.0248 29.5999C25.0248 29.133 25.1182 28.7595 25.2116 28.2926C25.3049 27.8258 25.4917 27.4522 25.6784 26.9854C26.1453 25.6781 26.9857 24.7444 27.7327 23.7173C28.1995 23.0636 28.6664 22.41 29.2267 21.7564C30.067 20.8227 31.2809 20.4492 32.4014 20.0757C33.4285 19.7955 35.0159 19.5154 36.043 20.0757C36.8834 20.6359 36.3231 21.7564 36.043 22.41C35.8563 22.7835 35.7629 23.157 35.5761 23.5305C35.4828 23.8106 35.4828 24.1841 35.296 24.4643C34.9225 25.0245 34.2689 25.398 33.7087 25.8649C33.5219 26.0516 33.1484 26.3318 32.8683 26.4251C32.4948 26.5185 32.1213 26.5185 31.7478 26.6119C31.561 26.6119 31.4677 26.892 31.2809 26.7986C31.0942 26.7053 31.0942 26.5185 31.0942 26.3318C31.0942 26.145 31.1875 25.9583 31.2809 25.7715C31.2809 25.7715 31.2809 25.6781 31.2809 25.5847C31.4677 25.0245 32.1213 24.3709 32.4014 23.904C32.8683 24.0908 32.5881 24.3709 32.4948 24.651C32.4014 24.8377 32.4014 25.0245 32.4014 25.2113C32.4014 25.398 32.1213 25.6781 32.308 25.8649C32.4014 25.9583 32.8683 25.7715 32.9616 25.7715C34.0821 25.398 34.7358 24.1842 35.1093 23.157C35.296 22.41 35.296 21.2895 34.549 20.916C33.9888 20.7293 33.2418 20.8227 32.6815 20.8227C30.5339 20.8227 29.2267 23.157 28.0128 24.651C27.2658 25.6781 26.6122 26.7986 26.1453 28.0125C25.8652 28.8529 25.6784 29.6932 25.4917 30.5336C25.3049 31.1872 25.1182 32.121 26.0519 32.0276C26.6122 31.9342 27.1724 31.6541 27.7327 31.4674C28.1995 31.2806 28.5731 31.1872 29.0399 30.9071C29.6936 30.5336 30.5339 30.4402 31.1875 30.0667C31.7478 29.7866 32.308 29.5065 32.8683 29.2264C34.2689 28.4794 35.7629 27.0788 36.6966 25.8649C37.3502 25.0245 38.3774 24.3709 39.1244 23.6239C39.9647 22.8769 40.3382 21.8498 40.8985 20.916C41.4587 19.8889 41.7389 18.9552 42.019 17.9281C42.2057 16.9943 42.8593 15.8738 42.4858 14.8467C42.2057 13.8196 40.8051 13.8196 39.9647 13.9129C39.2177 14.0063 38.4707 14.1931 37.7237 14.3798C36.4165 14.8467 35.2026 15.4069 33.9888 15.9672C32.0279 16.8076 30.3472 18.1148 28.5731 19.2353C27.6393 19.7955 26.6122 20.2624 25.7718 20.916C25.1182 21.3829 24.558 22.0365 23.9043 22.5034C23.4375 22.8769 23.1573 23.3438 22.5971 23.6239C21.9434 24.0908 21.3832 24.5576 20.9163 25.1179C20.5428 25.5847 20.076 26.2384 19.8892 26.7986C19.7025 27.2655 19.8892 27.7324 19.8892 28.1992C19.8892 28.8529 19.7025 29.5065 19.7025 30.1601C19.7025 30.8137 19.7025 31.5607 19.7025 32.2143C19.7025 33.615 19.5157 34.9222 19.5157 36.2295C19.5157 37.0698 19.7025 38.0036 19.8892 38.7505C19.9826 39.4042 20.2627 39.9644 20.3561 40.618C20.3561 41.0849 20.4495 41.6452 20.823 41.9253C21.0097 42.0187 21.2898 42.112 21.4766 42.2054C21.6633 42.2988 21.8501 42.3922 22.0368 42.3922C22.1302 42.3922 22.2236 42.4855 22.4103 42.4855C22.5037 42.4855 22.5971 42.6723 22.5971 42.6723C22.7838 42.7657 23.1573 42.6723 23.3441 42.6723C23.9043 42.5789 24.4646 42.4855 24.9314 42.2988C26.332 42.112 27.6393 42.112 28.9466 41.6452C30.4405 41.0849 31.8412 40.2445 33.2418 39.6843C35.3894 38.7505 37.8171 38.0969 39.8713 36.9764C40.8051 36.5096 41.8322 35.9493 42.766 35.5758C45.1003 34.5487 47.5281 33.7083 49.4889 32.121C50.2359 31.5607 50.8895 30.8137 51.5432 30.1601C51.9167 29.7866 52.2902 29.4131 52.6637 28.9462C53.6908 27.639 54.6245 26.2384 55.3715 24.8378C55.745 24.2775 55.9318 23.5305 56.2119 22.9703C56.7721 22.0365 57.3324 21.1962 57.8926 20.2624C58.3595 19.3287 58.6396 18.3949 58.9198 17.3678C59.1065 16.7142 59.2932 16.2473 59.1999 15.5937C59.1999 14.2865 59.2933 13.166 59.8535 11.9521C60.1336 11.2985 60.6005 10.3647 60.3204 9.61773C60.227 9.24424 59.6668 9.15086 59.3866 9.05748C58.6396 8.77736 57.8926 8.59059 57.1456 8.31047C56.492 8.03035 56.0251 7.65686 55.2781 7.56348C54.998 7.47011 54.7179 7.4701 54.4378 7.4701C53.6908 7.4701 53.1305 8.03035 52.3835 7.93698C52.1968 7.93698 52.01 7.8436 51.7299 7.8436C51.3564 7.75022 50.9829 7.8436 50.6094 7.8436C49.769 7.8436 49.0221 7.65686 48.1817 7.65686C47.248 7.65686 46.3142 7.75022 45.3805 7.8436C44.4467 7.93697 43.6063 7.8436 42.6726 7.8436C42.1123 7.8436 41.7388 8.12372 41.272 8.31047C40.8051 8.49722 40.3382 8.59059 39.8713 8.77734C39.4045 8.96409 39.031 9.05749 38.5641 9.15086C37.9105 9.15086 37.3502 9.05746 36.6966 9.24421C35.9496 9.43096 35.2026 9.7111 34.4556 9.99123C32.4948 10.8316 30.5339 11.9521 28.4797 12.6057C27.4526 12.8858 26.4254 13.0726 25.4917 13.4461C25.1182 13.6328 24.8381 13.8196 24.4646 14.0997C23.8109 14.5666 23.1573 14.9401 22.5037 15.3136C21.0097 16.2473 19.6091 17.2744 18.1151 18.3949C16.4344 19.6088 14.847 20.916 13.4464 22.5034C11.0186 25.3046 8.49753 28.1059 6.34992 31.1872C5.3228 32.5878 4.20231 34.1752 3.54868 35.7626V35.8559C3.17519 36.7897 2.98844 37.7234 3.08181 38.7505C3.08181 38.7505 3.08181 38.7506 3.08181 38.8439C3.17519 39.6843 3.5487 40.6181 3.82883 41.3651C4.20232 42.112 4.38905 42.859 4.85592 43.606C5.32279 44.353 5.97642 45.0066 6.25654 45.847C6.63004 46.8741 7.00355 47.9946 7.37704 49.1151C7.75054 50.4224 8.12404 51.823 8.31079 53.2236C8.49754 54.064 8.5909 54.9977 9.05777 55.7447C9.61802 56.8652 10.8319 57.2387 11.859 57.8923C12.4193 58.2658 12.6994 58.3592 13.353 58.3592C14.1934 58.4526 15.1271 58.6393 15.9675 58.9194C17.7416 59.4797 19.6091 59.8532 21.4766 59.8532C22.5971 59.8532 23.7176 59.5731 24.7447 59.3863C25.7718 59.2929 26.7989 59.1996 27.826 59.0128C28.7598 58.8261 29.6935 58.6393 30.6273 58.6393C31.561 58.6393 32.5881 58.8261 33.4285 59.0128C35.0159 59.4797 36.5099 59.7598 38.0972 59.7598C39.1244 59.7598 40.0581 59.4797 41.0852 59.4797C42.019 59.3863 42.8593 59.5731 43.7931 59.6664C45.3805 59.7598 46.9678 59.3863 48.4618 58.8261C49.4889 58.4526 50.3293 57.9857 51.263 57.4254C52.01 56.9586 52.757 56.8652 53.504 56.6785C55.0914 56.2116 56.6788 55.6513 58.1727 54.811C60.0402 53.6905 61.6276 52.1031 63.4951 50.9826C64.5222 50.329 65.7361 49.8621 66.7632 49.2085C67.6036 48.6483 68.4439 47.9946 69.0976 47.2476C69.9379 46.4073 70.6849 45.5669 71.5253 44.7265C72.1789 44.0729 72.459 43.2325 72.7392 42.4855C73.2994 41.2717 73.4862 40.0578 73.6729 38.7505C73.8597 37.4433 74.4199 36.3228 74.9801 35.2023C75.7271 33.7083 76.2874 32.3077 76.3808 30.627C76.4741 29.3197 76.6609 28.1059 76.6609 26.7986C76.6609 25.9583 76.5675 25.2113 76.3808 24.3709C76.2874 23.6239 76.1007 22.8769 76.0073 22.1299C75.8205 21.1962 75.8205 20.2624 75.6338 19.3287C75.447 18.5817 75.2603 17.7413 75.0735 16.9009C74.8868 16.3407 74.7 15.7804 74.5133 15.2202C74.1398 14.2865 73.5796 13.3527 72.9259 12.5123C72.6458 12.1388 72.2723 12.0455 71.9922 11.8587C71.7121 11.672 71.7121 11.4852 71.4319 11.3918C71.0584 11.2051 70.6849 11.0183 70.3114 10.8316C69.6578 10.4581 69.0042 10.3647 68.3506 9.99123C67.7903 9.7111 67.2301 9.24422 66.6698 8.87072C66.0162 8.49722 65.3626 8.21711 64.8023 7.65686C64.2421 7.09662 63.8686 6.44299 63.4017 5.97612C62.8415 5.41587 62.0945 5.04238 61.5342 4.5755C60.5071 3.73513 59.1999 3.64176 58.0794 3.17489C57.5191 2.89476 56.8655 2.89476 56.3053 2.70802C55.5583 2.52127 55.0914 2.14777 54.3444 2.0544C53.6908 1.96102 53.0372 1.96102 52.2902 1.77427C51.9167 1.6809 51.5432 1.58752 51.0763 1.58752C50.3293 1.49415 49.4889 1.58752 48.7419 1.68089C48.0883 1.77426 47.3413 1.68089 46.6877 1.68089C46.1275 1.68089 45.4738 1.77426 44.9136 1.68089C43.2328 1.40077 41.4587 1.49415 39.778 1.58752C38.1906 1.6809 36.6033 1.77426 35.1093 2.33451C33.802 2.80138 32.5882 3.17489 31.2809 3.64176C30.4405 4.01526 29.6935 4.48212 28.8532 4.949C26.8923 6.06949 25.1182 7.37674 23.3441 8.59061C21.2898 9.99123 19.329 11.4852 17.3681 12.9792C16.0609 13.9129 14.7536 14.9401 13.5398 15.8738C12.9795 16.3407 12.4193 16.8076 11.9524 17.2744C13.1663 15.6871 14.5669 14.1931 15.9675 12.7925C23.9043 5.04238 34.8291 0.280273 46.7811 0.280273C47.248 0.280273 47.7148 0.280273 48.1817 0.280273C48.6486 0.280273 49.2088 0.280279 49.6757 0.373654C51.0763 0.467028 52.3835 0.653777 53.7842 0.840526C53.7842 0.840526 53.7841 0.840526 53.8775 0.840526C55.3715 1.21402 56.8655 1.68089 58.4529 2.14776C59.7601 2.52126 60.974 2.89476 62.1879 3.26825C63.0282 3.54838 63.7752 3.92187 64.6156 4.202C65.3626 4.48212 66.1096 4.76225 66.7632 5.13574C67.8837 5.78936 68.9108 6.53638 69.8446 7.28337C70.4982 7.75025 71.1518 8.40386 71.712 8.9641C72.5524 9.80447 73.2994 10.7382 73.953 11.672C75.447 14.0063 76.6609 16.6208 77.2211 19.4221C77.688 21.7564 77.688 24.1841 77.5947 26.5185C77.5013 27.7324 77.3145 29.133 77.0344 30.3468C76.7543 31.7475 76.2874 32.9613 76.1007 34.362C76.0073 35.0156 76.1007 35.7626 76.0073 36.4162C75.9139 36.9764 75.7272 37.5367 75.6338 38.0969C75.447 39.2174 75.0735 40.4313 74.5133 41.4584C73.7663 42.9524 72.8325 44.1663 71.712 45.3801C70.4982 46.7808 69.2843 48.1814 67.9771 49.4886C66.7632 50.8892 65.2692 52.0097 63.6818 52.9435C62.468 53.6905 61.1607 54.6242 59.8535 55.0911C58.5463 55.558 57.1456 56.305 55.745 56.4917C54.7179 56.5851 53.8775 56.9586 53.0372 57.6122C52.5703 57.9857 52.1034 58.4526 51.6365 58.9194C51.1697 59.2929 50.7028 59.3863 50.1425 59.5731C48.9287 59.9466 47.7148 59.8532 46.4076 59.8532C44.5401 59.8532 42.766 60.0399 40.9919 60.2267C40.0581 60.3201 39.1244 60.4134 38.284 60.3201C37.4436 60.2267 36.6033 60.0399 35.8563 59.9466C34.9225 59.8532 34.0821 59.8532 33.1484 59.6664C32.4014 59.5731 31.8412 59.5731 31.1875 59.6664C30.6273 59.7598 30.067 59.6664 29.4134 59.6664C28.8532 59.7598 28.1996 59.8532 27.6393 59.9466C25.3983 60.5068 22.8772 61.7207 20.076 61.067Z" fill="#00C4FF"/>
<path fill-rule="evenodd" clip-rule="evenodd" d="M17.9277 81.3294C17.9277 81.3294 28.2923 83.1035 32.961 83.0101C40.0575 82.8233 48.2745 83.6637 54.6239 83.8505C60.9734 84.0372 72.0849 78.8082 74.1392 77.8745C76.1934 76.9407 81.0489 74.1395 85.3441 69.3774C89.6393 64.6153 91.3201 56.8652 91.3201 56.8652H89.546C89.546 56.8652 88.8923 60.2267 86.2779 63.9617C84.6905 66.2027 82.4495 68.1635 79.3682 70.8714C74.8862 74.6998 69.0969 77.6878 63.2144 79.1818C55.3709 81.1426 48.4612 80.5824 43.6057 81.3294C36.696 82.3565 21.1958 79.9287 21.1958 79.9287L17.9277 81.3294Z" fill="url(#paint10_radial_2203_36505)"/>
<path fill-rule="evenodd" clip-rule="evenodd" d="M15.2207 76.1934C15.2207 76.1934 16.9014 80.4886 17.9286 81.329C17.9286 81.329 20.1695 81.4223 21.29 80.3018L18.1153 77.7807L15.2207 76.1934Z" fill="url(#paint11_radial_2203_36505)"/>
<path fill-rule="evenodd" clip-rule="evenodd" d="M91.5071 48.835C91.5071 48.835 92.6276 53.6904 92.721 56.3049C92.721 56.3049 90.9469 57.4254 89.6396 56.8651C89.6396 56.8651 91.227 50.8892 91.5071 48.835Z" fill="url(#paint12_radial_2203_36505)"/>
<path fill-rule="evenodd" clip-rule="evenodd" d="M61.5342 2.61426C61.5342 2.61426 70.7783 3.54801 72.9259 5.042C72.9259 5.042 71.4319 6.72273 69.6578 7.00286C69.7511 6.90948 62.2812 2.80101 61.5342 2.61426Z" fill="#EE8CFF"/>
<path fill-rule="evenodd" clip-rule="evenodd" d="M7.00293 19.7947L10.8313 19.2345L12.3253 17.2736C12.3253 17.1802 9.61741 18.3941 7.00293 19.7947Z" fill="#FF61C7"/>
<path opacity="0.5" fill-rule="evenodd" clip-rule="evenodd" d="M10.085 73.4858C10.085 73.4858 28.0129 78.7148 41.9257 78.9949C55.9318 79.275 61.1608 76.1937 67.2301 73.7659C73.2995 71.4316 83.1972 66.1092 86.1852 62.0941C89.1731 58.1724 91.5075 48.835 91.5075 48.835C91.5075 48.835 88.6129 62.8411 86.1852 65.2688C83.664 67.6966 72.6459 75.2599 70.685 76.1937C68.7241 77.1274 63.4952 81.1425 53.8776 80.022C53.8776 80.022 47.4347 80.9558 45.1004 80.769C42.766 80.5823 39.1244 82.9166 32.4948 80.769C32.4948 80.769 23.2508 80.3021 21.2899 79.8353C19.2357 79.4618 10.085 73.4858 10.085 73.4858Z" fill="#54469B"/>
<path fill-rule="evenodd" clip-rule="evenodd" d="M14.4736 54.6241C14.4736 54.6241 29.3202 57.2386 40.0582 56.1181C50.7963 54.9976 56.5855 52.2897 59.6669 50.3289C62.7482 48.368 68.7242 41.9252 70.9652 38.9372C73.2062 36.0426 74.3267 28.666 74.3267 28.666C74.3267 28.666 74.7002 35.7625 72.9261 38.9372C71.0586 42.0186 64.8025 47.9012 62.188 49.5819C59.5735 51.2626 52.1969 55.3711 48.3686 56.0247C44.5402 56.6783 38.1907 58.6392 33.522 57.7988C29.04 57.0518 17.8351 57.2386 14.4736 54.6241Z" fill="#B04FE2"/>
<path fill-rule="evenodd" clip-rule="evenodd" d="M35.0156 78.4342C35.0156 78.4342 50.4224 77.4071 55.7447 76.1932C61.0671 74.9794 68.0702 72.1781 72.9257 70.3106C77.7811 68.5365 81.5161 64.9883 84.224 63.0274C86.9318 61.0666 90.3867 52.8496 90.3867 52.8496C90.3867 52.8496 88.1457 60.9732 84.7842 63.5877C81.4227 66.2022 72.7389 71.0576 63.028 75.4462C52.1032 80.3017 43.6995 78.9011 35.0156 78.4342Z" fill="#8B40E0"/>
<path fill-rule="evenodd" clip-rule="evenodd" d="M88.8931 59.0129C89.1732 58.2659 89.36 57.5189 89.6401 56.8652C88.7997 59.8532 87.5858 62.6545 86.1852 65.2689C85.8117 65.6424 85.2515 66.0159 84.878 66.3894C84.5045 66.8563 84.131 67.2298 83.7575 67.6967C81.7032 69.6575 79.4623 71.4317 77.0345 72.9257C74.6068 74.513 72.1791 76.007 69.4712 77.2209C67.417 78.1546 65.2694 78.9016 63.1217 79.4619C61.3476 79.9287 59.4801 80.1155 57.706 80.2089C56.7723 80.3022 55.9319 80.3956 54.9982 80.489C53.8777 80.5824 52.6638 80.5824 51.6367 80.7691C49.6758 81.1426 47.715 81.4227 45.7541 81.5161C44.0733 81.6095 42.3926 81.8896 40.7119 81.8896C38.5643 81.8896 36.4166 81.5161 34.269 81.5161C32.2148 81.5161 30.0672 81.4227 28.0129 81.236C26.7991 81.1426 25.5852 80.8625 24.3713 80.7691C23.3442 80.6757 22.3171 80.3956 21.29 80.3022C20.4496 79.6486 19.6092 78.995 18.7689 78.3414C18.5821 78.1546 18.302 77.9679 18.1152 77.7811C19.3291 78.1546 20.4496 78.5281 21.6635 78.9016C23.3442 79.4619 25.2117 79.742 26.8924 79.9287C28.293 80.1155 30.0672 80.2089 31.4678 79.8354C32.9618 79.4619 33.9889 79.9287 35.2961 80.489C35.9498 80.7691 36.51 80.8625 37.1636 81.0492C38.0974 81.3294 38.751 81.236 39.6847 81.1426C40.5251 81.0492 41.3655 80.8625 42.1125 80.7691C42.7661 80.5824 43.5131 80.3022 44.1667 80.2089C45.3806 80.0221 46.6878 79.8354 47.9017 80.1155C49.3023 80.3956 50.7029 80.489 52.1035 80.3022C53.5975 80.0221 54.9048 79.9287 56.3988 79.9287C56.8656 79.9287 57.3325 80.0221 57.7994 80.0221C58.3596 80.1155 58.8265 79.9287 59.3868 79.9287C60.3205 79.8354 61.2543 79.6486 62.188 79.3685C63.0284 79.0884 63.8687 78.7149 64.7091 78.4347C66.3898 77.7811 67.7904 77.2209 69.2844 76.1938C70.4983 75.3534 71.8989 74.7932 73.1128 73.9528C74.3267 73.2058 75.3538 72.1787 76.5677 71.525C77.8749 70.778 78.9954 69.7509 80.2093 68.9106C80.9563 68.3503 81.7032 67.6967 82.4502 67.1364C83.1039 66.6696 83.8509 66.2961 84.5045 65.7358C85.5316 64.8021 86.5587 63.8683 87.3057 62.5611C87.9594 61.4406 88.5196 60.2267 88.8931 59.0129Z" fill="#00C4FF"/>
<path fill-rule="evenodd" clip-rule="evenodd" d="M41.459 34.4549C41.459 34.4549 52.1037 25.6777 56.5857 17.1807C56.679 17.1807 44.1668 29.973 41.459 34.4549Z" fill="#FF77F4"/>
<path fill-rule="evenodd" clip-rule="evenodd" d="M30.2539 44.8194C30.2539 44.8194 36.9769 44.8194 44.4468 41.7381C51.9168 38.6567 55.6518 32.2139 55.6518 32.2139C55.6518 32.2139 50.6095 37.0693 45.1004 39.7772C39.5913 42.4851 35.4829 43.1387 30.2539 44.8194Z" fill="#F9C6FF"/>
<path fill-rule="evenodd" clip-rule="evenodd" d="M56.8652 30.7203C56.8652 30.7203 57.6122 28.7594 59.0128 25.3979C60.4135 22.0364 61.534 20.1689 61.534 20.1689C61.534 20.1689 61.1605 25.3979 56.8652 30.7203Z" fill="#EA9CF4"/>
<path fill-rule="evenodd" clip-rule="evenodd" d="M27.9189 62.6544C27.9189 62.6544 37.2564 64.8954 49.4885 62.6544C61.7205 60.4134 62.1874 59.6664 65.5488 56.9585C68.9103 54.3441 71.3381 50.9826 72.6453 49.6753C73.9526 48.3681 75.6333 43.9795 75.6333 43.9795C75.6333 43.9795 72.1785 50.1422 67.2296 54.3441C62.2808 58.4525 58.1723 60.5068 49.8619 61.814C41.645 63.0279 32.1208 62.8411 27.9189 62.6544Z" fill="#D374F4"/>
<path fill-rule="evenodd" clip-rule="evenodd" d="M36.1357 83.0091C36.1357 83.0091 44.6328 83.7561 48.0877 84.4098C51.5425 85.1568 58.1721 85.0634 62.0005 83.6628C65.8288 82.2622 73.2988 78.2471 73.2988 78.2471C73.2988 78.2471 66.2957 82.1688 57.892 83.1025C49.5817 83.9429 44.4461 82.5423 36.1357 83.0091Z" fill="#D374F4"/>
<path fill-rule="evenodd" clip-rule="evenodd" d="M75.8203 77.0333C75.8203 77.0333 81.236 73.3917 83.8505 71.0573C83.8505 70.9639 81.0493 74.8856 75.8203 77.0333Z" fill="#D374F4"/>
<path fill-rule="evenodd" clip-rule="evenodd" d="M34.8291 30.907C34.8291 30.907 40.9918 26.2383 42.9527 22.9702C44.9136 19.6087 45.1003 17.7412 45.1003 17.7412C45.1003 17.7412 45.9407 21.0093 42.2991 25.1178C38.5641 29.2263 34.8291 30.907 34.8291 30.907Z" fill="#F2C4F8"/>
<path fill-rule="evenodd" clip-rule="evenodd" d="M5.88324 55.2773C5.78987 57.3316 6.91036 59.6659 10.552 61.0665C14.1936 62.4672 16.9948 62.0937 16.9948 62.0937C16.9948 62.0937 12.793 61.2533 10.4586 59.6659C8.12423 57.8918 5.88324 55.2773 5.88324 55.2773Z" fill="#F5CEFA"/>
<defs>
<radialGradient id="paint0_radial_2203_36505" cx="0" cy="0" r="1" gradientUnits="userSpaceOnUse" gradientTransform="translate(17.717 27.9055) scale(72.2891 72.2891)">
<stop offset="0.00558659" stop-color="#FF9AFF"/>
<stop offset="0.0930098" stop-color="#FB94FF"/>
<stop offset="0.2093" stop-color="#F183FF"/>
<stop offset="0.3418" stop-color="#E068FF"/>
<stop offset="0.4864" stop-color="#C841FF"/>
<stop offset="0.639" stop-color="#A910FF"/>
<stop offset="0.6844" stop-color="#9F00FF"/>
<stop offset="0.7432" stop-color="#9900F8"/>
<stop offset="0.8282" stop-color="#8700E5"/>
<stop offset="0.9287" stop-color="#6A00C6"/>
<stop offset="1" stop-color="#5200AB"/>
</radialGradient>
<radialGradient id="paint1_radial_2203_36505" cx="0" cy="0" r="1" gradientUnits="userSpaceOnUse" gradientTransform="translate(17.717 27.9055) scale(72.2891 72.2891)">
<stop offset="0.00558659" stop-color="#FF9AFF"/>
<stop offset="0.0930098" stop-color="#FB94FF"/>
<stop offset="0.2093" stop-color="#F183FF"/>
<stop offset="0.3418" stop-color="#E068FF"/>
<stop offset="0.4864" stop-color="#C841FF"/>
<stop offset="0.639" stop-color="#A910FF"/>
<stop offset="0.6844" stop-color="#9F00FF"/>
<stop offset="0.7432" stop-color="#9900F8"/>
<stop offset="0.8282" stop-color="#8700E5"/>
<stop offset="0.9287" stop-color="#6A00C6"/>
<stop offset="1" stop-color="#5200AB"/>
</radialGradient>
<radialGradient id="paint2_radial_2203_36505" cx="0" cy="0" r="1" gradientUnits="userSpaceOnUse" gradientTransform="translate(19.767 23.7225) scale(71.0594 71.0594)">
<stop offset="0.00558659" stop-color="#FF9AFF"/>
<stop offset="0.0930098" stop-color="#FB94FF"/>
<stop offset="0.2093" stop-color="#F183FF"/>
<stop offset="0.3418" stop-color="#E068FF"/>
<stop offset="0.4864" stop-color="#C841FF"/>
<stop offset="0.639" stop-color="#A910FF"/>
<stop offset="0.6844" stop-color="#9F00FF"/>
<stop offset="0.7432" stop-color="#9900F8"/>
<stop offset="0.8282" stop-color="#8700E5"/>
<stop offset="0.9287" stop-color="#6A00C6"/>
<stop offset="1" stop-color="#5200AB"/>
</radialGradient>
<radialGradient id="paint3_radial_2203_36505" cx="0" cy="0" r="1" gradientUnits="userSpaceOnUse" gradientTransform="translate(29.1117 16.2074) scale(15.8892 15.8892)">
<stop offset="0.630208" stop-color="white"/>
<stop offset="1" stop-color="#EF9AFF"/>
</radialGradient>
<radialGradient id="paint4_radial_2203_36505" cx="0" cy="0" r="1" gradientUnits="userSpaceOnUse" gradientTransform="translate(31.6394 21.9514) scale(5.52759 5.52758)">
<stop stop-color="white"/>
<stop offset="1" stop-color="#F7ABFF"/>
</radialGradient>
<radialGradient id="paint5_radial_2203_36505" cx="0" cy="0" r="1" gradientUnits="userSpaceOnUse" gradientTransform="translate(28.2402 21.4395) scale(5.8247 5.8247)">
<stop stop-color="white"/>
<stop offset="1" stop-color="#F9D0FD"/>
</radialGradient>
<radialGradient id="paint6_radial_2203_36505" cx="0" cy="0" r="1" gradientUnits="userSpaceOnUse" gradientTransform="translate(24.1206 15.8295) scale(13.4548 13.4548)">
<stop stop-color="white"/>
<stop offset="1" stop-color="#F7C2FC"/>
</radialGradient>
<radialGradient id="paint7_radial_2203_36505" cx="0" cy="0" r="1" gradientUnits="userSpaceOnUse" gradientTransform="translate(18.3696 10.6001) scale(22.812 22.8121)">
<stop stop-color="white"/>
<stop offset="1" stop-color="#F5AEFE"/>
</radialGradient>
<radialGradient id="paint8_radial_2203_36505" cx="0" cy="0" r="1" gradientUnits="userSpaceOnUse" gradientTransform="translate(26.8245 14.2128) scale(31.7857)">
<stop offset="0.744792" stop-color="white"/>
<stop offset="0.9998" stop-color="#E886FF"/>
<stop offset="0.9999" stop-color="#ED8CFF"/>
</radialGradient>
<radialGradient id="paint9_radial_2203_36505" cx="0" cy="0" r="1" gradientUnits="userSpaceOnUse" gradientTransform="translate(16.9135 14.4465) scale(53.7005 53.7005)">
<stop offset="0.84375" stop-color="#EEADFE"/>
<stop offset="1" stop-color="#B439EE"/>
</radialGradient>
<radialGradient id="paint10_radial_2203_36505" cx="0" cy="0" r="1" gradientUnits="userSpaceOnUse" gradientTransform="translate(33.0095 61.2159) scale(42.3239 42.3239)">
<stop offset="0.572917" stop-color="#EEB9FF"/>
<stop offset="1" stop-color="#7801BD"/>
</radialGradient>
<radialGradient id="paint11_radial_2203_36505" cx="0" cy="0" r="1" gradientUnits="userSpaceOnUse" gradientTransform="translate(16.3438 77.5448) scale(4.56788)">
<stop stop-color="#6D00C2"/>
<stop offset="0.3995" stop-color="#6600BC"/>
<stop offset="0.976" stop-color="#5300AC"/>
<stop offset="1" stop-color="#5200AB"/>
</radialGradient>
<radialGradient id="paint12_radial_2203_36505" cx="0" cy="0" r="1" gradientUnits="userSpaceOnUse" gradientTransform="translate(90.2202 50.9854) scale(4.77114 4.77114)">
<stop stop-color="#1F0081"/>
<stop offset="0.73" stop-color="#260087"/>
<stop offset="1" stop-color="#2A008B"/>
</radialGradient>
</defs>
</svg>
