<svg width="122" height="122" viewBox="0 0 122 122" fill="none" xmlns="http://www.w3.org/2000/svg">
<path opacity="0.92" fill-rule="evenodd" clip-rule="evenodd" d="M121.904 60.8922C121.904 78.5126 114.473 94.335 102.486 105.483C96.7323 110.757 90.0198 115.072 82.588 117.829C75.8755 120.346 68.5637 121.784 61.0121 121.784C58.2551 121.784 55.6181 121.545 52.981 121.305C50.5837 120.945 48.1864 120.586 45.9089 119.986C40.395 118.548 35.2408 116.39 30.4461 113.633C27.4494 111.835 24.5726 109.918 21.8157 107.64C15.4628 102.366 10.3085 95.7734 6.59266 88.4615C4.19533 83.7867 2.5172 78.8722 1.31853 73.5981C0.479464 69.5226 0 65.3273 0 61.0121C0 49.0254 3.47613 37.758 9.46946 28.2885C11.9867 24.3329 14.9833 20.617 18.4594 17.2608C29.4872 6.59265 44.4705 0 60.8922 0C62.2107 0 63.5293 -1.09759e-05 64.8478 0.119856C71.8001 0.599322 78.3927 2.15759 84.5059 4.67479C85.5847 5.15425 86.6635 5.63372 87.6224 6.11318C92.0575 8.27078 96.133 10.9078 99.8488 14.1442C101.167 15.223 102.366 16.3019 103.445 17.3806C103.924 17.7402 104.284 18.2197 104.643 18.6992C115.431 29.607 121.904 44.4705 121.904 60.8922Z" fill="url(#paint0_radial_2203_36420)"/>
<path fill-rule="evenodd" clip-rule="evenodd" d="M117.709 60.8919C117.709 77.3137 110.757 92.0573 99.6091 102.486C94.335 107.4 87.982 111.356 81.1496 113.993C74.9166 116.39 68.0842 117.709 61.0121 117.709C58.4949 117.709 55.9777 117.589 53.5803 117.229C51.3029 116.989 49.1453 116.51 46.9877 115.911C41.8334 114.592 37.0387 112.554 32.6037 110.037C29.7269 108.359 27.0898 106.561 24.5726 104.404C18.6992 99.489 13.7846 93.3758 10.3085 86.5434C8.15091 82.2282 6.47278 77.5534 5.39398 72.6389C4.55491 68.8031 4.19531 64.9674 4.19531 60.8919C4.19531 49.6245 7.43171 39.1961 13.0654 30.4458C15.4628 26.73 18.2197 23.2538 21.4561 20.1373C31.6448 10.1884 45.6691 4.0752 61.0121 4.0752C62.2107 4.0752 63.5292 4.0752 64.7279 4.19507C71.2007 4.67454 77.3139 6.11292 82.9476 8.51025C83.9066 8.86985 84.8655 9.34933 85.8244 9.82879C89.8999 11.8665 93.7356 14.3837 97.3316 17.2605C98.5303 18.2194 99.6091 19.2983 100.688 20.3771C101.047 20.7367 101.527 21.0963 101.887 21.5757C111.716 31.7644 117.709 45.6689 117.709 60.8919Z" fill="url(#paint1_radial_2203_36420)"/>
<path opacity="0.4" fill-rule="evenodd" clip-rule="evenodd" d="M117.71 60.8924C117.71 77.3141 110.757 92.0577 99.6098 102.486C94.3357 107.401 87.9827 111.356 81.1503 113.993C74.9173 116.391 68.0849 117.709 61.0128 117.709C58.4956 117.709 55.9784 117.589 53.581 117.23C46.0294 116.271 38.9573 113.754 32.6044 110.038C34.5223 109.558 36.3203 108.959 38.2381 108.479C42.7931 107.281 47.1082 105.962 51.6632 105.483C53.4612 105.243 56.4578 104.524 56.4578 102.246C56.4578 101.647 56.338 101.407 56.6976 101.048C57.177 100.688 57.6565 100.808 58.136 100.688C59.4545 100.448 60.5333 99.01 61.3724 98.051C62.6909 96.4928 64.2492 94.9345 65.8074 93.616C68.8041 90.9789 72.8796 89.6604 74.7974 85.8247C75.2769 84.7459 75.3968 83.6671 75.6365 82.5883C75.8762 81.2697 76.8352 80.4307 78.0338 79.8314C79.3523 78.9923 80.9106 78.7525 82.1093 77.6737C83.3079 76.7148 83.7874 75.1565 84.2669 73.7181C84.9861 71.4407 84.8662 69.0434 85.2258 66.646C85.3457 65.4474 85.7053 64.2487 85.8251 63.05C85.8251 61.8514 85.4655 61.0123 84.9861 59.9335C84.3867 58.1355 83.4278 56.2176 82.7086 54.4196C82.4689 53.7004 81.9894 53.221 81.3901 52.7415C80.551 52.0223 79.9517 51.1832 79.1126 50.464C78.5133 49.9846 77.7941 49.625 77.3146 49.1455C76.8352 48.7859 76.4756 48.1866 76.116 47.7071C75.3968 46.9879 74.6776 46.1488 73.7186 45.5495C71.4412 44.3508 70.1226 42.0734 67.4856 41.5939C64.2492 40.9946 61.6121 37.6383 58.2558 38.837C56.0982 39.5562 53.9406 40.3952 51.5433 40.9946C50.1049 41.3542 48.4268 41.3542 46.9884 41.8336C46.1493 42.1932 45.1904 42.9124 44.591 43.6316C43.6321 44.7104 43.2725 46.1488 42.4335 47.2276C41.8341 48.0667 41.4745 48.9058 40.8752 49.8647C39.9163 51.6627 39.9163 53.4607 39.9163 55.4984C39.9163 56.5772 39.7964 57.7759 39.9163 58.8547C40.0361 60.1732 40.6355 61.1322 41.4745 62.211C41.954 62.8103 42.3136 63.8891 42.9129 64.3685C43.2725 64.6083 43.5123 64.4884 43.8719 64.7282C44.4712 64.9679 44.7109 65.2076 45.1904 65.5672C46.6288 66.646 48.187 67.7248 49.985 68.0844C50.944 68.3241 51.783 68.444 52.6221 68.8036C53.3413 69.1632 54.1804 69.2831 55.0194 69.4029C56.9373 69.6427 58.6154 68.9235 60.0538 67.7248C61.0128 67.0056 61.6121 66.4063 62.3313 65.4474C62.6909 64.9679 62.9306 64.6083 63.53 64.2487C63.8896 64.009 64.2492 63.7692 64.7286 63.8891C65.0882 63.8891 65.4478 64.3686 65.9273 64.1288C66.2869 63.8891 66.5266 62.8103 66.6465 62.5705C66.8862 61.9712 67.0061 61.252 67.2458 60.7725C67.7253 59.8136 68.4445 60.0534 69.4034 60.0534C70.0028 60.0534 70.8418 59.9335 71.3213 59.454C71.6809 58.8547 71.561 57.7759 71.3213 57.1765C70.8418 56.3375 69.763 55.6183 69.1637 55.019C68.6842 54.5395 68.3246 53.9402 67.8452 53.3408C67.126 52.262 66.7664 50.1044 65.2081 49.8647C64.6088 49.7448 63.7697 49.8647 63.1704 49.8647C62.4512 49.8647 61.9717 49.7448 61.2525 49.5051C60.1737 49.2654 59.2148 48.9058 58.0161 48.9058C56.5777 48.9058 55.379 49.2654 54.0605 49.8647C53.4612 50.1044 53.1016 49.9846 52.5022 50.1044C51.9029 50.3442 50.944 51.5428 50.8241 52.262C50.5844 53.5806 51.0638 54.7792 52.3824 55.3785C52.742 55.4984 53.7009 55.6183 54.0605 55.9779C54.4201 56.4573 54.1804 57.0567 53.9406 57.5362C53.4612 58.8547 53.7009 60.413 55.2592 60.6527C56.338 60.7726 57.4168 60.1732 58.2558 59.6937C58.975 59.3341 60.2936 59.2143 60.2936 58.2554C60.1737 58.7348 59.4545 58.4951 59.0949 58.4951C58.2558 58.4951 57.7764 58.4951 57.177 58.0156C56.5777 57.5362 56.4578 57.0567 56.2181 56.4574C56.0982 56.2176 55.9784 55.7382 55.7386 55.4984C55.6188 55.2587 55.1393 55.0189 55.1393 54.7792C54.6598 53.7004 58.2558 53.1011 58.8552 52.9812C60.2936 52.8613 61.3724 53.8203 62.2114 54.8991C62.571 55.3786 63.2902 56.0978 63.2902 56.6971C63.2902 57.2964 62.8108 58.2554 62.571 58.8547C62.3313 59.454 62.2114 59.9335 61.9717 60.5328C61.732 61.252 61.3724 61.3719 60.773 61.7315C60.1737 62.0911 59.6942 62.5706 59.2148 63.05C58.6154 63.5295 57.8962 63.6493 57.177 63.7692C56.0982 64.0089 55.1393 63.4096 54.0605 63.5295C53.1016 63.5295 52.3824 64.1288 51.5433 64.1288C49.6254 64.2487 48.0672 64.0089 47.348 61.9712C47.1082 61.1321 47.348 60.7725 47.8274 60.1732C48.4268 59.5739 48.187 59.0944 47.9473 58.3752C47.5877 57.5361 47.2281 56.8169 47.1083 55.9779C46.9884 55.1388 47.4678 54.1799 47.5877 53.221C47.7076 52.5018 47.348 51.423 47.5877 50.8236C47.8274 50.2243 49.0261 49.625 49.6255 49.1455C50.3446 48.666 51.1837 48.4263 52.0228 47.9468C52.9817 47.4674 53.7009 47.5872 54.6598 47.4674C55.4989 47.3475 55.8585 46.7482 56.5777 46.3886C57.4168 46.029 58.4956 46.2687 59.3346 46.2687C60.2936 46.2687 60.773 46.6283 61.6121 46.9879C62.4512 47.3475 63.0505 47.9468 64.0094 48.0667C65.0882 48.1866 66.167 47.9468 67.2458 48.0667C68.3246 48.1866 68.6842 48.666 69.5233 49.2654C70.3624 49.8647 70.9617 50.2243 71.6809 51.1832C72.0405 51.6627 72.1604 52.1422 72.52 52.5018C72.8796 52.9812 73.1193 53.221 73.359 53.8203C73.5988 54.5395 74.0782 55.2587 74.318 56.0978C74.4378 56.5772 74.5577 56.9368 74.5577 57.4163C74.4378 58.0156 74.1981 58.615 74.1981 59.2143C74.1981 60.6527 73.5988 61.7315 72.9994 63.05C72.4001 64.3686 71.8008 65.6871 71.2014 67.0056C70.8418 67.8447 70.722 69.6427 69.5233 69.8824C68.924 70.0023 68.3246 69.8824 67.7253 70.242C67.126 70.6016 67.0061 71.3208 66.5266 71.6804C66.0472 72.1599 65.4478 71.9202 64.8485 71.9202C63.8896 71.9202 63.0505 72.04 62.2114 72.3996C61.1326 72.8791 60.4134 73.838 59.4545 74.4374C58.6154 74.797 57.6565 75.2764 56.6976 75.3963C55.9784 75.5161 55.379 75.3963 54.6598 75.636C53.1016 76.1155 51.9029 77.0744 50.3446 77.6737C49.146 78.0333 47.7076 78.3929 46.5089 78.2731C46.0295 78.2731 45.55 78.0333 45.0705 77.9135C44.3513 77.6737 43.5123 77.6738 42.6732 77.434C42.0739 77.3142 41.4745 77.0744 40.8752 76.8347C40.2759 76.595 39.9163 76.1155 39.3169 75.8757C37.9984 75.2764 36.6799 75.2764 35.4812 74.3175C33.9229 73.1188 32.6044 71.6804 30.9263 70.6016C30.2071 70.1221 29.8475 69.5228 29.368 68.9235C29.0084 68.3242 28.5289 67.9645 28.0495 67.4851C27.3303 66.7659 26.9707 65.8069 26.6111 64.9679C26.0117 63.5295 25.2925 62.0911 24.6932 60.5328C23.974 58.3752 23.0151 56.3375 22.5356 54.06C22.176 52.1422 22.6555 50.464 22.6555 48.666C22.6555 48.1866 22.7753 47.7071 22.6555 47.2276C22.5356 46.5084 21.9363 46.029 21.4568 45.5495C20.0184 43.8714 18.6999 42.1932 17.8608 40.0356C17.0217 37.878 16.6621 35.241 17.2615 32.9635C17.8608 30.9258 19.1793 29.847 20.8575 28.5284C22.4157 27.3298 24.3336 26.3708 26.1316 25.5318C26.9707 25.0523 27.6899 24.5728 28.5289 24.2132C29.368 23.8536 30.4468 23.7338 31.4057 23.4941C32.2448 23.2543 32.8441 23.2543 33.5633 22.655C34.2825 22.1755 35.1216 21.5762 35.7209 20.9769C36.56 20.2577 37.1593 19.4186 38.358 19.1789C39.7964 18.8193 41.4745 18.3398 42.9129 17.9802C44.8308 17.6206 47.1083 18.1001 49.0261 18.3398C50.944 18.5795 52.742 18.5795 54.6598 18.5795C56.2181 18.5795 57.7764 18.3398 59.3346 18.2199C59.934 18.2199 60.5333 18.3398 61.1326 18.2199C62.0916 18.2199 62.9306 17.7405 63.8896 17.5007C65.6876 17.0213 67.2458 16.1822 69.0438 15.5829C70.3624 15.1034 71.6809 15.2233 72.9994 14.9835C74.4378 14.7438 75.8762 14.2643 77.4345 14.1445C78.753 14.1445 80.0716 13.665 81.2702 14.2643C83.4278 15.5829 84.7463 17.8603 86.9039 19.1789C89.1814 20.4974 91.6986 21.4563 94.0959 22.4152C94.935 22.7748 95.8939 22.2954 96.6131 22.655C96.9727 22.7749 97.4522 23.3742 97.6919 23.7338C98.0515 23.494 97.9317 23.0146 97.9317 22.655C97.9317 22.0557 98.2913 21.5762 98.2913 20.9769C98.2913 20.2577 98.4111 19.4186 98.2913 18.6994C98.1714 18.3398 97.6919 17.5007 97.6919 16.9014C98.8906 17.8603 99.9694 18.9391 101.048 20.0179C111.237 30.686 117.71 45.07 117.71 60.8924Z" fill="url(#paint2_radial_2203_36420)"/>
<path opacity="0.3" fill-rule="evenodd" clip-rule="evenodd" d="M23.1337 78.1536C22.7741 79.3522 22.6543 80.6708 22.5344 81.9893C22.894 81.8695 23.3735 82.7085 23.7331 82.8284C24.4523 83.0681 25.0516 83.0681 25.6509 83.4277C26.2503 83.7873 26.8496 84.6264 27.4489 84.7462C27.8085 84.8661 28.4079 84.7462 28.8873 84.7462C29.8463 84.7462 30.6853 84.7463 31.5244 84.986C32.4833 85.2257 33.682 85.4654 34.6409 85.3456C35.2403 85.2257 36.3191 84.986 36.7985 84.5065C37.278 84.0271 37.5177 82.8284 37.6376 82.1092C37.7575 80.0715 36.1992 78.0337 34.6409 76.8351C33.8019 76.2357 32.9628 76.2357 32.0039 75.7562C30.9251 75.1569 29.9661 74.9172 28.7675 74.5576C28.0483 74.3179 27.0893 74.0781 26.3701 74.0781C25.6509 74.0781 24.8119 74.5576 24.2125 74.6775C23.4933 74.9172 22.894 74.9172 22.4145 75.5165C21.9351 76.3556 22.1748 77.3145 23.1337 78.1536Z" fill="url(#paint3_linear_2203_36420)"/>
<path opacity="0.3" fill-rule="evenodd" clip-rule="evenodd" d="M39.1962 85.3447C38.8366 85.8242 35.4803 88.701 37.1585 89.8997C37.2783 90.0195 37.9975 90.1394 38.1174 90.1394C38.5969 90.2593 38.7167 90.1394 39.1962 89.8997C40.0352 89.4202 40.1551 88.5812 39.9154 87.6222C39.9154 87.3825 39.6756 86.903 39.5558 86.6633C39.4359 86.3037 39.0763 86.3037 38.9564 85.8242L39.1962 85.3447Z" fill="url(#paint4_linear_2203_36420)"/>
<path opacity="0.3" fill-rule="evenodd" clip-rule="evenodd" d="M58.4946 11.7471C59.094 11.3875 61.0118 10.3087 62.0906 10.1888C62.4502 10.1888 62.9297 10.3087 63.2893 10.3087C64.1284 10.3087 64.8476 10.1888 65.4469 10.7881C65.9264 11.2676 66.1661 11.7471 65.8065 12.3464C65.327 13.1855 64.1284 13.7848 63.2893 14.1444C61.4913 15.2232 59.094 16.1821 56.9364 15.9424C55.2582 15.8225 53.7 14.504 52.1417 13.6649C51.0629 13.0656 49.0252 11.9868 50.3437 10.6683C51.4225 9.58947 53.1006 8.99013 54.6589 8.87027C55.3781 8.87027 57.0562 8.63054 57.5357 8.99014C58.135 9.46961 57.5357 11.3875 58.7344 11.2676L58.4946 11.7471Z" fill="url(#paint5_linear_2203_36420)"/>
<path fill-rule="evenodd" clip-rule="evenodd" d="M3.3566 49.385C4.19566 61.012 31.2855 42.193 57.5363 33.9222C88.342 24.0932 111.716 45.5493 115.072 44.3506C120.466 42.5526 98.5306 0.119847 63.4097 0.71918C23.8538 1.19865 1.9182 30.6858 3.3566 49.385Z" fill="url(#paint6_linear_2203_36420)"/>
<path opacity="0.5" fill-rule="evenodd" clip-rule="evenodd" d="M0.599609 69.4033L2.51747 78.2734C2.51747 78.2734 13.0657 84.5065 37.6384 82.229C62.211 79.9516 67.9646 67.9649 77.5539 61.0126C87.1433 54.0604 105.723 48.5465 110.517 43.0326C115.312 37.6387 111.236 26.7308 111.236 26.7308L109.319 24.0938C109.319 24.0938 112.795 33.4433 108.599 40.2757C104.524 47.1081 86.1843 50.3445 76.2354 59.0948C66.2865 67.845 46.029 74.5575 28.6484 74.6774C11.6273 74.7973 0.599609 69.4033 0.599609 69.4033Z" fill="#BDFFE8" fill-opacity="0.5"/>
<path opacity="0.5" fill-rule="evenodd" clip-rule="evenodd" d="M8.75098 92.4174L12.5867 98.0511C12.5867 98.0511 30.2071 103.205 56.6976 98.0511C83.1881 92.8968 103.206 77.9135 112.436 69.403C121.785 60.8925 120.586 49.0257 120.586 49.0257L119.747 45.4297C119.747 45.4297 118.069 57.7759 107.761 69.403C97.4522 81.03 80.1914 91.5783 55.3791 95.8935C30.6866 100.329 8.75098 92.4174 8.75098 92.4174Z" fill="#BDFFE8" fill-opacity="0.5"/>
<path opacity="0.5" fill-rule="evenodd" clip-rule="evenodd" d="M4.19531 38.8361C4.19531 38.8361 38.8367 50.7029 65.567 45.4288C92.2972 40.2745 99.4892 23.0137 99.9687 14.1436L95.0542 10.4277C95.0542 10.4277 95.174 28.168 78.2728 38.956C61.3717 49.6241 17.98 43.2712 6.35291 34.0414L4.19531 38.8361Z" fill="#BDFFE8" fill-opacity="0.5"/>
<path fill-rule="evenodd" clip-rule="evenodd" d="M7.9112 59.6936C8.2708 61.8512 13.0655 58.8546 16.7813 51.6626C20.3773 44.4706 21.0965 29.4873 19.1787 28.2886C17.3807 26.8502 5.27414 44.95 7.9112 59.6936Z" fill="white"/>
<path fill-rule="evenodd" clip-rule="evenodd" d="M8.27136 62.8099C5.75416 63.2893 5.87403 68.2039 7.43229 70.2416C8.99056 72.2793 11.0283 71.3204 11.1482 67.0052C11.268 64.488 10.3091 62.4503 8.27136 62.8099Z" fill="white"/>
<path fill-rule="evenodd" clip-rule="evenodd" d="M80.1904 5.87305C80.1904 5.87305 82.5878 6.47238 83.307 9.70877C83.307 9.82864 80.9096 9.10944 80.1904 5.87305Z" fill="white"/>
<path fill-rule="evenodd" clip-rule="evenodd" d="M35.96 6.95194C35.96 6.95194 37.758 4.79435 41.354 3.83542C44.2308 3.11622 45.9089 3.23608 46.5082 3.11621C46.5082 3.11621 40.395 7.31154 35.96 6.95194Z" fill="white"/>
<defs>
<radialGradient id="paint0_radial_2203_36420" cx="0" cy="0" r="1" gradientUnits="userSpaceOnUse" gradientTransform="translate(60.9566 60.9092) scale(60.9395 60.9396)">
<stop stop-color="#004858"/>
<stop offset="1" stop-color="#008BAB"/>
</radialGradient>
<radialGradient id="paint1_radial_2203_36420" cx="0" cy="0" r="1" gradientUnits="userSpaceOnUse" gradientTransform="translate(44.8637 44.7989) scale(83.2989)">
<stop offset="0.00558659" stop-color="#00CEC0"/>
<stop offset="0.2576" stop-color="#00CCC0"/>
<stop offset="0.3833" stop-color="#00C4C1"/>
<stop offset="0.4811" stop-color="#00B7C2"/>
<stop offset="0.5645" stop-color="#00A4C4"/>
<stop offset="0.6387" stop-color="#008CC6"/>
<stop offset="0.7054" stop-color="#006EC8"/>
<stop offset="0.7179" stop-color="#0068C9"/>
<stop offset="0.7438" stop-color="#0767CB"/>
<stop offset="0.7813" stop-color="#1A66CF"/>
<stop offset="0.8259" stop-color="#3A63D6"/>
<stop offset="0.8759" stop-color="#6660E0"/>
<stop offset="0.9304" stop-color="#9E5BEC"/>
<stop offset="0.9879" stop-color="#E255FC"/>
<stop offset="1" stop-color="#F154FF"/>
</radialGradient>
<radialGradient id="paint2_radial_2203_36420" cx="0" cy="0" r="1" gradientUnits="userSpaceOnUse" gradientTransform="translate(67.2771 65.987) scale(51.0919 51.0919)">
<stop stop-color="#1372B3"/>
<stop offset="1" stop-color="white"/>
</radialGradient>
<linearGradient id="paint3_linear_2203_36420" x1="22.207" y1="79.7711" x2="37.6557" y2="79.7711" gradientUnits="userSpaceOnUse">
<stop stop-color="#B8C2FF"/>
<stop offset="1" stop-color="#7D72B3"/>
</linearGradient>
<linearGradient id="paint4_linear_2203_36420" x1="36.6348" y1="87.7825" x2="39.8176" y2="87.7825" gradientUnits="userSpaceOnUse">
<stop stop-color="#B8C2FF"/>
<stop offset="1" stop-color="#7D72B3"/>
</linearGradient>
<linearGradient id="paint5_linear_2203_36420" x1="50.0144" y1="12.5116" x2="66.012" y2="12.5116" gradientUnits="userSpaceOnUse">
<stop stop-color="#B8C2FF"/>
<stop offset="1" stop-color="#7D72B3"/>
</linearGradient>
<linearGradient id="paint6_linear_2203_36420" x1="26.0117" y1="9.62351" x2="85.7047" y2="86.184" gradientUnits="userSpaceOnUse">
<stop offset="0.0167598" stop-color="#B1FDF9"/>
<stop offset="1" stop-color="#37C7D1" stop-opacity="0"/>
</linearGradient>
</defs>
</svg>
