<svg width="151" height="173" viewBox="0 0 151 173" fill="none" xmlns="http://www.w3.org/2000/svg">
<path fill-rule="evenodd" clip-rule="evenodd" d="M10.9121 57.8286C10.9121 57.8286 11.8089 50.3551 12.4068 46.3194C12.4068 46.3194 17.4888 39.1448 25.5602 33.3154L36.3221 33.9133C36.3221 33.9133 14.4994 51.4014 10.9121 57.8286Z" fill="url(#paint0_linear_2203_36437)"/>
<path fill-rule="evenodd" clip-rule="evenodd" d="M25.5613 33.3154C25.5613 33.3154 25.5613 39.2943 20.0309 44.0773C14.5005 48.8604 12.1089 47.2162 12.1089 47.2162L10.7637 56.7824L36.1737 33.9133L25.5613 33.3154Z" fill="url(#paint1_linear_2203_36437)"/>
<path fill-rule="evenodd" clip-rule="evenodd" d="M141.549 95.9438C141.549 102.67 140.652 109.396 138.858 115.525C135.271 128.08 128.246 139.141 118.979 147.81C112.402 153.938 104.48 158.871 95.8108 162.159C88.0383 165.149 79.5185 166.793 70.6997 166.793C69.5039 166.793 68.1587 166.793 66.9629 166.644C65.1693 166.494 63.2261 166.345 61.4325 166.195C47.8306 164.401 35.2751 158.722 25.2606 150.202C21.5238 147.063 18.086 143.476 14.9471 139.589C12.705 136.6 10.6124 133.61 8.81877 130.322C8.37036 129.575 7.92195 128.678 7.47354 127.931C7.47354 127.931 7.47354 127.931 7.47354 127.781C7.02513 126.884 6.57669 126.137 6.27775 125.24C5.08198 122.55 4.03568 119.71 3.13885 116.87C2.54097 114.777 1.94312 112.685 1.49471 110.592C1.19577 109.097 0.896825 107.603 0.747354 105.958C0.298942 102.67 0 99.3817 0 95.9438C0 94.0007 -2.73734e-05 92.0576 0.298914 90.1145C0.448385 88.9187 0.597883 87.7229 0.747354 86.5272C1.64418 79.502 3.58728 72.9253 6.42723 66.797C7.77246 63.8076 9.41666 60.8182 11.2103 58.1277C14.1997 53.4941 17.6376 49.1595 21.6733 45.2732C34.3783 32.8672 51.8664 25.2441 70.9986 25.2441C71.746 25.2441 72.4934 25.2441 73.2407 25.2441C73.9881 25.2441 74.8848 25.2441 75.6322 25.3936C79.6679 25.6926 83.7036 26.2904 87.5899 27.1873C89.8319 27.7851 92.074 28.383 94.1666 29.1304C95.6613 29.5788 97.0066 30.1767 98.5013 30.7746C99.5476 31.223 100.594 31.6714 101.64 32.1198C101.79 32.2693 101.939 32.2693 102.238 32.4187C109.114 35.7071 115.391 40.1912 120.772 45.5722C121.52 46.3195 122.267 47.0669 123.014 47.9637C123.463 48.5616 124.061 49.01 124.509 49.6079C125.406 50.5047 126.153 51.551 126.901 52.4478C129.741 56.0351 132.132 59.9214 134.225 63.9571C136.616 68.7401 138.559 73.8222 139.905 79.0536C140.801 84.2851 141.549 89.965 141.549 95.9438Z" fill="url(#paint2_radial_2203_36437)"/>
<path fill-rule="evenodd" clip-rule="evenodd" d="M101.79 32.269C101.491 32.269 101.341 32.269 101.042 32.4185C100.295 32.568 99.5475 32.4185 98.8002 32.269C98.2023 32.1196 97.9034 31.8206 97.156 31.8206C96.2592 31.6712 95.5118 31.3722 94.615 31.2227C93.7182 31.0733 92.9708 30.7743 92.074 30.4754C91.3266 30.1765 91.0277 30.3259 90.4298 30.4754C89.832 30.6249 89.3835 30.3259 88.7857 30.1765C88.1878 29.8775 87.4404 29.8775 86.8425 29.728C85.0489 29.4291 83.2552 28.8312 81.4616 28.3828C80.4153 28.0839 79.369 28.0839 78.1732 28.0839C77.2764 28.0839 76.529 28.3828 75.6322 28.3828C75.0343 28.3828 74.5859 28.2333 73.9881 28.2333C73.3902 28.0839 72.7923 28.2333 72.1944 28.2333C71.2976 28.0839 70.8492 27.9344 69.9523 28.2333C69.205 28.3828 68.7566 28.3828 68.0092 28.5323C67.2619 28.5323 66.365 28.8312 65.6177 28.9807C64.2724 29.2796 62.7777 29.5786 61.4325 29.5786C60.5356 29.5786 59.3399 29.2796 58.5925 29.5786C58.1441 29.728 57.8452 30.3259 57.3968 30.6249C56.6494 31.3722 55.9021 31.9701 55.3042 32.7175C54.7063 33.4648 54.1084 34.3616 54.1084 35.4079C54.1084 36.3048 54.5568 37.3511 55.0052 38.0984C55.4537 38.9952 55.6031 39.7426 54.7063 40.3405C53.66 41.0878 52.3148 41.6857 51.119 42.1341C50.2222 42.4331 49.4748 42.5825 48.8769 41.9846C48.578 41.8352 48.4285 41.3868 48.1296 41.0878C47.8306 40.9384 47.3822 41.0878 47.0833 41.2373C46.1865 41.5362 45.2896 41.8352 44.3928 41.9846C43.7949 42.1341 43.3465 42.4331 42.7486 42.4331C42.1507 42.5825 41.7024 42.1341 40.955 42.2836C40.0582 42.4331 39.0119 42.8815 38.1151 42.8815C37.3677 42.8815 36.4709 42.5825 35.873 42.2836C35.5741 42.1341 35.4246 41.8352 34.9762 41.9846C34.6772 41.9846 34.2288 42.4331 34.0793 42.732C33.7804 43.0309 33.7804 43.4794 33.4815 43.7783C33.1825 44.2267 33.033 44.5256 32.7341 44.9741C32.2857 45.7214 31.8373 46.4688 31.3889 47.2161C31.0899 47.6645 30.791 48.4119 30.3426 48.8603C30.1931 49.1592 29.7447 49.3087 29.4457 49.4582C28.6984 49.9066 27.951 50.5045 27.2037 50.9529C25.8584 51.9992 24.5132 53.195 23.168 54.2413C22.1217 54.9886 20.627 55.437 19.4312 56.0349C18.6839 56.3338 17.9365 56.6328 17.1891 56.9317C16.8902 57.0812 16.4418 57.0812 16.2923 57.3801C15.9934 57.6791 15.8439 57.978 15.6944 58.4264C15.0966 59.1738 14.3492 60.0706 13.9008 60.9674C13.6018 61.5653 13.4524 62.0137 13.1534 62.6116C12.8545 63.359 12.4061 64.1063 12.2566 65.0032C11.6587 66.6473 11.6587 68.441 10.9114 70.0852C10.6124 70.982 10.0145 71.8788 9.56612 72.7756C8.81877 74.2703 8.66928 76.064 8.51981 77.7082C8.37034 78.605 8.51982 79.8008 8.66929 80.6976C8.81876 81.7439 8.81877 82.7902 8.81877 83.8365C8.81877 84.8828 8.07142 86.0785 7.47354 86.8259C6.87566 87.5732 5.82935 87.8722 5.082 88.6195C4.48412 89.2174 3.73675 89.8153 3.43781 90.7121C3.28834 91.0111 3.43781 91.4595 3.43781 91.9079C3.28834 92.8047 2.98942 93.5521 2.98942 94.4489C2.83995 95.4952 2.83994 96.5415 2.83994 97.7373C2.83994 98.3351 2.83994 98.7836 2.83994 99.3814C2.83994 99.9793 2.98938 100.428 3.13885 100.876C3.13885 101.175 3.13885 101.623 3.13885 101.922C3.13885 102.371 3.43781 102.819 3.43781 103.118C3.73675 104.165 3.88621 105.061 4.03568 106.108C4.18516 107.004 4.63357 107.901 4.78304 108.798C5.23145 109.994 5.38093 111.19 5.67987 112.535C5.82934 113.432 5.82936 114.478 5.97883 115.375C6.1283 116.122 6.27775 116.87 6.27775 117.617C6.27775 118.813 5.97883 119.859 5.97883 121.055C5.97883 122.998 6.72617 124.941 7.17458 126.884C7.32405 127.482 7.4735 127.93 7.62298 128.528C2.69044 118.962 0 108.051 0 96.5415C0 82.4912 4.0357 69.4873 11.0608 58.5759C14.0502 53.9423 17.4881 49.6077 21.5238 45.8709C34.2288 33.4648 51.7169 25.8418 70.8492 25.8418C72.3439 25.8418 73.9881 25.8418 75.4828 25.9913C84.75 25.8418 93.7182 28.2333 101.79 32.269Z" fill="url(#paint3_linear_2203_36437)"/>
<path opacity="0.1" fill-rule="evenodd" clip-rule="evenodd" d="M75.1846 129.127C75.1846 129.127 81.7613 138.842 90.58 146.764C99.3988 154.686 100.595 160.067 100.595 160.067C100.595 160.067 117.186 153.191 128.994 136.75C140.802 120.457 75.1846 129.127 75.1846 129.127Z" fill="black"/>
<path opacity="0.4" fill-rule="evenodd" clip-rule="evenodd" d="M87.1433 27.0378C83.2571 26.141 79.3708 25.5431 75.1857 25.2442C74.4383 25.2442 73.5415 25.0947 72.7941 25.0947C74.4383 25.9916 76.0825 27.6357 76.3814 29.4294C76.9793 32.4188 78.0256 35.1093 78.474 37.9492C79.0719 40.7892 78.9224 44.3765 77.5772 46.9175C76.8298 48.5616 75.7835 49.9069 74.4383 51.2521C73.5415 52.149 72.6447 52.7468 72.0468 53.9426C71.4489 55.1384 70.7015 56.1847 69.9542 57.231C68.9079 58.8751 67.7121 60.5193 66.3669 62.014C65.9185 62.6119 65.4701 62.9108 65.0217 63.5087C64.5733 64.2561 64.2743 65.0034 63.6764 65.6013C62.3312 66.9466 60.3881 67.8434 58.7439 68.4413C56.5018 69.3381 54.5587 70.2349 52.4661 71.4307C49.4767 73.0749 46.9357 75.018 43.4978 75.1675C42.3021 75.1675 41.1063 75.018 39.9105 75.1675C38.4158 75.3169 37.0706 75.9148 35.7254 76.2137C34.5296 76.5127 33.1844 76.6622 31.9886 76.9611C29.896 77.26 28.2518 78.0074 26.3087 78.4558C23.7677 79.0537 21.0772 78.9042 18.3868 79.3526C15.9952 79.6516 14.0521 79.9505 11.6606 79.3526C8.07327 78.4558 6.13013 76.8116 6.87749 72.9254C7.3259 70.3844 7.17647 68.4413 5.9807 66.6476C3.14075 72.7759 1.19761 79.5021 0.300781 86.3778C1.94496 87.1251 3.88808 87.4241 5.53226 87.5735C10.7637 88.1714 16.4436 85.7799 21.2267 83.9862C23.6182 83.0894 26.1592 81.7442 28.8497 81.4452C31.6897 81.1463 34.0812 81.4452 36.9211 80.8473C46.4873 78.4558 55.9039 75.1675 64.5732 70.0854C68.1605 67.9929 69.6552 65.0034 72.1963 62.014C74.2888 59.3235 76.8298 57.231 79.3708 54.9889C81.9118 52.7468 84.1539 50.6542 85.6486 47.6648C87.2928 44.5259 88.638 40.9386 89.3854 37.5008C90.1327 33.6146 89.0864 30.0273 87.1433 27.0378ZM86.6949 36.604C86.5455 37.3513 86.396 38.2482 86.2465 38.9955C85.6486 40.9386 84.4529 42.8818 82.6592 43.7786C81.9118 44.227 80.7161 43.9281 80.2677 43.1807C79.9687 42.7323 79.9688 42.1344 79.9688 41.686C79.8193 40.6397 79.6698 39.7429 79.6698 38.6966C79.6698 36.305 79.6698 33.9135 79.3708 31.522C79.6698 32.8672 79.3709 29.4294 81.4635 28.5326C82.5098 28.0841 84.0044 28.5326 84.7518 29.2799C85.6486 30.3262 85.9476 31.9704 86.2465 33.1662C86.5454 34.5114 86.8444 35.4082 86.6949 36.604Z" fill="url(#paint4_linear_2203_36437)"/>
<path opacity="0.4" fill-rule="evenodd" clip-rule="evenodd" d="M76.3797 149.754C76.2303 149.754 75.9313 149.903 75.7819 149.903L77.1271 150.052C77.1271 149.903 76.8281 149.754 76.3797 149.754ZM76.3797 149.754C76.2303 149.754 75.9313 149.903 75.7819 149.903L77.1271 150.052C77.1271 149.903 76.8281 149.754 76.3797 149.754ZM139.456 78.7549C139.456 80.5485 138.859 82.4917 138.859 84.2853C138.859 86.8263 138.41 88.7694 137.812 91.161C137.364 92.8051 136.467 94.0009 136.019 95.6451C135.421 97.4387 134.524 99.0829 133.627 100.727C131.833 104.015 129.89 107.453 129.143 111.19C128.396 114.628 128.246 117.468 126.602 120.607C124.958 123.596 122.566 126.137 120.773 129.127C120.025 130.472 119.427 130.472 118.082 131.369C116.737 132.415 115.392 133.91 114.046 134.956C111.206 137.198 108.516 138.842 104.929 140.187C102.687 141.084 100.594 141.682 98.2025 141.981C96.7078 142.28 95.2131 141.981 93.7184 142.28C91.3268 142.728 89.0848 143.326 86.6933 144.074C82.9565 145.269 79.0702 146.017 75.3335 147.213C72.643 147.96 70.102 148.558 67.4115 149.006C65.7673 149.305 64.4221 150.202 62.7779 149.903C61.1337 149.604 59.4895 149.006 57.8454 148.408C55.7528 147.81 53.9591 147.661 51.717 147.661C48.7276 147.661 45.1403 148.109 42.0014 147.511C38.5636 146.914 35.2753 145.867 31.8375 145.269C29.7449 144.821 28.2501 143.924 26.307 143.177C24.5134 142.28 22.7197 142.131 20.7766 141.533C18.8335 140.935 16.8904 140.038 14.9473 139.59C17.9367 143.476 21.3745 147.063 25.2607 150.202C35.2753 158.722 47.6813 164.402 61.4327 166.195C63.2263 166.345 65.02 166.644 66.9631 166.644C70.9988 165.747 74.885 164.551 78.9208 163.355C85.6469 161.263 91.4763 157.227 98.2025 155.284C100.743 154.537 102.986 153.789 105.228 152.593C107.021 151.697 108.815 151.547 110.459 150.8C116.737 148.109 121.37 142.131 124.21 136.152C125.406 133.461 126.602 130.472 128.993 128.379C129.89 127.482 131.086 126.884 131.833 125.838C132.73 124.792 133.328 123.596 134.225 122.4C135.72 120.457 137.065 118.365 138.41 116.422C138.56 116.123 138.709 115.973 138.859 115.674C140.652 109.396 141.549 102.82 141.549 96.0935C141.549 89.9652 140.802 84.2853 139.456 78.7549ZM74.4366 150.202C74.7356 150.052 75.0345 149.754 75.3335 149.604C75.6324 149.455 76.0808 149.604 76.3797 149.754C76.9776 149.604 77.426 149.604 77.8744 149.903C78.1734 150.052 78.6218 150.351 78.7713 150.65C78.9207 150.949 78.7713 151.099 78.4724 151.398C78.1734 151.697 78.0239 151.697 77.5755 151.697C76.8282 151.846 76.0808 151.996 75.184 151.846C74.7356 151.846 73.9882 151.697 73.6893 151.398C73.6893 150.8 74.1377 150.501 74.4366 150.202ZM79.0702 159.469C78.6218 160.067 78.1734 160.665 77.5755 160.964C76.9776 161.412 76.3798 161.562 75.9313 162.01C74.4366 162.757 72.9419 163.654 71.4472 164.103C70.8493 164.252 70.102 164.252 69.5041 164.252C68.7568 164.402 67.8599 164.402 67.1126 164.402C66.2157 164.402 65.1695 164.551 64.2726 164.701C63.3758 164.701 62.3295 164.85 61.4327 164.85C59.7885 165 58.4432 164.701 56.9485 164.103C55.6033 163.654 54.2581 162.907 53.0623 162.16C52.1655 161.562 51.4181 160.814 50.8203 160.067C50.0729 159.469 49.6245 158.722 49.1761 157.825C49.0266 157.526 48.8771 157.227 49.0266 156.779C49.0266 156.629 49.1761 156.48 49.1761 156.48C49.475 156.33 49.774 156.031 49.9234 156.031C50.3718 155.732 50.9697 155.732 51.5676 155.583C52.9129 155.433 54.2581 155.583 55.6033 155.732C56.3507 155.732 57.098 155.882 57.8454 155.732C58.8917 155.583 59.938 155.284 60.8348 154.985C63.2263 154.387 65.6179 153.789 68.0094 153.64C70.4009 153.341 73.0914 153.042 75.4829 153.49C76.3798 153.64 77.5755 153.939 78.3229 154.387C78.9208 154.836 79.3692 155.433 79.6681 156.031C80.1165 157.227 79.8176 158.423 79.0702 159.469ZM97.9036 153.341C97.4552 153.789 96.8573 154.088 96.2594 154.537C95.512 155.134 94.7647 155.433 94.0173 155.882C93.4194 156.33 92.6721 156.629 92.0742 156.928C91.3268 157.227 90.7289 157.526 89.9816 157.974C89.2342 158.273 88.4869 158.572 87.7395 158.871C87.1416 159.021 86.5438 159.32 85.9459 159.17C85.4975 159.021 84.8996 158.871 84.6006 158.572C84.0027 157.974 84.1522 157.377 84.3017 157.078C84.3017 156.629 84.1522 155.882 84.3017 155.284C84.4512 154.985 84.7501 154.537 84.8996 154.238C85.4975 153.042 86.3943 152.295 87.2911 151.398C88.0385 150.65 88.9353 150.052 89.9816 149.604C91.1774 149.156 92.6721 149.006 93.8678 148.857C95.2131 148.707 97.6046 148.558 98.352 150.202C98.8004 151.248 98.6509 152.295 97.9036 153.341ZM77.2766 149.903C77.1271 149.903 76.8282 149.754 76.5292 149.604C76.3797 149.604 76.0808 149.754 75.9313 149.754L77.2766 149.903Z" fill="url(#paint5_linear_2203_36437)"/>
<path opacity="0.4" fill-rule="evenodd" clip-rule="evenodd" d="M133.778 63.658V63.9569C133.628 65.9 132.881 67.2453 132.133 69.0389C131.535 70.5336 130.938 71.7294 130.19 73.0746C128.994 75.3167 128.397 77.4093 127.5 79.9503C126.005 83.6871 125.407 87.7228 123.165 91.1606C121.222 94.2995 120.624 98.0363 119.129 101.325C117.336 105.061 114.496 107.602 111.506 110.293C110.161 111.489 108.965 112.983 107.77 114.329C106.424 115.674 105.528 117.467 103.883 118.663C100.595 121.055 96.8582 123.147 93.5698 125.688C91.6267 127.183 90.2815 129.276 88.0394 130.471C85.9468 131.817 83.5553 132.713 81.4627 133.909C79.5196 135.105 77.5765 136.301 75.4839 137.198C73.0924 138.094 71.1492 137.796 68.6082 137.945C65.9178 138.094 63.0778 138.842 60.5368 139.739C58.4442 140.486 56.6506 141.233 54.4085 140.486C52.9138 140.038 51.718 138.991 50.2233 138.692C46.636 137.945 42.7498 138.692 39.1625 138.543C36.3225 138.393 33.3331 137.796 30.4932 137.198C27.8027 136.749 25.5606 134.806 23.0196 134.059C19.7313 133.162 15.9945 133.909 13.0051 132.713C11.6598 132.265 10.4641 131.219 9.41778 130.471C9.11884 130.322 8.96937 130.172 8.67042 130.023C8.22201 129.276 7.77361 128.379 7.3252 127.631C8.07255 127.93 8.8199 128.229 9.56726 128.678C13.603 130.621 18.685 130.322 23.0196 131.069C27.9522 131.966 32.8847 133.162 37.8172 133.76C39.9098 134.059 41.853 133.909 43.9455 133.76C46.7855 133.461 49.6254 133.461 52.4654 133.012C57.2484 132.116 62.0315 129.874 66.964 130.471C67.8609 130.621 68.9072 131.069 69.804 131.069C71.1492 131.069 72.1955 129.874 73.2418 129.126C75.185 127.93 77.2775 128.08 79.0712 126.436C80.7154 124.792 82.6585 123.745 84.7511 122.699C90.132 120.008 94.4667 115.524 98.8013 111.19C102.389 107.602 105.826 103.866 108.218 99.531C110.61 95.1963 110.161 89.9648 111.955 85.4807C113.3 82.1923 114.346 79.2029 116.439 76.363C117.485 75.0178 118.681 73.822 119.727 72.4767C120.923 71.1315 121.521 69.6368 122.418 67.9926C123.315 66.199 124.66 64.7043 125.407 62.7611C126.154 60.9675 126.005 59.4728 126.005 57.5297C126.005 55.5865 126.005 53.494 126.005 51.4014C129.144 55.736 131.685 59.6223 133.778 63.658Z" fill="url(#paint6_linear_2203_36437)"/>
<path opacity="0.4" fill-rule="evenodd" clip-rule="evenodd" d="M122.566 47.6654C121.819 46.918 121.071 46.0212 120.324 45.2738C114.943 39.8929 108.665 35.5582 101.79 32.1204C101.64 31.9709 101.491 31.9709 101.192 31.8214C100.145 31.373 99.0991 30.9246 98.0528 30.4762C96.5581 29.8783 95.2129 29.2804 93.7182 28.832C94.1666 29.131 94.7645 29.4299 94.914 29.4299C95.8108 29.8783 96.5581 30.1773 97.156 30.9246C97.7539 31.672 98.0528 32.2699 98.0528 33.3162C98.0528 34.213 98.2023 35.2593 98.3518 36.1561C98.5012 37.0529 98.9497 37.8003 99.0991 38.6971C99.2486 39.1455 99.2486 39.5939 99.3981 40.1918C99.697 41.3876 100.145 42.5834 100.444 43.7791C100.893 46.0212 99.697 47.8148 98.9496 49.7579C97.7539 52.8968 97.0065 56.0357 95.9602 59.3241C95.2129 61.8651 93.8677 64.4061 91.9245 66.3492C89.9814 68.1429 87.1414 68.5913 85.4973 70.5344C84.0026 72.328 82.2089 73.9722 80.1163 74.869C77.7248 76.0648 75.0343 76.9616 72.4933 77.709C70.6997 78.3069 68.7565 78.3069 66.8134 78.7553C64.4219 79.3532 62.3293 80.5489 60.2367 81.4458C57.8452 82.4921 55.7526 83.6878 53.361 84.7341C50.9695 85.7804 48.8769 87.1256 46.4854 88.0225C45.2896 88.4709 44.0939 88.7698 43.0476 89.0688C40.656 89.9656 38.414 91.4603 35.873 91.7592C34.9762 91.9087 34.0793 92.0582 33.1825 92.0582C32.4351 92.0582 31.8373 92.2077 31.2394 92.3571C28.9973 93.254 27.6521 95.6455 25.1111 95.795C22.7195 95.795 20.4775 95.6455 18.2354 95.9444C17.0396 96.0939 15.9934 95.9444 14.9471 96.0939C14.6481 96.0939 14.1997 96.2434 13.9008 96.0939C13.6018 95.9444 13.1534 95.6455 12.705 95.3465C11.8082 94.8981 11.0608 94.3002 10.3135 93.7024C8.81877 92.5066 6.87566 93.2539 5.23148 92.8055C4.78307 92.6561 4.0357 92.8055 3.58729 92.5066C2.54099 91.9087 1.19574 90.5635 0.298914 89.8161C0.149443 91.7592 0 93.7024 0 95.6455C0 99.0833 0.298942 102.372 0.747354 105.66C0.896825 107.155 1.19577 108.649 1.49471 110.294C1.94312 112.386 2.54097 114.628 3.13885 116.571C4.03568 119.411 5.08198 122.251 6.27775 124.942C8.22087 125.241 10.164 125.54 12.1071 125.241C14.947 124.792 17.6375 124.344 20.4775 124.493C23.1679 124.643 25.5595 125.54 28.1005 125.988C30.9404 126.436 33.9298 126.885 36.9193 127.034C39.6097 127.184 42.3002 127.483 44.8412 127.782C46.7844 128.081 48.877 128.38 50.8201 128.529C56.0516 128.828 61.1335 127.483 66.2155 127.034C68.7566 126.735 71.2976 126.138 73.8386 125.54C75.3333 125.241 76.828 124.792 78.1732 123.895C79.9669 122.7 81.1626 121.056 82.6573 119.71C84.451 118.216 86.2446 116.721 88.0383 115.376C89.533 114.18 91.0277 112.835 92.6719 111.788C93.8677 111.041 95.2129 110.144 96.4087 109.247C98.6507 107.454 100.594 105.361 102.537 103.119C105.227 99.9801 106.274 95.6455 107.32 91.7592C108.366 88.1719 108.964 84.7341 110.907 81.4458C111.804 79.951 112.551 78.1574 113 76.3637C113.299 75.3175 113.448 73.9722 113.897 72.9259C114.644 71.2817 116.288 69.9365 117.185 68.4418C117.932 67.246 118.829 66.0503 119.278 64.5555C120.324 61.8651 121.071 59.1746 121.52 56.1852C121.819 54.0926 122.566 52 123.164 49.9074C123.313 49.6085 123.313 49.1601 123.463 48.8611C123.463 48.7116 123.014 48.1138 122.566 47.6654ZM30.3426 96.0939C30.492 95.795 33.1825 94.7487 33.4815 94.5992C33.4815 94.5992 33.4814 94.5992 33.332 94.5992L31.5383 95.3465C33.4814 94.7487 36.9193 96.6918 35.2751 98.7844C34.8267 99.3822 33.4815 99.6812 32.7341 99.8307C31.9867 99.9801 31.5383 99.6812 31.0899 99.0833C30.6415 98.4854 30.3426 97.5886 30.3426 96.8413C30.3426 96.6918 30.3426 96.2434 30.3426 96.0939ZM9.26716 115.077C7.17457 114.479 5.82933 113.731 4.63356 111.938C3.73673 110.742 3.13888 109.696 2.83994 108.351C2.69047 107.155 2.24203 106.258 2.54098 105.062C2.69045 104.165 3.13888 103.119 3.58729 102.372C4.0357 101.475 4.78304 100.429 4.78304 100.13C6.87563 99.9801 8.81875 99.8307 10.7619 99.8307C13.0039 99.8307 15.3955 100.13 17.6375 100.13C18.6838 100.13 19.7301 100.13 20.7764 99.9801C21.8227 99.8307 22.7196 99.5317 23.7658 99.3823C25.5595 99.0833 27.2037 98.9338 28.8478 99.6812C30.0436 100.279 30.6415 101.774 31.2394 102.97C31.5383 103.717 31.8373 104.165 31.8373 105.062C31.8373 106.108 31.8373 107.005 31.6878 107.902C31.6878 108.201 31.5383 108.649 31.5383 108.948C30.0436 112.087 26.1574 113.134 23.168 114.329C18.6839 116.123 13.7513 116.272 9.26716 115.077ZM41.1045 121.952C40.2076 124.344 36.3214 125.091 34.0793 125.241C33.033 125.241 31.6878 125.091 30.6415 124.493C30.0436 124.194 29.5952 123.597 29.1468 122.999C28.8479 122.55 28.3994 121.803 27.2037 122.102C27.5026 120.757 27.8016 119.561 28.3995 118.365C28.8479 117.767 29.4457 117.319 30.0436 116.721C31.0899 115.824 32.2857 114.927 33.4815 114.329C35.4246 113.283 37.5172 114.03 39.3108 114.927C40.656 115.525 41.5529 116.422 41.8518 117.767C42.3002 119.411 41.7024 120.458 41.1045 121.952ZM67.4113 121.504C66.6639 123.148 65.6177 123.597 64.123 124.493C62.3293 125.39 59.9378 126.138 57.9947 126.138C56.9484 126.138 55.9021 125.689 55.0052 125.241C54.4074 124.942 53.66 124.792 53.2116 124.344C51.8663 122.999 51.5674 121.205 52.4642 121.504C51.8663 120.308 51.5674 119.112 51.4179 117.917C51.7169 117.767 51.8663 117.468 51.8663 117.169C52.6137 115.824 53.9589 114.628 55.4536 113.881C57.8452 112.536 60.9841 112.237 63.6745 113.433C64.8703 113.881 65.6177 114.479 66.365 115.376C66.8134 115.824 67.2618 116.123 67.7103 116.721C68.1587 117.917 67.8597 120.159 67.4113 121.504ZM75.3333 121.205C74.8849 121.504 74.1375 122.102 73.6891 122.102C73.2407 121.952 72.4933 121.205 72.4933 120.607L72.1944 120.308C72.7923 119.262 73.3902 118.365 73.9881 117.319C74.8849 117.767 75.7817 117.618 76.3795 118.664C77.1269 119.71 76.0806 120.607 75.3333 121.205ZM95.5118 74.1217C94.7645 75.168 93.7182 76.2143 92.5224 76.6627C91.0277 77.2606 88.9351 77.8585 88.7857 75.4669C88.7857 74.1217 88.9351 73.0754 89.533 71.8796C90.4298 70.086 91.1772 69.6376 92.9708 68.7407C93.5687 68.7407 94.3161 69.0397 94.7645 69.1892C95.6613 69.4881 96.5581 70.3849 96.7076 71.4312C96.8571 72.4775 96.1097 73.3743 95.5118 74.1217ZM114.196 64.1071C113.448 66.4987 112.402 68.7407 111.356 70.8333C110.16 73.5238 110.01 76.3638 109.263 79.2037C108.964 80.8479 108.067 82.6415 106.573 83.2394C105.825 83.5383 105.227 83.3889 104.48 83.3889C103.733 83.3889 102.537 83.6878 102.537 84.2857C102.089 83.0899 101.491 81.5952 101.192 80.3995C100.893 79.0542 100.743 77.5595 100.594 76.0648C100.295 74.5701 100.295 73.0754 100.145 71.5807C99.996 70.2354 99.697 68.7407 99.697 67.3955C99.697 62.7619 102.387 56.9325 106.722 54.8399C108.067 54.2421 109.413 53.9431 110.907 54.0926C112.551 54.3915 113.598 54.84 114.345 56.4841C115.242 58.7262 114.794 61.7156 114.196 64.1071Z" fill="url(#paint7_linear_2203_36437)"/>
<path opacity="0.4" fill-rule="evenodd" clip-rule="evenodd" d="M93.8229 70.251C93.6734 70.4004 93.3745 70.4004 93.225 70.5499C92.7766 70.5499 92.4777 70.4004 92.1787 70.5499L93.8229 70.251Z" fill="url(#paint8_linear_2203_36437)"/>
<path fill-rule="evenodd" clip-rule="evenodd" d="M73.3465 104.63C70.3571 103.135 73.7949 89.8321 76.7843 86.8427C79.7737 83.8533 87.6957 90.7289 88.5925 96.2594C89.6388 101.939 80.3716 107.918 73.3465 104.63Z" fill="url(#paint9_linear_2203_36437)"/>
<path opacity="0.4" fill-rule="evenodd" clip-rule="evenodd" d="M4.63388 100.13C4.4844 100.13 4.33496 100.13 4.33496 100.13C4.6339 99.9802 4.63388 99.9802 4.63388 100.13Z" fill="url(#paint10_linear_2203_36437)"/>
<path fill-rule="evenodd" clip-rule="evenodd" d="M84.3018 26.4403L96.7078 21.5078C96.7078 21.5078 116.438 29.1308 128.994 46.021L129.741 56.7829C129.741 56.7829 106.124 47.6652 84.3018 26.4403Z" fill="url(#paint11_linear_2203_36437)"/>
<path fill-rule="evenodd" clip-rule="evenodd" d="M129.443 135.703C129.443 135.703 118.98 147.063 111.207 149.454L104.78 151.397C104.78 151.397 75.3343 140.785 73.6901 122.4C72.3449 106.855 98.8012 83.0892 105.976 80.2492C113.15 77.4093 121.521 79.0535 121.521 79.0535L129.443 135.703Z" fill="url(#paint12_linear_2203_36437)"/>
<path fill-rule="evenodd" clip-rule="evenodd" d="M121.521 79.0535C115.244 77.1104 88.4884 89.5165 81.1643 117.169C79.6696 122.848 93.2714 144.223 109.564 149.454C114.945 151.248 139.757 129.575 140.803 114.927C141.849 100.278 130.789 82.0429 121.521 79.0535Z" fill="url(#paint13_linear_2203_36437)"/>
<path fill-rule="evenodd" clip-rule="evenodd" d="M82.957 120.458C86.8432 89.0691 115.392 78.7556 121.67 80.6987C126.154 82.1934 132.731 88.7701 136.617 95.1974C132.731 87.126 126.901 80.5493 121.67 78.9051C115.392 76.962 88.6369 89.368 81.3128 117.02C80.8644 118.963 82.0601 122.849 84.7506 127.334C83.1064 124.494 82.6581 121.953 82.957 120.458Z" fill="url(#paint14_linear_2203_36437)"/>
<path opacity="0.3" fill-rule="evenodd" clip-rule="evenodd" d="M30.3438 154.238C30.3438 154.238 36.7711 156.63 41.4046 155.285C41.4046 155.285 43.1983 140.188 37.5184 130.473C31.8385 120.757 22.1229 135.405 22.1229 135.405L19.8809 144.672C19.8809 144.672 25.2618 151.1 30.3438 154.238Z" fill="black"/>
<path fill-rule="evenodd" clip-rule="evenodd" d="M35.8746 151.846L39.9103 150.8C39.9103 150.8 41.8534 142.429 38.4155 132.863C34.5293 122.101 20.1801 114.03 18.0875 113.88C15.9949 113.731 13.9023 118.514 13.9023 118.514L35.8746 151.846Z" fill="url(#paint15_linear_2203_36437)"/>
<path fill-rule="evenodd" clip-rule="evenodd" d="M100.594 160.067L93.7183 168.886C93.7183 168.886 81.9102 174.566 69.9525 171.876L61.2832 166.046L100.594 160.067Z" fill="url(#paint16_linear_2203_36437)"/>
<path fill-rule="evenodd" clip-rule="evenodd" d="M10.9122 125.091C11.6596 121.803 14.4995 116.422 17.0406 115.824C19.5816 115.226 31.8381 126.885 34.6781 134.358C37.518 141.832 36.0234 150.053 35.8739 151.697C35.7244 153.341 21.9731 148.707 14.948 143.028C8.07231 137.348 10.9122 125.091 10.9122 125.091Z" fill="url(#paint17_linear_2203_36437)"/>
<path fill-rule="evenodd" clip-rule="evenodd" d="M34.6777 134.358C31.8378 126.884 19.7307 115.375 17.0402 115.823C15.9939 115.973 14.9476 117.019 14.0508 118.215C14.6487 117.617 15.2465 117.318 15.8444 117.169C18.3854 116.571 30.7915 125.838 33.6315 133.311C37.0693 142.429 35.1262 149.006 34.8272 151.995C35.4251 151.995 35.8735 151.995 35.8735 151.696C36.023 150.052 37.5177 141.831 34.6777 134.358Z" fill="url(#paint18_linear_2203_36437)"/>
<path fill-rule="evenodd" clip-rule="evenodd" d="M76.0823 101.773C73.6908 100.578 76.3813 89.5168 78.7728 86.9758C81.1643 84.5842 87.4421 90.2641 88.3389 94.8977C89.2357 99.5313 81.7622 104.464 76.0823 101.773Z" fill="url(#paint19_linear_2203_36437)"/>
<path fill-rule="evenodd" clip-rule="evenodd" d="M96.7078 21.5078C96.7078 21.5078 97.3057 28.9813 105.826 38.2485C114.345 47.5157 128.994 46.021 128.994 46.021L129.741 56.7829C129.741 56.7829 98.651 43.0316 84.3018 26.4403L96.7078 21.5078Z" fill="url(#paint20_linear_2203_36437)"/>
<path fill-rule="evenodd" clip-rule="evenodd" d="M121.074 88.321C120.775 88.62 119.878 89.2178 120.625 89.6663C120.775 89.8157 120.924 89.6663 121.074 89.8157C121.223 89.8157 121.223 89.9652 121.373 89.9652C121.821 89.6663 121.672 88.1716 121.074 88.321Z" fill="#0EDBFF"/>
<path fill-rule="evenodd" clip-rule="evenodd" d="M150.37 75.7654C150.071 76.0644 149.174 76.6623 149.921 77.1107C150.071 77.2601 150.22 77.1107 150.37 77.2601C150.519 77.2601 150.519 77.4096 150.669 77.4096C151.266 76.9612 150.967 75.616 150.37 75.7654Z" fill="#0EDBFF"/>
<path fill-rule="evenodd" clip-rule="evenodd" d="M137.515 127.782C137.216 128.081 136.319 128.679 137.067 129.127C137.216 129.277 137.366 129.127 137.515 129.277C137.665 129.277 137.665 129.426 137.814 129.426C138.412 129.127 138.113 127.632 137.515 127.782Z" fill="#0EDBFF"/>
<path fill-rule="evenodd" clip-rule="evenodd" d="M123.614 93.5528C123.913 93.4033 124.063 93.4033 124.362 93.4033C124.362 93.7023 124.661 94.3001 124.212 94.5991C123.913 94.7486 123.913 94.1507 123.764 94.0012L123.614 93.5528Z" fill="#0EDBFF"/>
<path fill-rule="evenodd" clip-rule="evenodd" d="M77.129 96.6919C77.5774 96.8414 78.0259 97.1404 78.4743 97.2898C78.6237 97.1404 78.7732 97.1404 79.0721 97.1404C79.3711 96.9909 79.5205 96.6919 79.5205 96.393C79.67 95.9446 79.5206 95.6456 79.2216 95.3467C79.0721 95.1972 78.9227 94.8983 78.7732 94.7488C78.6237 94.5994 78.1753 94.5994 77.8763 94.7488C77.5774 94.8983 77.4279 95.1972 77.2785 95.4962C77.129 95.7951 76.8301 96.0941 76.8301 96.393C76.8301 96.6919 77.129 96.9909 77.2785 97.2898L77.129 96.6919Z" fill="#0EDBFF"/>
<path fill-rule="evenodd" clip-rule="evenodd" d="M11.0636 131.966C11.512 132.116 11.9604 132.415 12.4088 132.564C12.5583 132.415 12.7078 132.415 13.0067 132.415C13.3057 132.265 13.4552 131.966 13.4552 131.667C13.6046 131.219 13.4551 130.92 13.1562 130.621C13.0067 130.472 12.8573 130.173 12.7078 130.023C12.5583 129.874 12.1099 129.874 11.811 130.023C11.512 130.173 11.3626 130.472 11.2131 130.771C11.0636 131.07 10.7646 131.368 10.7646 131.667C10.7646 131.966 11.0636 132.265 11.2131 132.564L11.0636 131.966Z" fill="#0EDBFF"/>
<path fill-rule="evenodd" clip-rule="evenodd" d="M139.758 150.351C140.206 150.501 140.655 150.8 141.103 150.949C141.253 150.8 141.402 150.8 141.701 150.8C142 150.65 142.149 150.351 142.149 150.052C142.299 149.604 142.149 149.305 141.851 149.006C141.701 148.856 141.552 148.557 141.402 148.408C141.253 148.259 140.804 148.259 140.505 148.408C140.206 148.557 140.057 148.856 139.907 149.155C139.758 149.454 139.459 149.753 139.459 150.052C139.459 150.351 139.758 150.65 139.907 150.949L139.758 150.351Z" fill="#0EDBFF"/>
<path fill-rule="evenodd" clip-rule="evenodd" d="M130.49 137.498C130.939 137.647 131.387 137.946 131.836 138.095C131.985 137.946 132.135 137.946 132.433 137.946C132.732 137.797 132.882 137.498 132.882 137.199C133.031 136.75 132.882 136.451 132.583 136.152C132.433 136.003 132.284 135.704 132.135 135.554C131.985 135.405 131.537 135.405 131.238 135.554C130.939 135.704 130.789 136.003 130.64 136.302C130.49 136.601 130.191 136.9 130.191 137.199C130.191 137.498 130.49 137.797 130.64 138.095L130.49 137.498Z" fill="#0EDBFF"/>
<path fill-rule="evenodd" clip-rule="evenodd" d="M2.09486 48.4129C3.29062 48.8613 4.48638 49.3097 5.68215 49.9076C6.13056 49.6086 6.57896 49.6086 7.02738 49.3097C7.62526 48.8613 8.07366 48.1139 8.37261 47.516C8.67155 46.4698 8.22314 45.7224 7.77473 44.975C7.47579 44.5266 7.17688 43.7793 6.72846 43.3309C6.13058 42.8824 5.08428 43.0319 4.4864 43.3309C3.73905 43.6298 3.29062 44.3772 2.84221 44.975C2.3938 45.5729 1.94537 46.6192 1.7959 47.3666C1.7959 48.1139 2.39381 49.0107 2.99169 49.4592L2.09486 48.4129Z" fill="#0EDBFF"/>
<path fill-rule="evenodd" clip-rule="evenodd" d="M80.1183 5.36501C81.314 5.81342 82.5098 6.26184 83.7056 6.85972C84.154 6.56078 84.6024 6.56078 85.0508 6.26184C85.6487 5.81343 86.0971 5.06607 86.396 4.46819C86.695 3.42189 86.2466 2.67454 85.7982 1.92718C85.4992 1.47877 85.2003 0.731419 84.7519 0.283007C84.154 -0.165406 83.1077 -0.0159349 82.5098 0.283007C81.7624 0.581948 81.314 1.3293 80.8656 1.92718C80.4172 2.52507 79.9688 3.57137 79.8193 4.31872C79.8193 5.06607 80.4172 5.9629 81.0151 6.41131L80.1183 5.36501Z" fill="#0EDBFF"/>
<path fill-rule="evenodd" clip-rule="evenodd" d="M90.4318 108.351C90.2824 108.5 90.1329 108.65 89.9834 108.949C90.1329 109.248 90.2823 109.397 90.5813 109.546C90.7307 109.546 90.8802 109.546 91.0297 109.546C91.1792 109.397 91.0297 109.248 91.1792 109.098C91.3287 108.799 91.3287 108.65 91.1792 108.351C91.0297 108.201 91.0297 108.052 90.8802 108.052C90.7308 108.052 90.4318 108.052 90.4318 108.201V108.351Z" fill="#0EDBFF"/>
<path fill-rule="evenodd" clip-rule="evenodd" d="M91.4786 115.824C91.4786 115.974 91.0302 116.871 91.4786 116.572C91.7775 116.422 91.7775 115.974 91.4786 115.824C91.6281 115.824 91.6281 115.824 91.4786 115.824Z" fill="#0EDBFF"/>
<path fill-rule="evenodd" clip-rule="evenodd" d="M114.946 129.276C114.647 129.725 114.647 129.874 114.497 130.323C114.647 130.472 114.946 130.472 115.095 130.472C115.394 130.472 115.394 130.323 115.394 130.173C115.394 130.024 115.543 129.725 115.394 129.575C115.244 129.276 115.095 129.127 114.946 129.276Z" fill="#0EDBFF"/>
<path fill-rule="evenodd" clip-rule="evenodd" d="M95.2148 109.247C95.3643 109.397 95.5138 109.546 95.5138 109.845C95.2149 109.845 95.2148 109.696 95.2148 109.397C95.2148 109.098 95.3643 109.247 95.5138 108.948C95.5138 108.948 95.5138 108.948 95.6633 108.948L95.2148 109.247Z" fill="#0EDBFF"/>
<path fill-rule="evenodd" clip-rule="evenodd" d="M117.636 89.2179C117.486 89.3674 117.337 89.5169 117.188 89.6663C117.337 89.8158 117.187 90.1147 117.486 90.1147C117.636 90.1147 117.785 89.9653 117.935 89.6663C118.084 89.5169 118.084 89.3674 118.084 89.0684C118.084 88.919 118.084 88.4706 117.935 88.7695L117.636 89.2179Z" fill="#0EDBFF"/>
<path fill-rule="evenodd" clip-rule="evenodd" d="M114.497 37.0528C114.796 37.0528 114.945 36.9033 115.244 36.9033C115.244 36.9033 115.394 36.9033 115.543 36.9033C115.842 36.9033 115.842 36.9033 115.842 37.0528C115.992 37.2023 115.992 37.5012 115.992 37.6507C115.842 38.5475 114.647 37.2023 115.095 36.9033L114.497 37.0528Z" fill="#0EDBFF"/>
<path fill-rule="evenodd" clip-rule="evenodd" d="M19.433 38.6968C18.9846 38.8462 18.3867 38.8462 18.3867 39.2946C18.3867 39.7431 18.9846 40.042 19.2836 40.1915C19.8814 40.3409 20.7782 40.4904 21.0772 39.7431C21.2266 39.2946 21.0772 38.5473 20.9277 38.2483C20.4793 37.501 19.433 37.7999 18.6857 38.0989L19.433 38.6968Z" fill="#0EDBFF"/>
<path fill-rule="evenodd" clip-rule="evenodd" d="M120.327 130.174C120.177 128.828 119.878 127.483 121.074 126.736C121.672 126.287 122.868 126.287 123.615 126.736C124.063 127.035 124.512 127.633 124.661 128.081C125.11 128.828 124.96 128.828 124.811 129.426C124.362 130.921 123.914 131.818 122.569 131.818C120.626 131.818 120.327 130.323 120.327 128.529V130.174Z" fill="#0EDBFF"/>
<path fill-rule="evenodd" clip-rule="evenodd" d="M121.223 92.0578C121.821 91.9083 122.269 91.6094 122.568 91.1609C122.12 90.862 121.372 90.4136 121.223 91.1609V92.0578Z" fill="#0EDBFF"/>
<path fill-rule="evenodd" clip-rule="evenodd" d="M14.0527 126.586C14.6506 126.437 15.099 126.138 15.398 125.689C14.9496 125.39 14.2022 124.942 14.0527 125.689V126.586Z" fill="#0EDBFF"/>
<path fill-rule="evenodd" clip-rule="evenodd" d="M14.0527 137.945C14.6506 137.796 15.099 137.497 15.398 137.049C14.9496 136.75 14.2022 136.301 14.0527 137.049V137.945Z" fill="#0EDBFF"/>
<path fill-rule="evenodd" clip-rule="evenodd" d="M94.1689 97.2894C94.7668 96.6915 95.5142 95.4957 96.411 96.0936C97.0089 96.542 97.1583 97.4388 96.5604 97.8873C96.112 98.1862 95.6636 98.3357 95.0657 98.4851C94.6173 98.6346 94.0194 98.3357 94.1689 97.7378V97.2894Z" fill="#0EDBFF"/>
<path fill-rule="evenodd" clip-rule="evenodd" d="M111.956 126.586C112.554 125.988 113.301 124.793 114.198 125.39C114.796 125.839 114.945 126.736 114.348 127.184C113.899 127.483 113.451 127.633 112.853 127.782C112.404 127.931 111.807 127.633 111.956 127.035V126.586Z" fill="#0EDBFF"/>
<path fill-rule="evenodd" clip-rule="evenodd" d="M109.266 29.4297C110.013 29.5792 111.508 29.5792 111.358 30.7749C111.358 31.3728 110.462 32.1202 109.864 31.8212C109.266 31.5223 108.967 31.2233 108.518 30.7749C108.219 30.476 108.07 29.7286 108.817 29.5792L109.266 29.4297Z" fill="#0EDBFF"/>
<path fill-rule="evenodd" clip-rule="evenodd" d="M106.276 134.209C106.874 133.611 107.622 132.416 108.518 133.014C109.116 133.462 109.266 134.359 108.668 134.807C108.219 135.106 107.771 135.256 107.173 135.405C106.725 135.555 106.127 135.256 106.276 134.658V134.209Z" fill="#0EDBFF"/>
<path fill-rule="evenodd" clip-rule="evenodd" d="M82.0613 96.2428C81.4634 96.6913 80.2676 97.1397 80.1182 98.186C80.1182 98.7838 80.2676 99.0828 80.8655 99.3817C81.3139 99.5312 81.9118 99.5312 82.3602 99.3817C82.9581 99.0828 83.7055 98.4849 84.0044 97.887C84.1539 97.4386 84.1539 97.1397 84.0044 96.6912C83.8549 96.3923 83.7055 96.0934 83.4065 96.0934C82.5097 95.7944 82.0613 96.6913 81.4634 96.9902L82.0613 96.2428Z" fill="#0EDBFF"/>
<path fill-rule="evenodd" clip-rule="evenodd" d="M84.3034 93.8513C84.6024 94.0007 85.0508 94.1502 85.2002 94.4491C84.9013 94.5986 84.4529 94.8976 84.0044 94.7481C83.556 94.5986 83.4066 94.1502 83.5561 93.7018C83.5561 93.4028 84.0045 92.9544 84.3034 93.1039C84.4529 93.1039 84.4529 93.4028 84.4529 93.4028C84.6024 93.7018 84.6024 93.5523 84.4529 93.8513H84.3034Z" fill="#0EDBFF"/>
<path fill-rule="evenodd" clip-rule="evenodd" d="M102.838 89.8157C101.045 91.3104 99.4007 93.2535 98.5039 95.4956C98.0554 96.6913 98.8028 96.6913 99.8491 96.5418C101.792 96.0934 103.885 95.645 105.828 95.0471C107.024 94.7482 108.668 94.1503 109.415 93.104C110.013 92.3567 110.312 91.0114 110.163 90.1146C110.013 88.7694 108.967 88.321 107.771 87.8725C104.931 87.1252 101.045 90.1146 99.9986 92.6556L102.838 89.8157Z" fill="#0EDBFF"/>
<path fill-rule="evenodd" clip-rule="evenodd" d="M92.973 99.9795C93.5708 99.9795 94.0193 100.129 94.6171 100.428C94.4677 100.577 94.4677 100.876 94.4677 101.026C94.3182 101.325 94.0193 101.624 93.8698 101.773C93.4214 102.072 92.674 102.222 92.2256 101.923C90.7309 101.325 92.9729 99.5311 93.5708 100.278L92.973 99.9795Z" fill="#0EDBFF"/>
<path fill-rule="evenodd" clip-rule="evenodd" d="M9.86734 156.63C9.71787 156.779 9.56842 156.929 9.41895 157.228C9.56842 157.527 9.71788 157.676 10.0168 157.826C10.1663 157.826 10.3158 157.826 10.4653 157.826C10.6147 157.676 10.4652 157.527 10.6147 157.377C10.7642 157.078 10.7642 156.929 10.6147 156.63C10.4652 156.481 10.4653 156.331 10.3158 156.331C10.1663 156.331 9.86734 156.331 9.86734 156.481V156.63Z" fill="#0EDBFF"/>
<path fill-rule="evenodd" clip-rule="evenodd" d="M11.0636 164.103C11.0636 164.252 10.6151 165.149 11.0636 164.85C11.3625 164.7 11.213 164.252 11.0636 164.103C11.0636 164.252 11.0636 164.103 11.0636 164.103Z" fill="#0EDBFF"/>
<path fill-rule="evenodd" clip-rule="evenodd" d="M14.6504 157.526C14.7999 157.676 14.9494 157.825 14.9494 158.124C14.6504 158.124 14.6504 157.975 14.6504 157.676C14.6504 157.377 14.7999 157.526 14.9494 157.228C14.9494 157.228 14.9493 157.228 15.0988 157.228L14.6504 157.526Z" fill="#0EDBFF"/>
<path fill-rule="evenodd" clip-rule="evenodd" d="M12.4085 148.259C13.0064 148.259 13.4548 148.408 14.0527 148.707C13.9032 148.857 13.9032 149.156 13.9032 149.305C13.7537 149.604 13.4548 149.903 13.3053 150.052C12.8569 150.351 12.1096 150.501 11.6612 150.202C10.1664 149.604 12.4085 147.81 13.0064 148.558L12.4085 148.259Z" fill="#0EDBFF"/>
<path fill-rule="evenodd" clip-rule="evenodd" d="M106.276 30.775C106.725 31.0739 107.323 31.3729 107.771 31.8213C108.219 32.4192 108.668 32.8676 108.967 33.4655C109.116 33.7644 109.565 34.5118 108.967 34.5118C108.369 34.6612 107.173 33.7644 106.575 33.316C105.678 32.7181 104.931 32.2697 104.333 31.3729C104.034 30.9245 103.586 30.1771 103.885 29.7287C104.184 29.2803 104.483 29.2803 104.931 29.2803C105.379 29.2803 105.678 29.4297 106.127 29.7287C106.276 29.8782 107.173 30.775 106.874 30.9245L106.276 30.775Z" fill="#0EDBFF"/>
<path fill-rule="evenodd" clip-rule="evenodd" d="M112.853 87.2754C112.554 87.4249 110.76 88.4712 111.657 88.9196C112.105 89.2185 113.152 89.069 113.6 88.9196C114.049 88.7701 114.497 88.4712 114.198 88.0227C113.6 86.9764 112.255 87.5743 111.507 88.0227L112.853 87.2754Z" fill="#0EDBFF"/>
<path fill-rule="evenodd" clip-rule="evenodd" d="M126.305 25.8418C125.707 26.2902 120.924 28.8312 123.166 30.027C124.362 30.6249 126.754 30.4754 127.949 29.8775C128.996 29.4291 130.191 28.6817 129.444 27.486C128.099 24.945 124.661 26.4397 122.867 27.486L126.305 25.8418Z" fill="#0EDBFF"/>
<path fill-rule="evenodd" clip-rule="evenodd" d="M14.7998 132.714C14.9493 133.761 15.2482 134.956 16.145 135.704C17.1913 136.451 18.2376 136.152 19.2839 135.554C20.0313 135.106 20.6292 134.657 21.3765 134.209C21.8249 133.91 22.1239 133.91 22.1239 133.312C22.1239 132.714 21.526 131.817 21.227 131.369C20.7786 130.771 19.8818 130.173 19.2839 129.874C17.7892 129.276 14.9493 129.874 14.9493 131.817L14.7998 132.714Z" fill="#0EDBFF"/>
<path fill-rule="evenodd" clip-rule="evenodd" d="M113.75 134.956C113.899 135.703 114.049 136.6 114.647 137.049C115.394 137.646 116.142 137.348 116.889 136.899C117.337 136.6 117.935 136.301 118.384 136.002C118.683 135.853 118.981 135.853 118.981 135.404C118.981 134.956 118.533 134.358 118.384 134.059C118.085 133.611 117.487 133.162 117.038 133.013C115.992 132.564 114.049 133.013 114.049 134.358L113.75 134.956Z" fill="#0EDBFF"/>
<path fill-rule="evenodd" clip-rule="evenodd" d="M96.8584 22.7031C96.8584 22.7031 100.147 36.4544 109.264 41.6859C120.774 48.2626 128.845 46.0206 128.845 46.0206C128.845 46.0206 118.532 45.7216 108.966 39.1449C101.044 33.6145 96.8584 22.7031 96.8584 22.7031Z" fill="url(#paint21_linear_2203_36437)"/>
<path opacity="0.2" fill-rule="evenodd" clip-rule="evenodd" d="M75.1846 129.126L81.3129 120.158C81.3129 120.158 89.2348 142.579 109.563 149.604L105.079 152.444C105.228 152.444 84.3023 146.465 75.1846 129.126Z" fill="black"/>
<path opacity="0.3" fill-rule="evenodd" clip-rule="evenodd" d="M86.8438 29.4297C86.8438 29.4297 116.29 59.0249 137.514 72.1783C137.514 72.1783 135.422 64.1069 129.742 56.6334C129.742 56.7828 111.955 50.9535 86.8438 29.4297Z" fill="black"/>
<defs>
<linearGradient id="paint0_linear_2203_36437" x1="23.6416" y1="57.8984" x2="23.6416" y2="33.3745" gradientUnits="userSpaceOnUse">
<stop stop-color="#9A00B3"/>
<stop offset="1" stop-color="#7F72FF"/>
</linearGradient>
<linearGradient id="paint1_linear_2203_36437" x1="18.2151" y1="59.1407" x2="27.43" y2="31.0086" gradientUnits="userSpaceOnUse">
<stop stop-color="#5B008B"/>
<stop offset="1" stop-color="#8E00FF"/>
</linearGradient>
<radialGradient id="paint2_radial_2203_36437" cx="0" cy="0" r="1" gradientUnits="userSpaceOnUse" gradientTransform="translate(26.8261 62.7703) scale(113.75 113.75)">
<stop offset="0.00558659" stop-color="#60DBFF"/>
<stop offset="0.0937306" stop-color="#60D5FF"/>
<stop offset="0.211" stop-color="#5FC4FF"/>
<stop offset="0.3446" stop-color="#5DA9FF"/>
<stop offset="0.4903" stop-color="#5A82FF"/>
<stop offset="0.6442" stop-color="#5751FF"/>
<stop offset="0.6844" stop-color="#5643FF"/>
<stop offset="0.7432" stop-color="#563DF8"/>
<stop offset="0.8282" stop-color="#552EE5"/>
<stop offset="0.9287" stop-color="#5315C6"/>
<stop offset="1" stop-color="#5200AB"/>
</radialGradient>
<linearGradient id="paint3_linear_2203_36437" x1="-0.131833" y1="76.4643" x2="101.732" y2="76.4643" gradientUnits="userSpaceOnUse">
<stop offset="0.0111732" stop-color="#81E0FF"/>
<stop offset="0.3224" stop-color="#82DDFF"/>
<stop offset="0.5506" stop-color="#86D4FF"/>
<stop offset="0.7523" stop-color="#8BC4FF"/>
<stop offset="0.9375" stop-color="#94ADFF"/>
<stop offset="1" stop-color="#97A4FF"/>
</linearGradient>
<linearGradient id="paint4_linear_2203_36437" x1="0.51587" y1="56.421" x2="89.5718" y2="56.421" gradientUnits="userSpaceOnUse">
<stop stop-color="#B8C2FF"/>
<stop offset="1" stop-color="#7D72B3"/>
</linearGradient>
<linearGradient id="paint5_linear_2203_36437" x1="14.968" y1="122.709" x2="141.495" y2="122.709" gradientUnits="userSpaceOnUse">
<stop stop-color="#B8C2FF"/>
<stop offset="1" stop-color="#7D72B3"/>
</linearGradient>
<linearGradient id="paint6_linear_2203_36437" x1="7.49544" y1="96.538" x2="133.769" y2="96.538" gradientUnits="userSpaceOnUse">
<stop stop-color="#B8C2FF"/>
<stop offset="1" stop-color="#7D72B3"/>
</linearGradient>
<linearGradient id="paint7_linear_2203_36437" x1="-0.128694" y1="78.8925" x2="123.992" y2="78.8925" gradientUnits="userSpaceOnUse">
<stop stop-color="#B8C2FF"/>
<stop offset="1" stop-color="#7D72B3"/>
</linearGradient>
<linearGradient id="paint8_linear_2203_36437" x1="92.0801" y1="70.4705" x2="93.7838" y2="70.4705" gradientUnits="userSpaceOnUse">
<stop stop-color="#E8DDFF"/>
<stop offset="1" stop-color="#AA8AD8"/>
</linearGradient>
<linearGradient id="paint9_linear_2203_36437" x1="77.7148" y1="106.137" x2="83.7731" y2="87.6413" gradientUnits="userSpaceOnUse">
<stop stop-color="#5B008B"/>
<stop offset="1" stop-color="#8E00FF"/>
</linearGradient>
<linearGradient id="paint10_linear_2203_36437" x1="4.3109" y1="100.146" x2="4.66466" y2="100.146" gradientUnits="userSpaceOnUse">
<stop stop-color="#E8DDFF"/>
<stop offset="1" stop-color="#AA8AD8"/>
</linearGradient>
<linearGradient id="paint11_linear_2203_36437" x1="84.2569" y1="39.1186" x2="129.705" y2="39.1186" gradientUnits="userSpaceOnUse">
<stop stop-color="#7F72FF"/>
<stop offset="1" stop-color="#9A00B3"/>
</linearGradient>
<linearGradient id="paint12_linear_2203_36437" x1="94.5808" y1="148.217" x2="117.634" y2="77.8369" gradientUnits="userSpaceOnUse">
<stop stop-color="#280077"/>
<stop offset="1" stop-color="#812CFF"/>
</linearGradient>
<linearGradient id="paint13_linear_2203_36437" x1="101.181" y1="146.785" x2="123.173" y2="79.6505" gradientUnits="userSpaceOnUse">
<stop stop-color="#7A00B3"/>
<stop offset="1" stop-color="#B136FF"/>
</linearGradient>
<linearGradient id="paint14_linear_2203_36437" x1="108.756" y1="127.527" x2="108.756" y2="78.8985" gradientUnits="userSpaceOnUse">
<stop stop-color="#8E00B3"/>
<stop offset="1" stop-color="#E05CFF"/>
</linearGradient>
<linearGradient id="paint15_linear_2203_36437" x1="22.7661" y1="147.474" x2="32.2889" y2="118.401" gradientUnits="userSpaceOnUse">
<stop stop-color="#280077"/>
<stop offset="1" stop-color="#812CFF"/>
</linearGradient>
<linearGradient id="paint16_linear_2203_36437" x1="80.9918" y1="172.677" x2="80.9918" y2="160.083" gradientUnits="userSpaceOnUse">
<stop stop-color="#7A00B3"/>
<stop offset="0.9162" stop-color="#7006FC"/>
<stop offset="1" stop-color="#7006F9"/>
</linearGradient>
<linearGradient id="paint17_linear_2203_36437" x1="23.3367" y1="152.12" x2="23.3367" y2="115.921" gradientUnits="userSpaceOnUse">
<stop stop-color="#7A00B3"/>
<stop offset="1" stop-color="#B136FF"/>
</linearGradient>
<linearGradient id="paint18_linear_2203_36437" x1="25.2336" y1="152.105" x2="25.2336" y2="115.921" gradientUnits="userSpaceOnUse">
<stop stop-color="#8E00B3"/>
<stop offset="1" stop-color="#E05CFF"/>
</linearGradient>
<linearGradient id="paint19_linear_2203_36437" x1="79.5722" y1="102.991" x2="84.583" y2="87.6929" gradientUnits="userSpaceOnUse">
<stop stop-color="#A400CA"/>
<stop offset="1" stop-color="#B136FF"/>
</linearGradient>
<linearGradient id="paint20_linear_2203_36437" x1="104.692" y1="48.5559" x2="111.923" y2="26.4785" gradientUnits="userSpaceOnUse">
<stop stop-color="#5B008B"/>
<stop offset="1" stop-color="#8E00FF"/>
</linearGradient>
<linearGradient id="paint21_linear_2203_36437" x1="112.913" y1="46.3947" x2="112.913" y2="22.719" gradientUnits="userSpaceOnUse">
<stop stop-color="#B000D9"/>
<stop offset="1" stop-color="#E05CFF"/>
</linearGradient>
</defs>
</svg>
