<svg width="846" height="999" viewBox="0 0 846 999" fill="none" xmlns="http://www.w3.org/2000/svg">
<g opacity="0.2">
<path d="M199.224 1V588.96L-77 699.247" stroke="#C5BCFF" stroke-linecap="round" stroke-linejoin="round"/>
<path d="M243.963 1V588.96L-77 749.136" stroke="#C5BCFF" stroke-linecap="round" stroke-linejoin="round"/>
<path d="M288.701 1V588.96L-77 832.26" stroke="#C5BCFF" stroke-linecap="round" stroke-linejoin="round"/>
<path d="M333.445 1V588.96L-76.7852 998.228" stroke="#C5BCFF" stroke-linecap="round" stroke-linejoin="round"/>
<path d="M378.179 1V588.96L172.888 998.228" stroke="#C5BCFF" stroke-linecap="round" stroke-linejoin="round"/>
<path d="M422.92 1V588.96L422.57 998.228" stroke="#C5BCFF" stroke-linecap="round" stroke-linejoin="round"/>
<path d="M467.66 1V588.96L672.244 998.228" stroke="#C5BCFF" stroke-linecap="round" stroke-linejoin="round"/>
<path d="M512.398 1V588.96L921.921 998.228" stroke="#C5BCFF" stroke-linecap="round" stroke-linejoin="round"/>
<path d="M557.142 1V588.96L922.999 832.642" stroke="#C5BCFF" stroke-linecap="round" stroke-linejoin="round"/>
<path d="M601.881 1V588.96L923 749.349" stroke="#C5BCFF" stroke-linecap="round" stroke-linejoin="round"/>
<path d="M646.617 1V588.96L922.996 699.386" stroke="#C5BCFF" stroke-linecap="round" stroke-linejoin="round"/>
<path d="M691.36 1V588.96L922.998 666.08" stroke="#C5BCFF" stroke-linecap="round" stroke-linejoin="round"/>
<path d="M736.096 1V588.96L922.996 642.294" stroke="#C5BCFF" stroke-linecap="round" stroke-linejoin="round"/>
<path d="M780.836 1V588.96L922.999 624.455" stroke="#C5BCFF" stroke-linecap="round" stroke-linejoin="round"/>
<path d="M825.579 1V588.96L922.999 610.58" stroke="#C5BCFF" stroke-linecap="round" stroke-linejoin="round"/>
<path d="M-77 642.222L109.745 588.96V1" stroke="#C5BCFF" stroke-linecap="round" stroke-linejoin="round"/>
<path d="M154.483 1V588.96L-77 665.984" stroke="#C5BCFF" stroke-linecap="round" stroke-linejoin="round"/>
<path d="M65.0083 1V588.96L-77 624.403" stroke="#C5BCFF" stroke-linecap="round" stroke-linejoin="round"/>
<path d="M20.2659 1V588.96L-76.998 610.536" stroke="#C5BCFF" stroke-linecap="round" stroke-linejoin="round"/>
<path d="M-77 544.346H922.998" stroke="#C5BCFF" stroke-linecap="round" stroke-linejoin="round"/>
<path d="M-77 499.727H922.998" stroke="#C5BCFF" stroke-linecap="round" stroke-linejoin="round"/>
<path d="M-77 455.114H922.998" stroke="#C5BCFF" stroke-linecap="round" stroke-linejoin="round"/>
<path d="M-77 410.5H922.998" stroke="#C5BCFF" stroke-linecap="round" stroke-linejoin="round"/>
<path d="M-77 365.881H922.998" stroke="#C5BCFF" stroke-linecap="round" stroke-linejoin="round"/>
<path d="M-77 321.267H922.998" stroke="#C5BCFF" stroke-linecap="round" stroke-linejoin="round"/>
<path d="M-77 276.654H922.998" stroke="#C5BCFF" stroke-linecap="round" stroke-linejoin="round"/>
<path d="M-77 232.035H922.998" stroke="#C5BCFF" stroke-linecap="round" stroke-linejoin="round"/>
<path d="M-77 187.421H922.998" stroke="#C5BCFF" stroke-linecap="round" stroke-linejoin="round"/>
<path d="M-77 142.807H922.998" stroke="#C5BCFF" stroke-linecap="round" stroke-linejoin="round"/>
<path d="M-77 98.1881H922.998" stroke="#C5BCFF" stroke-linecap="round" stroke-linejoin="round"/>
<path d="M-77 53.5748H922.998" stroke="#C5BCFF" stroke-linecap="round" stroke-linejoin="round"/>
<path d="M-77 8.95668H922.998" stroke="#C5BCFF" stroke-linecap="round" stroke-linejoin="round"/>
<path d="M922.998 785.248H-77" stroke="#C5BCFF" stroke-linecap="round" stroke-linejoin="round"/>
<path d="M922.998 750.762H-77" stroke="#C5BCFF" stroke-linecap="round" stroke-linejoin="round"/>
<path d="M922.998 723.71H-77" stroke="#C5BCFF" stroke-linecap="round" stroke-linejoin="round"/>
<path d="M922.998 830.708H-77" stroke="#C5BCFF" stroke-linecap="round" stroke-linejoin="round"/>
<path d="M922.998 701.917H-77" stroke="#C5BCFF" stroke-linecap="round" stroke-linejoin="round"/>
<path d="M922.998 683.986H-77" stroke="#C5BCFF" stroke-linecap="round" stroke-linejoin="round"/>
<path d="M922.998 592.969H-77" stroke="#C5BCFF" stroke-linecap="round" stroke-linejoin="round"/>
<path d="M922.998 588.96H-77" stroke="#C5BCFF" stroke-linecap="round" stroke-linejoin="round"/>
<path d="M922.998 602.173H-77" stroke="#C5BCFF" stroke-linecap="round" stroke-linejoin="round"/>
<path d="M922.998 597.356H-77" stroke="#C5BCFF" stroke-linecap="round" stroke-linejoin="round"/>
<path d="M922.998 645.259H-77" stroke="#C5BCFF" stroke-linecap="round" stroke-linejoin="round"/>
<path d="M922.998 668.974H-77" stroke="#C5BCFF" stroke-linecap="round" stroke-linejoin="round"/>
<path d="M922.998 893.382H-77" stroke="#C5BCFF" stroke-linecap="round" stroke-linejoin="round"/>
<path d="M922.998 613.395H-77" stroke="#C5BCFF" stroke-linecap="round" stroke-linejoin="round"/>
<path d="M922.998 607.494H-77" stroke="#C5BCFF" stroke-linecap="round" stroke-linejoin="round"/>
<path d="M922.998 635.731H-77" stroke="#C5BCFF" stroke-linecap="round" stroke-linejoin="round"/>
<path d="M922.998 627.368H-77" stroke="#C5BCFF" stroke-linecap="round" stroke-linejoin="round"/>
<path d="M922.998 619.977H-77" stroke="#C5BCFF" stroke-linecap="round" stroke-linejoin="round"/>
<path d="M922.998 656.224H-77" stroke="#C5BCFF" stroke-linecap="round" stroke-linejoin="round"/>
<path d="M921.924 998.228H-76.7842" stroke="#C5BCFF" stroke-linecap="round" stroke-linejoin="round"/>
</g>
</svg>
