<svg width="78" height="78" viewBox="0 0 78 78" fill="none" xmlns="http://www.w3.org/2000/svg">
<g filter="url(#filter0_d_2710_164)">
<rect x="4" width="70" height="70" rx="8" fill="#191A29"/>
<rect x="4.5" y="0.5" width="69" height="69" rx="7.5" stroke="#32334A"/>
<path d="M48.8806 22.4732H51.6628C51.5779 21.047 51.2641 19.6438 50.7335 18.3175L48.2908 19.7297C48.6024 20.5973 48.8069 21.5165 48.8806 22.4732ZM44.0356 11.2247C42.6836 10.5801 41.232 10.1704 39.7427 10.0131V12.8277C40.7431 12.9584 41.7195 13.2328 42.6417 13.6424L44.0356 11.2247ZM47.0138 17.2508L49.4357 15.8511C48.6097 14.6316 47.589 13.5565 46.4143 12.6689L45.0149 15.0949C45.7779 15.7172 46.4506 16.4428 47.0138 17.2508ZM38.3503 33.8917C35.5464 33.8917 32.8574 32.7766 30.8747 30.7916C28.8921 28.8067 27.7782 26.1146 27.7782 23.3074C27.7782 18.3648 31.1651 14.2235 35.7403 13.0608C36.4296 12.8856 36.9606 12.2946 36.9606 11.5834C36.9606 10.7429 36.2298 10.0809 35.4098 10.2654C29.4486 11.6064 24.9961 16.9358 24.9961 23.3074C24.9959 25.0634 25.3412 26.8022 26.0124 28.4245C26.6835 30.0468 27.6672 31.5209 28.9074 32.7625C30.1477 34.0042 31.62 34.9891 33.2405 35.661C34.861 36.3328 36.5978 36.6786 38.3517 36.6784C44.4958 36.6784 49.6592 32.5185 51.212 26.8595C51.4403 26.0277 50.7737 25.2586 49.9111 25.2586C49.2299 25.2586 48.6553 25.7482 48.4567 26.3998C47.1357 30.7355 43.1134 33.8917 38.3503 33.8917Z" fill="#38D9A9"/>
<circle cx="38.5" cy="23.5" r="4.5" fill="#38D9A9"/>
<path d="M21.618 57H20.718C20.614 57 20.53 56.974 20.466 56.922C20.402 56.87 20.354 56.804 20.322 56.724L19.518 54.648H15.66L14.856 56.724C14.828 56.796 14.78 56.86 14.712 56.916C14.644 56.972 14.56 57 14.46 57H13.56L16.998 48.402H18.18L21.618 57ZM15.984 53.808H19.194L17.844 50.31C17.756 50.094 17.67 49.824 17.586 49.5C17.542 49.664 17.498 49.816 17.454 49.956C17.414 50.092 17.374 50.212 17.334 50.316L15.984 53.808ZM26.0123 51.924C25.9643 52.012 25.8903 52.056 25.7903 52.056C25.7303 52.056 25.6623 52.034 25.5863 51.99C25.5103 51.946 25.4163 51.898 25.3043 51.846C25.1963 51.79 25.0663 51.74 24.9143 51.696C24.7623 51.648 24.5822 51.624 24.3743 51.624C24.1943 51.624 24.0323 51.648 23.8883 51.696C23.7443 51.74 23.6203 51.802 23.5163 51.882C23.4163 51.962 23.3383 52.056 23.2823 52.164C23.2303 52.268 23.2043 52.382 23.2043 52.506C23.2043 52.662 23.2483 52.792 23.3363 52.896C23.4283 53 23.5483 53.09 23.6963 53.166C23.8443 53.242 24.0123 53.31 24.2003 53.37C24.3883 53.426 24.5803 53.488 24.7763 53.556C24.9763 53.62 25.1703 53.692 25.3583 53.772C25.5463 53.852 25.7143 53.952 25.8623 54.072C26.0103 54.192 26.1283 54.34 26.2163 54.516C26.3083 54.688 26.3543 54.896 26.3543 55.14C26.3543 55.42 26.3043 55.68 26.2043 55.92C26.1043 56.156 25.9563 56.362 25.7603 56.538C25.5643 56.71 25.3243 56.846 25.0403 56.946C24.7563 57.046 24.4283 57.096 24.0563 57.096C23.6323 57.096 23.2483 57.028 22.9043 56.892C22.5603 56.752 22.2683 56.574 22.0283 56.358L22.2803 55.95C22.3123 55.898 22.3503 55.858 22.3943 55.83C22.4383 55.802 22.4963 55.788 22.5683 55.788C22.6403 55.788 22.7163 55.816 22.7963 55.872C22.8763 55.928 22.9723 55.99 23.0843 56.058C23.2003 56.126 23.3383 56.188 23.4983 56.244C23.6623 56.3 23.8663 56.328 24.1103 56.328C24.3183 56.328 24.5003 56.302 24.6562 56.25C24.8123 56.194 24.9423 56.12 25.0462 56.028C25.1503 55.936 25.2263 55.83 25.2743 55.71C25.3263 55.59 25.3523 55.462 25.3523 55.326C25.3523 55.158 25.3063 55.02 25.2143 54.912C25.1263 54.8 25.0083 54.706 24.8603 54.63C24.7123 54.55 24.5423 54.482 24.3503 54.426C24.1623 54.366 23.9683 54.304 23.7683 54.24C23.5723 54.176 23.3783 54.104 23.1863 54.024C22.9983 53.94 22.8303 53.836 22.6823 53.712C22.5343 53.588 22.4143 53.436 22.3223 53.256C22.2343 53.072 22.1903 52.85 22.1903 52.59C22.1903 52.358 22.2383 52.136 22.3343 51.924C22.4303 51.708 22.5703 51.52 22.7543 51.36C22.9383 51.196 23.1643 51.066 23.4323 50.97C23.7003 50.874 24.0063 50.826 24.3503 50.826C24.7503 50.826 25.1083 50.89 25.4243 51.018C25.7443 51.142 26.0203 51.314 26.2523 51.534L26.0123 51.924ZM29.5774 57.096C29.0974 57.096 28.7274 56.962 28.4674 56.694C28.2114 56.426 28.0834 56.04 28.0834 55.536V51.816H27.3514C27.2874 51.816 27.2334 51.798 27.1894 51.762C27.1454 51.722 27.1234 51.662 27.1234 51.582V51.156L28.1194 51.03L28.3654 49.152C28.3734 49.092 28.3994 49.044 28.4434 49.008C28.4874 48.968 28.5434 48.948 28.6114 48.948H29.1514V51.042H30.8914V51.816H29.1514V55.464C29.1514 55.72 29.2134 55.91 29.3374 56.034C29.4614 56.158 29.6214 56.22 29.8174 56.22C29.9294 56.22 30.0254 56.206 30.1054 56.178C30.1894 56.146 30.2614 56.112 30.3214 56.076C30.3814 56.04 30.4314 56.008 30.4714 55.98C30.5154 55.948 30.5534 55.932 30.5854 55.932C30.6414 55.932 30.6914 55.966 30.7354 56.034L31.0474 56.544C30.8634 56.716 30.6414 56.852 30.3814 56.952C30.1214 57.048 29.8534 57.096 29.5774 57.096ZM34.6179 50.826C34.9819 50.826 35.3179 50.888 35.6259 51.012C35.9339 51.132 36.1999 51.308 36.4239 51.54C36.6479 51.768 36.8219 52.052 36.9459 52.392C37.0739 52.728 37.1379 53.112 37.1379 53.544C37.1379 53.712 37.1199 53.824 37.0839 53.88C37.0479 53.936 36.9799 53.964 36.8799 53.964H32.8359C32.8439 54.348 32.8959 54.682 32.9919 54.966C33.0879 55.25 33.2199 55.488 33.3879 55.68C33.5559 55.868 33.7559 56.01 33.9879 56.106C34.2199 56.198 34.4799 56.244 34.7679 56.244C35.0359 56.244 35.2659 56.214 35.4579 56.154C35.6539 56.09 35.8219 56.022 35.9619 55.95C36.1019 55.878 36.2179 55.812 36.3099 55.752C36.4059 55.688 36.4879 55.656 36.5559 55.656C36.6439 55.656 36.7119 55.69 36.7599 55.758L37.0599 56.148C36.9279 56.308 36.7699 56.448 36.5859 56.568C36.4019 56.684 36.2039 56.78 35.9919 56.856C35.7839 56.932 35.5679 56.988 35.3439 57.024C35.1199 57.064 34.8979 57.084 34.6779 57.084C34.2579 57.084 33.8699 57.014 33.5139 56.874C33.1619 56.73 32.8559 56.522 32.5959 56.25C32.3399 55.974 32.1399 55.634 31.9959 55.23C31.8519 54.826 31.7799 54.362 31.7799 53.838C31.7799 53.414 31.8439 53.018 31.9719 52.65C32.1039 52.282 32.2919 51.964 32.5359 51.696C32.7799 51.424 33.0779 51.212 33.4299 51.06C33.7819 50.904 34.1779 50.826 34.6179 50.826ZM34.6419 51.612C34.1259 51.612 33.7199 51.762 33.4239 52.062C33.1279 52.358 32.9439 52.77 32.8719 53.298H36.1779C36.1779 53.05 36.1439 52.824 36.0759 52.62C36.0079 52.412 35.9079 52.234 35.7759 52.086C35.6439 51.934 35.4819 51.818 35.2899 51.738C35.1019 51.654 34.8859 51.612 34.6419 51.612ZM38.5049 57V50.922H39.1169C39.2329 50.922 39.3129 50.944 39.3569 50.988C39.4009 51.032 39.4309 51.108 39.4469 51.216L39.5189 52.164C39.7269 51.74 39.9829 51.41 40.2869 51.174C40.5949 50.934 40.9549 50.814 41.3669 50.814C41.5349 50.814 41.6869 50.834 41.8229 50.874C41.9589 50.91 42.0849 50.962 42.2009 51.03L42.0629 51.828C42.0349 51.928 41.9729 51.978 41.8769 51.978C41.8209 51.978 41.7349 51.96 41.6189 51.924C41.5029 51.884 41.3409 51.864 41.1329 51.864C40.7609 51.864 40.4489 51.972 40.1969 52.188C39.9489 52.404 39.7409 52.718 39.5729 53.13V57H38.5049ZM45.8048 50.826C46.2488 50.826 46.6488 50.9 47.0048 51.048C47.3648 51.196 47.6688 51.406 47.9168 51.678C48.1688 51.95 48.3608 52.28 48.4928 52.668C48.6288 53.052 48.6968 53.482 48.6968 53.958C48.6968 54.438 48.6288 54.87 48.4928 55.254C48.3608 55.638 48.1688 55.966 47.9168 56.238C47.6688 56.51 47.3648 56.72 47.0048 56.868C46.6488 57.012 46.2488 57.084 45.8048 57.084C45.3608 57.084 44.9588 57.012 44.5988 56.868C44.2428 56.72 43.9388 56.51 43.6868 56.238C43.4348 55.966 43.2408 55.638 43.1048 55.254C42.9688 54.87 42.9008 54.438 42.9008 53.958C42.9008 53.482 42.9688 53.052 43.1048 52.668C43.2408 52.28 43.4348 51.95 43.6868 51.678C43.9388 51.406 44.2428 51.196 44.5988 51.048C44.9588 50.9 45.3608 50.826 45.8048 50.826ZM45.8048 56.25C46.4048 56.25 46.8528 56.05 47.1488 55.65C47.4448 55.246 47.5928 54.684 47.5928 53.964C47.5928 53.24 47.4448 52.676 47.1488 52.272C46.8528 51.868 46.4048 51.666 45.8048 51.666C45.5008 51.666 45.2368 51.718 45.0128 51.822C44.7888 51.926 44.6008 52.076 44.4488 52.272C44.3008 52.468 44.1888 52.71 44.1128 52.998C44.0408 53.282 44.0048 53.604 44.0048 53.964C44.0048 54.324 44.0408 54.646 44.1128 54.93C44.1888 55.214 44.3008 55.454 44.4488 55.65C44.6008 55.842 44.7888 55.99 45.0128 56.094C45.2368 56.198 45.5008 56.25 45.8048 56.25ZM51.2007 50.922V57H50.1327V50.922H51.2007ZM51.4407 49.014C51.4407 49.118 51.4187 49.216 51.3747 49.308C51.3347 49.396 51.2787 49.476 51.2067 49.548C51.1387 49.616 51.0587 49.67 50.9667 49.71C50.8747 49.75 50.7767 49.77 50.6727 49.77C50.5687 49.77 50.4707 49.75 50.3787 49.71C50.2907 49.67 50.2107 49.616 50.1387 49.548C50.0707 49.476 50.0167 49.396 49.9767 49.308C49.9367 49.216 49.9167 49.118 49.9167 49.014C49.9167 48.91 49.9367 48.812 49.9767 48.72C50.0167 48.624 50.0707 48.542 50.1387 48.474C50.2107 48.402 50.2907 48.346 50.3787 48.306C50.4707 48.266 50.5687 48.246 50.6727 48.246C50.7767 48.246 50.8747 48.266 50.9667 48.306C51.0587 48.346 51.1387 48.402 51.2067 48.474C51.2787 48.542 51.3347 48.624 51.3747 48.72C51.4187 48.812 51.4407 48.91 51.4407 49.014ZM57.361 57C57.209 57 57.113 56.926 57.073 56.778L56.977 56.04C56.717 56.356 56.419 56.61 56.083 56.802C55.751 56.99 55.369 57.084 54.937 57.084C54.589 57.084 54.273 57.018 53.989 56.886C53.705 56.75 53.463 56.552 53.263 56.292C53.063 56.032 52.909 55.708 52.801 55.32C52.693 54.932 52.639 54.486 52.639 53.982C52.639 53.534 52.699 53.118 52.819 52.734C52.939 52.346 53.111 52.01 53.335 51.726C53.563 51.442 53.839 51.22 54.163 51.06C54.487 50.896 54.855 50.814 55.267 50.814C55.639 50.814 55.957 50.878 56.221 51.006C56.485 51.13 56.721 51.306 56.929 51.534V48.162H57.997V57H57.361ZM55.291 56.22C55.639 56.22 55.943 56.14 56.203 55.98C56.467 55.82 56.709 55.594 56.929 55.302V52.362C56.733 52.098 56.517 51.914 56.281 51.81C56.049 51.702 55.791 51.648 55.507 51.648C54.939 51.648 54.503 51.85 54.199 52.254C53.895 52.658 53.743 53.234 53.743 53.982C53.743 54.378 53.777 54.718 53.845 55.002C53.913 55.282 54.013 55.514 54.145 55.698C54.277 55.878 54.439 56.01 54.631 56.094C54.823 56.178 55.043 56.22 55.291 56.22ZM63.2662 51.924C63.2182 52.012 63.1442 52.056 63.0442 52.056C62.9842 52.056 62.9162 52.034 62.8402 51.99C62.7642 51.946 62.6702 51.898 62.5582 51.846C62.4502 51.79 62.3202 51.74 62.1682 51.696C62.0162 51.648 61.8362 51.624 61.6282 51.624C61.4482 51.624 61.2862 51.648 61.1422 51.696C60.9982 51.74 60.8742 51.802 60.7702 51.882C60.6702 51.962 60.5922 52.056 60.5362 52.164C60.4842 52.268 60.4582 52.382 60.4582 52.506C60.4582 52.662 60.5022 52.792 60.5902 52.896C60.6822 53 60.8022 53.09 60.9502 53.166C61.0982 53.242 61.2662 53.31 61.4542 53.37C61.6422 53.426 61.8342 53.488 62.0302 53.556C62.2302 53.62 62.4242 53.692 62.6122 53.772C62.8002 53.852 62.9682 53.952 63.1162 54.072C63.2642 54.192 63.3822 54.34 63.4702 54.516C63.5622 54.688 63.6082 54.896 63.6082 55.14C63.6082 55.42 63.5582 55.68 63.4582 55.92C63.3582 56.156 63.2102 56.362 63.0142 56.538C62.8182 56.71 62.5782 56.846 62.2942 56.946C62.0102 57.046 61.6822 57.096 61.3102 57.096C60.8862 57.096 60.5022 57.028 60.1582 56.892C59.8142 56.752 59.5222 56.574 59.2822 56.358L59.5342 55.95C59.5662 55.898 59.6042 55.858 59.6482 55.83C59.6922 55.802 59.7502 55.788 59.8222 55.788C59.8942 55.788 59.9702 55.816 60.0502 55.872C60.1302 55.928 60.2262 55.99 60.3382 56.058C60.4542 56.126 60.5922 56.188 60.7522 56.244C60.9162 56.3 61.1202 56.328 61.3642 56.328C61.5722 56.328 61.7542 56.302 61.9102 56.25C62.0662 56.194 62.1962 56.12 62.3002 56.028C62.4042 55.936 62.4802 55.83 62.5282 55.71C62.5802 55.59 62.6062 55.462 62.6062 55.326C62.6062 55.158 62.5602 55.02 62.4682 54.912C62.3802 54.8 62.2622 54.706 62.1142 54.63C61.9662 54.55 61.7962 54.482 61.6042 54.426C61.4162 54.366 61.2222 54.304 61.0222 54.24C60.8262 54.176 60.6322 54.104 60.4402 54.024C60.2522 53.94 60.0842 53.836 59.9362 53.712C59.7882 53.588 59.6682 53.436 59.5762 53.256C59.4882 53.072 59.4442 52.85 59.4442 52.59C59.4442 52.358 59.4922 52.136 59.5882 51.924C59.6842 51.708 59.8242 51.52 60.0082 51.36C60.1922 51.196 60.4182 51.066 60.6862 50.97C60.9542 50.874 61.2602 50.826 61.6042 50.826C62.0042 50.826 62.3622 50.89 62.6782 51.018C62.9982 51.142 63.2742 51.314 63.5062 51.534L63.2662 51.924Z" fill="#9499C3"/>
</g>
<defs>
<filter id="filter0_d_2710_164" x="0" y="0" width="78" height="78" filterUnits="userSpaceOnUse" color-interpolation-filters="sRGB">
<feFlood flood-opacity="0" result="BackgroundImageFix"/>
<feColorMatrix in="SourceAlpha" type="matrix" values="0 0 0 0 0 0 0 0 0 0 0 0 0 0 0 0 0 0 127 0" result="hardAlpha"/>
<feOffset dy="4"/>
<feGaussianBlur stdDeviation="2"/>
<feColorMatrix type="matrix" values="0 0 0 0 0 0 0 0 0 0 0 0 0 0 0 0 0 0 0.25 0"/>
<feBlend mode="normal" in2="BackgroundImageFix" result="effect1_dropShadow_2710_164"/>
<feBlend mode="normal" in="SourceGraphic" in2="effect1_dropShadow_2710_164" result="shape"/>
</filter>
</defs>
</svg>
