<svg width="70" height="70" viewBox="0 0 70 70" fill="none" xmlns="http://www.w3.org/2000/svg">
<path d="M44.8806 22.4732H47.6628C47.5779 21.047 47.2641 19.6438 46.7335 18.3175L44.2908 19.7297C44.6024 20.5973 44.8069 21.5165 44.8806 22.4732ZM40.0356 11.2247C38.6836 10.5801 37.232 10.1704 35.7427 10.0131V12.8277C36.7431 12.9584 37.7195 13.2328 38.6417 13.6424L40.0356 11.2247ZM43.0138 17.2508L45.4357 15.8511C44.6097 14.6316 43.589 13.5565 42.4143 12.6689L41.0149 15.0949C41.7779 15.7172 42.4506 16.4428 43.0138 17.2508ZM34.3503 33.8917C31.5464 33.8917 28.8574 32.7766 26.8747 30.7916C24.8921 28.8067 23.7782 26.1146 23.7782 23.3074C23.7782 18.3648 27.1651 14.2235 31.7403 13.0608C32.4296 12.8856 32.9606 12.2946 32.9606 11.5834C32.9606 10.7429 32.2298 10.0809 31.4098 10.2654C25.4486 11.6064 20.9961 16.9358 20.9961 23.3074C20.9959 25.0634 21.3412 26.8022 22.0124 28.4245C22.6835 30.0468 23.6672 31.5209 24.9074 32.7625C26.1477 34.0042 27.62 34.9891 29.2405 35.661C30.861 36.3328 32.5978 36.6786 34.3517 36.6784C40.4958 36.6784 45.6592 32.5185 47.212 26.8595C47.4403 26.0277 46.7737 25.2586 45.9111 25.2586C45.2299 25.2586 44.6553 25.7482 44.4567 26.3998C43.1357 30.7355 39.1134 33.8917 34.3503 33.8917Z" fill="white"/>
<circle cx="34.5" cy="23.5" r="4.5" fill="white"/>
<path d="M17.618 57H16.718C16.614 57 16.53 56.974 16.466 56.922C16.402 56.87 16.354 56.804 16.322 56.724L15.518 54.648H11.66L10.856 56.724C10.828 56.796 10.78 56.86 10.712 56.916C10.644 56.972 10.56 57 10.46 57H9.56L12.998 48.402H14.18L17.618 57ZM11.984 53.808H15.194L13.844 50.31C13.756 50.094 13.67 49.824 13.586 49.5C13.542 49.664 13.498 49.816 13.454 49.956C13.414 50.092 13.374 50.212 13.334 50.316L11.984 53.808ZM22.0123 51.924C21.9643 52.012 21.8903 52.056 21.7903 52.056C21.7303 52.056 21.6623 52.034 21.5863 51.99C21.5103 51.946 21.4163 51.898 21.3043 51.846C21.1963 51.79 21.0663 51.74 20.9143 51.696C20.7623 51.648 20.5822 51.624 20.3743 51.624C20.1943 51.624 20.0323 51.648 19.8883 51.696C19.7443 51.74 19.6203 51.802 19.5163 51.882C19.4163 51.962 19.3383 52.056 19.2823 52.164C19.2303 52.268 19.2043 52.382 19.2043 52.506C19.2043 52.662 19.2483 52.792 19.3363 52.896C19.4283 53 19.5483 53.09 19.6963 53.166C19.8443 53.242 20.0123 53.31 20.2003 53.37C20.3883 53.426 20.5803 53.488 20.7763 53.556C20.9763 53.62 21.1703 53.692 21.3583 53.772C21.5463 53.852 21.7143 53.952 21.8623 54.072C22.0103 54.192 22.1283 54.34 22.2163 54.516C22.3083 54.688 22.3543 54.896 22.3543 55.14C22.3543 55.42 22.3043 55.68 22.2043 55.92C22.1043 56.156 21.9563 56.362 21.7603 56.538C21.5643 56.71 21.3243 56.846 21.0403 56.946C20.7563 57.046 20.4283 57.096 20.0563 57.096C19.6323 57.096 19.2483 57.028 18.9043 56.892C18.5603 56.752 18.2683 56.574 18.0283 56.358L18.2803 55.95C18.3123 55.898 18.3503 55.858 18.3943 55.83C18.4383 55.802 18.4963 55.788 18.5683 55.788C18.6403 55.788 18.7163 55.816 18.7963 55.872C18.8763 55.928 18.9723 55.99 19.0843 56.058C19.2003 56.126 19.3383 56.188 19.4983 56.244C19.6623 56.3 19.8663 56.328 20.1103 56.328C20.3183 56.328 20.5003 56.302 20.6562 56.25C20.8123 56.194 20.9423 56.12 21.0462 56.028C21.1503 55.936 21.2263 55.83 21.2743 55.71C21.3263 55.59 21.3523 55.462 21.3523 55.326C21.3523 55.158 21.3063 55.02 21.2143 54.912C21.1263 54.8 21.0083 54.706 20.8603 54.63C20.7123 54.55 20.5423 54.482 20.3503 54.426C20.1623 54.366 19.9683 54.304 19.7683 54.24C19.5723 54.176 19.3783 54.104 19.1863 54.024C18.9983 53.94 18.8303 53.836 18.6823 53.712C18.5343 53.588 18.4143 53.436 18.3223 53.256C18.2343 53.072 18.1903 52.85 18.1903 52.59C18.1903 52.358 18.2383 52.136 18.3343 51.924C18.4303 51.708 18.5703 51.52 18.7543 51.36C18.9383 51.196 19.1643 51.066 19.4323 50.97C19.7003 50.874 20.0063 50.826 20.3503 50.826C20.7503 50.826 21.1083 50.89 21.4243 51.018C21.7443 51.142 22.0203 51.314 22.2523 51.534L22.0123 51.924ZM25.5774 57.096C25.0974 57.096 24.7274 56.962 24.4674 56.694C24.2114 56.426 24.0834 56.04 24.0834 55.536V51.816H23.3514C23.2874 51.816 23.2334 51.798 23.1894 51.762C23.1454 51.722 23.1234 51.662 23.1234 51.582V51.156L24.1194 51.03L24.3654 49.152C24.3734 49.092 24.3994 49.044 24.4434 49.008C24.4874 48.968 24.5434 48.948 24.6114 48.948H25.1514V51.042H26.8914V51.816H25.1514V55.464C25.1514 55.72 25.2134 55.91 25.3374 56.034C25.4614 56.158 25.6214 56.22 25.8174 56.22C25.9294 56.22 26.0254 56.206 26.1054 56.178C26.1894 56.146 26.2614 56.112 26.3214 56.076C26.3814 56.04 26.4314 56.008 26.4714 55.98C26.5154 55.948 26.5534 55.932 26.5854 55.932C26.6414 55.932 26.6914 55.966 26.7354 56.034L27.0474 56.544C26.8634 56.716 26.6414 56.852 26.3814 56.952C26.1214 57.048 25.8534 57.096 25.5774 57.096ZM30.6179 50.826C30.9819 50.826 31.3179 50.888 31.6259 51.012C31.9339 51.132 32.1999 51.308 32.4239 51.54C32.6479 51.768 32.8219 52.052 32.9459 52.392C33.0739 52.728 33.1379 53.112 33.1379 53.544C33.1379 53.712 33.1199 53.824 33.0839 53.88C33.0479 53.936 32.9799 53.964 32.8799 53.964H28.8359C28.8439 54.348 28.8959 54.682 28.9919 54.966C29.0879 55.25 29.2199 55.488 29.3879 55.68C29.5559 55.868 29.7559 56.01 29.9879 56.106C30.2199 56.198 30.4799 56.244 30.7679 56.244C31.0359 56.244 31.2659 56.214 31.4579 56.154C31.6539 56.09 31.8219 56.022 31.9619 55.95C32.1019 55.878 32.2179 55.812 32.3099 55.752C32.4059 55.688 32.4879 55.656 32.5559 55.656C32.6439 55.656 32.7119 55.69 32.7599 55.758L33.0599 56.148C32.9279 56.308 32.7699 56.448 32.5859 56.568C32.4019 56.684 32.2039 56.78 31.9919 56.856C31.7839 56.932 31.5679 56.988 31.3439 57.024C31.1199 57.064 30.8979 57.084 30.6779 57.084C30.2579 57.084 29.8699 57.014 29.5139 56.874C29.1619 56.73 28.8559 56.522 28.5959 56.25C28.3399 55.974 28.1399 55.634 27.9959 55.23C27.8519 54.826 27.7799 54.362 27.7799 53.838C27.7799 53.414 27.8439 53.018 27.9719 52.65C28.1039 52.282 28.2919 51.964 28.5359 51.696C28.7799 51.424 29.0779 51.212 29.4299 51.06C29.7819 50.904 30.1779 50.826 30.6179 50.826ZM30.6419 51.612C30.1259 51.612 29.7199 51.762 29.4239 52.062C29.1279 52.358 28.9439 52.77 28.8719 53.298H32.1779C32.1779 53.05 32.1439 52.824 32.0759 52.62C32.0079 52.412 31.9079 52.234 31.7759 52.086C31.6439 51.934 31.4819 51.818 31.2899 51.738C31.1019 51.654 30.8859 51.612 30.6419 51.612ZM34.5049 57V50.922H35.1169C35.2329 50.922 35.3129 50.944 35.3569 50.988C35.4009 51.032 35.4309 51.108 35.4469 51.216L35.5189 52.164C35.7269 51.74 35.9829 51.41 36.2869 51.174C36.5949 50.934 36.9549 50.814 37.3669 50.814C37.5349 50.814 37.6869 50.834 37.8229 50.874C37.9589 50.91 38.0849 50.962 38.2009 51.03L38.0629 51.828C38.0349 51.928 37.9729 51.978 37.8769 51.978C37.8209 51.978 37.7349 51.96 37.6189 51.924C37.5029 51.884 37.3409 51.864 37.1329 51.864C36.7609 51.864 36.4489 51.972 36.1969 52.188C35.9489 52.404 35.7409 52.718 35.5729 53.13V57H34.5049ZM41.8048 50.826C42.2488 50.826 42.6488 50.9 43.0048 51.048C43.3648 51.196 43.6688 51.406 43.9168 51.678C44.1688 51.95 44.3608 52.28 44.4928 52.668C44.6288 53.052 44.6968 53.482 44.6968 53.958C44.6968 54.438 44.6288 54.87 44.4928 55.254C44.3608 55.638 44.1688 55.966 43.9168 56.238C43.6688 56.51 43.3648 56.72 43.0048 56.868C42.6488 57.012 42.2488 57.084 41.8048 57.084C41.3608 57.084 40.9588 57.012 40.5988 56.868C40.2428 56.72 39.9388 56.51 39.6868 56.238C39.4348 55.966 39.2408 55.638 39.1048 55.254C38.9688 54.87 38.9008 54.438 38.9008 53.958C38.9008 53.482 38.9688 53.052 39.1048 52.668C39.2408 52.28 39.4348 51.95 39.6868 51.678C39.9388 51.406 40.2428 51.196 40.5988 51.048C40.9588 50.9 41.3608 50.826 41.8048 50.826ZM41.8048 56.25C42.4048 56.25 42.8528 56.05 43.1488 55.65C43.4448 55.246 43.5928 54.684 43.5928 53.964C43.5928 53.24 43.4448 52.676 43.1488 52.272C42.8528 51.868 42.4048 51.666 41.8048 51.666C41.5008 51.666 41.2368 51.718 41.0128 51.822C40.7888 51.926 40.6008 52.076 40.4488 52.272C40.3008 52.468 40.1888 52.71 40.1128 52.998C40.0408 53.282 40.0048 53.604 40.0048 53.964C40.0048 54.324 40.0408 54.646 40.1128 54.93C40.1888 55.214 40.3008 55.454 40.4488 55.65C40.6008 55.842 40.7888 55.99 41.0128 56.094C41.2368 56.198 41.5008 56.25 41.8048 56.25ZM47.2007 50.922V57H46.1327V50.922H47.2007ZM47.4407 49.014C47.4407 49.118 47.4187 49.216 47.3747 49.308C47.3347 49.396 47.2787 49.476 47.2067 49.548C47.1387 49.616 47.0587 49.67 46.9667 49.71C46.8747 49.75 46.7767 49.77 46.6727 49.77C46.5687 49.77 46.4707 49.75 46.3787 49.71C46.2907 49.67 46.2107 49.616 46.1387 49.548C46.0707 49.476 46.0167 49.396 45.9767 49.308C45.9367 49.216 45.9167 49.118 45.9167 49.014C45.9167 48.91 45.9367 48.812 45.9767 48.72C46.0167 48.624 46.0707 48.542 46.1387 48.474C46.2107 48.402 46.2907 48.346 46.3787 48.306C46.4707 48.266 46.5687 48.246 46.6727 48.246C46.7767 48.246 46.8747 48.266 46.9667 48.306C47.0587 48.346 47.1387 48.402 47.2067 48.474C47.2787 48.542 47.3347 48.624 47.3747 48.72C47.4187 48.812 47.4407 48.91 47.4407 49.014ZM53.361 57C53.209 57 53.113 56.926 53.073 56.778L52.977 56.04C52.717 56.356 52.419 56.61 52.083 56.802C51.751 56.99 51.369 57.084 50.937 57.084C50.589 57.084 50.273 57.018 49.989 56.886C49.705 56.75 49.463 56.552 49.263 56.292C49.063 56.032 48.909 55.708 48.801 55.32C48.693 54.932 48.639 54.486 48.639 53.982C48.639 53.534 48.699 53.118 48.819 52.734C48.939 52.346 49.111 52.01 49.335 51.726C49.563 51.442 49.839 51.22 50.163 51.06C50.487 50.896 50.855 50.814 51.267 50.814C51.639 50.814 51.957 50.878 52.221 51.006C52.485 51.13 52.721 51.306 52.929 51.534V48.162H53.997V57H53.361ZM51.291 56.22C51.639 56.22 51.943 56.14 52.203 55.98C52.467 55.82 52.709 55.594 52.929 55.302V52.362C52.733 52.098 52.517 51.914 52.281 51.81C52.049 51.702 51.791 51.648 51.507 51.648C50.939 51.648 50.503 51.85 50.199 52.254C49.895 52.658 49.743 53.234 49.743 53.982C49.743 54.378 49.777 54.718 49.845 55.002C49.913 55.282 50.013 55.514 50.145 55.698C50.277 55.878 50.439 56.01 50.631 56.094C50.823 56.178 51.043 56.22 51.291 56.22ZM59.2662 51.924C59.2182 52.012 59.1442 52.056 59.0442 52.056C58.9842 52.056 58.9162 52.034 58.8402 51.99C58.7642 51.946 58.6702 51.898 58.5582 51.846C58.4502 51.79 58.3202 51.74 58.1682 51.696C58.0162 51.648 57.8362 51.624 57.6282 51.624C57.4482 51.624 57.2862 51.648 57.1422 51.696C56.9982 51.74 56.8742 51.802 56.7702 51.882C56.6702 51.962 56.5922 52.056 56.5362 52.164C56.4842 52.268 56.4582 52.382 56.4582 52.506C56.4582 52.662 56.5022 52.792 56.5902 52.896C56.6822 53 56.8022 53.09 56.9502 53.166C57.0982 53.242 57.2662 53.31 57.4542 53.37C57.6422 53.426 57.8342 53.488 58.0302 53.556C58.2302 53.62 58.4242 53.692 58.6122 53.772C58.8002 53.852 58.9682 53.952 59.1162 54.072C59.2642 54.192 59.3822 54.34 59.4702 54.516C59.5622 54.688 59.6082 54.896 59.6082 55.14C59.6082 55.42 59.5582 55.68 59.4582 55.92C59.3582 56.156 59.2102 56.362 59.0142 56.538C58.8182 56.71 58.5782 56.846 58.2942 56.946C58.0102 57.046 57.6822 57.096 57.3102 57.096C56.8862 57.096 56.5022 57.028 56.1582 56.892C55.8142 56.752 55.5222 56.574 55.2822 56.358L55.5342 55.95C55.5662 55.898 55.6042 55.858 55.6482 55.83C55.6922 55.802 55.7502 55.788 55.8222 55.788C55.8942 55.788 55.9702 55.816 56.0502 55.872C56.1302 55.928 56.2262 55.99 56.3382 56.058C56.4542 56.126 56.5922 56.188 56.7522 56.244C56.9162 56.3 57.1202 56.328 57.3642 56.328C57.5722 56.328 57.7542 56.302 57.9102 56.25C58.0662 56.194 58.1962 56.12 58.3002 56.028C58.4042 55.936 58.4802 55.83 58.5282 55.71C58.5802 55.59 58.6062 55.462 58.6062 55.326C58.6062 55.158 58.5602 55.02 58.4682 54.912C58.3802 54.8 58.2622 54.706 58.1142 54.63C57.9662 54.55 57.7962 54.482 57.6042 54.426C57.4162 54.366 57.2222 54.304 57.0222 54.24C56.8262 54.176 56.6322 54.104 56.4402 54.024C56.2522 53.94 56.0842 53.836 55.9362 53.712C55.7882 53.588 55.6682 53.436 55.5762 53.256C55.4882 53.072 55.4442 52.85 55.4442 52.59C55.4442 52.358 55.4922 52.136 55.5882 51.924C55.6842 51.708 55.8242 51.52 56.0082 51.36C56.1922 51.196 56.4182 51.066 56.6862 50.97C56.9542 50.874 57.2602 50.826 57.6042 50.826C58.0042 50.826 58.3622 50.89 58.6782 51.018C58.9982 51.142 59.2742 51.314 59.5062 51.534L59.2662 51.924Z" fill="#9499C3"/>
</svg>
