<svg width="70" height="70" viewBox="0 0 70 70" fill="none" xmlns="http://www.w3.org/2000/svg">
<path d="M26.1066 29.2385C25.8131 27.9575 25.6655 26.6474 25.6666 25.3332C25.6666 18.5492 29.5372 12.7518 34.9999 10.4238C40.4626 12.7518 44.3333 18.5492 44.3333 25.3332C44.3333 26.6798 44.1812 27.9878 43.8932 29.2385L46.5866 31.6332C46.7025 31.7363 46.7789 31.8766 46.8025 32.0299C46.8261 32.1832 46.7955 32.34 46.7159 32.4732L43.4386 37.9345C43.3864 38.0213 43.3152 38.095 43.2302 38.1502C43.1453 38.2053 43.049 38.2404 42.9485 38.2527C42.848 38.265 42.746 38.2543 42.6502 38.2214C42.5545 38.1884 42.4675 38.1341 42.3959 38.0625L39.3906 35.0572C39.1406 34.8071 38.8015 34.6666 38.4479 34.6665H31.5519C31.1983 34.6666 30.8592 34.8071 30.6092 35.0572L27.6039 38.0625C27.5323 38.1341 27.4453 38.1884 27.3496 38.2214C27.2539 38.2543 27.1519 38.265 27.0514 38.2527C26.9509 38.2404 26.8545 38.2053 26.7696 38.1502C26.6847 38.095 26.6134 38.0213 26.5612 37.9345L23.2839 32.4745C23.204 32.3412 23.1732 32.1841 23.1968 32.0305C23.2204 31.8769 23.297 31.7363 23.4132 31.6332L26.1066 29.2385ZM34.9999 25.3332C35.7072 25.3332 36.3854 25.0522 36.8855 24.5521C37.3856 24.052 37.6666 23.3737 37.6666 22.6665C37.6666 21.9593 37.3856 21.281 36.8855 20.7809C36.3854 20.2808 35.7072 19.9998 34.9999 19.9998C34.2927 19.9998 33.6144 20.2808 33.1143 20.7809C32.6142 21.281 32.3333 21.9593 32.3333 22.6665C32.3333 23.3737 32.6142 24.052 33.1143 24.5521C33.6144 25.0522 34.2927 25.3332 34.9999 25.3332Z" fill="white"/>
<path d="M21.274 53.892C21.33 53.988 21.378 54.09 21.418 54.198C21.462 54.302 21.504 54.408 21.544 54.516C21.584 54.404 21.626 54.298 21.67 54.198C21.714 54.094 21.764 53.99 21.82 53.886L24.73 48.6C24.782 48.508 24.836 48.452 24.892 48.432C24.948 48.412 25.028 48.402 25.132 48.402H25.99V57H24.97V50.682C24.97 50.598 24.972 50.508 24.976 50.412C24.98 50.316 24.986 50.218 24.994 50.118L22.048 55.494C21.948 55.674 21.808 55.764 21.628 55.764H21.46C21.28 55.764 21.14 55.674 21.04 55.494L18.028 50.1C18.04 50.204 18.048 50.306 18.052 50.406C18.06 50.506 18.064 50.598 18.064 50.682V57H17.044V48.402H17.902C18.006 48.402 18.086 48.412 18.142 48.432C18.198 48.452 18.252 48.508 18.304 48.6L21.274 53.892ZM29.1031 50.922V57H28.0351V50.922H29.1031ZM29.3431 49.014C29.3431 49.118 29.3211 49.216 29.2771 49.308C29.2371 49.396 29.1811 49.476 29.1091 49.548C29.0411 49.616 28.9611 49.67 28.8691 49.71C28.7771 49.75 28.6791 49.77 28.5751 49.77C28.4711 49.77 28.3731 49.75 28.2811 49.71C28.1931 49.67 28.1131 49.616 28.0411 49.548C27.9731 49.476 27.9191 49.396 27.8791 49.308C27.8391 49.216 27.8191 49.118 27.8191 49.014C27.8191 48.91 27.8391 48.812 27.8791 48.72C27.9191 48.624 27.9731 48.542 28.0411 48.474C28.1131 48.402 28.1931 48.346 28.2811 48.306C28.3731 48.266 28.4711 48.246 28.5751 48.246C28.6791 48.246 28.7771 48.266 28.8691 48.306C28.9611 48.346 29.0411 48.402 29.1091 48.474C29.1811 48.542 29.2371 48.624 29.2771 48.72C29.3211 48.812 29.3431 48.91 29.3431 49.014ZM30.9854 57V50.922H31.6214C31.7734 50.922 31.8694 50.996 31.9094 51.144L31.9934 51.804C32.2574 51.512 32.5514 51.276 32.8754 51.096C33.2034 50.916 33.5814 50.826 34.0094 50.826C34.3414 50.826 34.6334 50.882 34.8854 50.994C35.1414 51.102 35.3534 51.258 35.5214 51.462C35.6934 51.662 35.8234 51.904 35.9114 52.188C35.9994 52.472 36.0434 52.786 36.0434 53.13V57H34.9754V53.13C34.9754 52.67 34.8694 52.314 34.6574 52.062C34.4494 51.806 34.1294 51.678 33.6974 51.678C33.3814 51.678 33.0854 51.754 32.8094 51.906C32.5374 52.058 32.2854 52.264 32.0534 52.524V57H30.9854ZM40.0593 50.826C40.4233 50.826 40.7593 50.888 41.0673 51.012C41.3753 51.132 41.6413 51.308 41.8653 51.54C42.0893 51.768 42.2633 52.052 42.3873 52.392C42.5153 52.728 42.5793 53.112 42.5793 53.544C42.5793 53.712 42.5613 53.824 42.5253 53.88C42.4893 53.936 42.4213 53.964 42.3213 53.964H38.2773C38.2853 54.348 38.3373 54.682 38.4333 54.966C38.5293 55.25 38.6613 55.488 38.8293 55.68C38.9973 55.868 39.1973 56.01 39.4293 56.106C39.6613 56.198 39.9213 56.244 40.2093 56.244C40.4773 56.244 40.7073 56.214 40.8993 56.154C41.0953 56.09 41.2633 56.022 41.4033 55.95C41.5433 55.878 41.6593 55.812 41.7513 55.752C41.8473 55.688 41.9293 55.656 41.9973 55.656C42.0853 55.656 42.1533 55.69 42.2013 55.758L42.5013 56.148C42.3693 56.308 42.2113 56.448 42.0273 56.568C41.8433 56.684 41.6453 56.78 41.4333 56.856C41.2253 56.932 41.0093 56.988 40.7853 57.024C40.5613 57.064 40.3393 57.084 40.1193 57.084C39.6993 57.084 39.3113 57.014 38.9553 56.874C38.6033 56.73 38.2973 56.522 38.0373 56.25C37.7813 55.974 37.5813 55.634 37.4373 55.23C37.2933 54.826 37.2213 54.362 37.2213 53.838C37.2213 53.414 37.2853 53.018 37.4133 52.65C37.5453 52.282 37.7333 51.964 37.9773 51.696C38.2213 51.424 38.5193 51.212 38.8713 51.06C39.2233 50.904 39.6193 50.826 40.0593 50.826ZM40.0833 51.612C39.5673 51.612 39.1613 51.762 38.8653 52.062C38.5693 52.358 38.3853 52.77 38.3133 53.298H41.6193C41.6193 53.05 41.5853 52.824 41.5173 52.62C41.4493 52.412 41.3493 52.234 41.2173 52.086C41.0853 51.934 40.9233 51.818 40.7313 51.738C40.5433 51.654 40.3273 51.612 40.0833 51.612ZM43.9463 57V50.922H44.5583C44.6743 50.922 44.7543 50.944 44.7983 50.988C44.8423 51.032 44.8723 51.108 44.8883 51.216L44.9603 52.164C45.1683 51.74 45.4243 51.41 45.7283 51.174C46.0363 50.934 46.3963 50.814 46.8083 50.814C46.9763 50.814 47.1283 50.834 47.2643 50.874C47.4003 50.91 47.5263 50.962 47.6423 51.03L47.5043 51.828C47.4763 51.928 47.4143 51.978 47.3183 51.978C47.2623 51.978 47.1763 51.96 47.0603 51.924C46.9443 51.884 46.7823 51.864 46.5743 51.864C46.2023 51.864 45.8903 51.972 45.6383 52.188C45.3903 52.404 45.1823 52.718 45.0143 53.13V57H43.9463ZM52.2662 51.924C52.2182 52.012 52.1442 52.056 52.0442 52.056C51.9842 52.056 51.9162 52.034 51.8402 51.99C51.7642 51.946 51.6702 51.898 51.5582 51.846C51.4502 51.79 51.3202 51.74 51.1682 51.696C51.0162 51.648 50.8362 51.624 50.6282 51.624C50.4482 51.624 50.2862 51.648 50.1422 51.696C49.9982 51.74 49.8742 51.802 49.7702 51.882C49.6702 51.962 49.5922 52.056 49.5362 52.164C49.4842 52.268 49.4582 52.382 49.4582 52.506C49.4582 52.662 49.5022 52.792 49.5902 52.896C49.6822 53 49.8022 53.09 49.9502 53.166C50.0982 53.242 50.2662 53.31 50.4542 53.37C50.6422 53.426 50.8342 53.488 51.0302 53.556C51.2302 53.62 51.4242 53.692 51.6122 53.772C51.8002 53.852 51.9682 53.952 52.1162 54.072C52.2642 54.192 52.3822 54.34 52.4702 54.516C52.5622 54.688 52.6082 54.896 52.6082 55.14C52.6082 55.42 52.5582 55.68 52.4582 55.92C52.3582 56.156 52.2102 56.362 52.0142 56.538C51.8182 56.71 51.5782 56.846 51.2942 56.946C51.0102 57.046 50.6822 57.096 50.3102 57.096C49.8862 57.096 49.5022 57.028 49.1582 56.892C48.8142 56.752 48.5222 56.574 48.2822 56.358L48.5342 55.95C48.5662 55.898 48.6042 55.858 48.6482 55.83C48.6922 55.802 48.7502 55.788 48.8222 55.788C48.8942 55.788 48.9702 55.816 49.0502 55.872C49.1302 55.928 49.2262 55.99 49.3382 56.058C49.4542 56.126 49.5922 56.188 49.7522 56.244C49.9162 56.3 50.1202 56.328 50.3642 56.328C50.5722 56.328 50.7542 56.302 50.9102 56.25C51.0662 56.194 51.1962 56.12 51.3002 56.028C51.4042 55.936 51.4802 55.83 51.5282 55.71C51.5802 55.59 51.6062 55.462 51.6062 55.326C51.6062 55.158 51.5602 55.02 51.4682 54.912C51.3802 54.8 51.2622 54.706 51.1142 54.63C50.9662 54.55 50.7962 54.482 50.6042 54.426C50.4162 54.366 50.2222 54.304 50.0222 54.24C49.8262 54.176 49.6322 54.104 49.4402 54.024C49.2522 53.94 49.0842 53.836 48.9362 53.712C48.7882 53.588 48.6682 53.436 48.5762 53.256C48.4882 53.072 48.4442 52.85 48.4442 52.59C48.4442 52.358 48.4922 52.136 48.5882 51.924C48.6842 51.708 48.8242 51.52 49.0082 51.36C49.1922 51.196 49.4182 51.066 49.6862 50.97C49.9542 50.874 50.2602 50.826 50.6042 50.826C51.0042 50.826 51.3622 50.89 51.6782 51.018C51.9982 51.142 52.2742 51.314 52.5062 51.534L52.2662 51.924Z" fill="#9499C3"/>
</svg>
