<svg width="78" height="78" viewBox="0 0 78 78" fill="none" xmlns="http://www.w3.org/2000/svg">
<g filter="url(#filter0_d_2710_122)">
<rect x="4" width="70" height="70" rx="8" fill="#191A29"/>
<rect x="4.5" y="0.5" width="69" height="69" rx="7.5" stroke="#32334A"/>
<path d="M30.1069 29.2385C29.8134 27.9575 29.6658 26.6474 29.6669 25.3332C29.6669 18.5492 33.5376 12.7518 39.0003 10.4238C44.4629 12.7518 48.3336 18.5492 48.3336 25.3332C48.3336 26.6798 48.1816 27.9878 47.8936 29.2385L50.587 31.6332C50.7029 31.7363 50.7792 31.8766 50.8028 32.0299C50.8264 32.1832 50.7958 32.34 50.7163 32.4732L47.4389 37.9345C47.3868 38.0213 47.3155 38.095 47.2306 38.1502C47.1457 38.2053 47.0493 38.2404 46.9488 38.2527C46.8483 38.265 46.7463 38.2543 46.6506 38.2214C46.5549 38.1884 46.4679 38.1341 46.3963 38.0625L43.3909 35.0572C43.141 34.8071 42.8019 34.6666 42.4483 34.6665H35.5523C35.1987 34.6666 34.8596 34.8071 34.6096 35.0572L31.6043 38.0625C31.5327 38.1341 31.4457 38.1884 31.35 38.2214C31.2542 38.2543 31.1522 38.265 31.0517 38.2527C30.9512 38.2404 30.8549 38.2053 30.77 38.1502C30.685 38.095 30.6138 38.0213 30.5616 37.9345L27.2843 32.4745C27.2044 32.3412 27.1736 32.1841 27.1972 32.0305C27.2208 31.8769 27.2974 31.7363 27.4136 31.6332L30.1069 29.2385ZM39.0003 25.3332C39.7075 25.3332 40.3858 25.0522 40.8859 24.5521C41.386 24.052 41.6669 23.3737 41.6669 22.6665C41.6669 21.9593 41.386 21.281 40.8859 20.7809C40.3858 20.2808 39.7075 19.9998 39.0003 19.9998C38.293 19.9998 37.6148 20.2808 37.1147 20.7809C36.6146 21.281 36.3336 21.9593 36.3336 22.6665C36.3336 23.3737 36.6146 24.052 37.1147 24.5521C37.6148 25.0522 38.293 25.3332 39.0003 25.3332Z" fill="#38D9A9"/>
<path d="M25.274 53.892C25.33 53.988 25.378 54.09 25.418 54.198C25.462 54.302 25.504 54.408 25.544 54.516C25.584 54.404 25.626 54.298 25.67 54.198C25.714 54.094 25.764 53.99 25.82 53.886L28.73 48.6C28.782 48.508 28.836 48.452 28.892 48.432C28.948 48.412 29.028 48.402 29.132 48.402H29.99V57H28.97V50.682C28.97 50.598 28.972 50.508 28.976 50.412C28.98 50.316 28.986 50.218 28.994 50.118L26.048 55.494C25.948 55.674 25.808 55.764 25.628 55.764H25.46C25.28 55.764 25.14 55.674 25.04 55.494L22.028 50.1C22.04 50.204 22.048 50.306 22.052 50.406C22.06 50.506 22.064 50.598 22.064 50.682V57H21.044V48.402H21.902C22.006 48.402 22.086 48.412 22.142 48.432C22.198 48.452 22.252 48.508 22.304 48.6L25.274 53.892ZM33.1031 50.922V57H32.0351V50.922H33.1031ZM33.3431 49.014C33.3431 49.118 33.3211 49.216 33.2771 49.308C33.2371 49.396 33.1811 49.476 33.1091 49.548C33.0411 49.616 32.9611 49.67 32.8691 49.71C32.7771 49.75 32.6791 49.77 32.5751 49.77C32.4711 49.77 32.3731 49.75 32.2811 49.71C32.1931 49.67 32.1131 49.616 32.0411 49.548C31.9731 49.476 31.9191 49.396 31.8791 49.308C31.8391 49.216 31.8191 49.118 31.8191 49.014C31.8191 48.91 31.8391 48.812 31.8791 48.72C31.9191 48.624 31.9731 48.542 32.0411 48.474C32.1131 48.402 32.1931 48.346 32.2811 48.306C32.3731 48.266 32.4711 48.246 32.5751 48.246C32.6791 48.246 32.7771 48.266 32.8691 48.306C32.9611 48.346 33.0411 48.402 33.1091 48.474C33.1811 48.542 33.2371 48.624 33.2771 48.72C33.3211 48.812 33.3431 48.91 33.3431 49.014ZM34.9854 57V50.922H35.6214C35.7734 50.922 35.8694 50.996 35.9094 51.144L35.9934 51.804C36.2574 51.512 36.5514 51.276 36.8754 51.096C37.2034 50.916 37.5814 50.826 38.0094 50.826C38.3414 50.826 38.6334 50.882 38.8854 50.994C39.1414 51.102 39.3534 51.258 39.5214 51.462C39.6934 51.662 39.8234 51.904 39.9114 52.188C39.9994 52.472 40.0434 52.786 40.0434 53.13V57H38.9754V53.13C38.9754 52.67 38.8694 52.314 38.6574 52.062C38.4494 51.806 38.1294 51.678 37.6974 51.678C37.3814 51.678 37.0854 51.754 36.8094 51.906C36.5374 52.058 36.2854 52.264 36.0534 52.524V57H34.9854ZM44.0593 50.826C44.4233 50.826 44.7593 50.888 45.0673 51.012C45.3753 51.132 45.6413 51.308 45.8653 51.54C46.0893 51.768 46.2633 52.052 46.3873 52.392C46.5153 52.728 46.5793 53.112 46.5793 53.544C46.5793 53.712 46.5613 53.824 46.5253 53.88C46.4893 53.936 46.4213 53.964 46.3213 53.964H42.2773C42.2853 54.348 42.3373 54.682 42.4333 54.966C42.5293 55.25 42.6613 55.488 42.8293 55.68C42.9973 55.868 43.1973 56.01 43.4293 56.106C43.6613 56.198 43.9213 56.244 44.2093 56.244C44.4773 56.244 44.7073 56.214 44.8993 56.154C45.0953 56.09 45.2633 56.022 45.4033 55.95C45.5433 55.878 45.6593 55.812 45.7513 55.752C45.8473 55.688 45.9293 55.656 45.9973 55.656C46.0853 55.656 46.1533 55.69 46.2013 55.758L46.5013 56.148C46.3693 56.308 46.2113 56.448 46.0273 56.568C45.8433 56.684 45.6453 56.78 45.4333 56.856C45.2253 56.932 45.0093 56.988 44.7853 57.024C44.5613 57.064 44.3393 57.084 44.1193 57.084C43.6993 57.084 43.3113 57.014 42.9553 56.874C42.6033 56.73 42.2973 56.522 42.0373 56.25C41.7813 55.974 41.5813 55.634 41.4373 55.23C41.2933 54.826 41.2213 54.362 41.2213 53.838C41.2213 53.414 41.2853 53.018 41.4133 52.65C41.5453 52.282 41.7333 51.964 41.9773 51.696C42.2213 51.424 42.5193 51.212 42.8713 51.06C43.2233 50.904 43.6193 50.826 44.0593 50.826ZM44.0833 51.612C43.5673 51.612 43.1613 51.762 42.8653 52.062C42.5693 52.358 42.3853 52.77 42.3133 53.298H45.6193C45.6193 53.05 45.5853 52.824 45.5173 52.62C45.4493 52.412 45.3493 52.234 45.2173 52.086C45.0853 51.934 44.9233 51.818 44.7313 51.738C44.5433 51.654 44.3273 51.612 44.0833 51.612ZM47.9463 57V50.922H48.5583C48.6743 50.922 48.7543 50.944 48.7983 50.988C48.8423 51.032 48.8723 51.108 48.8883 51.216L48.9603 52.164C49.1683 51.74 49.4243 51.41 49.7283 51.174C50.0363 50.934 50.3963 50.814 50.8083 50.814C50.9763 50.814 51.1283 50.834 51.2643 50.874C51.4003 50.91 51.5263 50.962 51.6423 51.03L51.5043 51.828C51.4763 51.928 51.4143 51.978 51.3183 51.978C51.2623 51.978 51.1763 51.96 51.0603 51.924C50.9443 51.884 50.7823 51.864 50.5743 51.864C50.2023 51.864 49.8903 51.972 49.6383 52.188C49.3903 52.404 49.1823 52.718 49.0143 53.13V57H47.9463ZM56.2662 51.924C56.2182 52.012 56.1442 52.056 56.0442 52.056C55.9842 52.056 55.9162 52.034 55.8402 51.99C55.7642 51.946 55.6702 51.898 55.5582 51.846C55.4502 51.79 55.3202 51.74 55.1682 51.696C55.0162 51.648 54.8362 51.624 54.6282 51.624C54.4482 51.624 54.2862 51.648 54.1422 51.696C53.9982 51.74 53.8742 51.802 53.7702 51.882C53.6702 51.962 53.5922 52.056 53.5362 52.164C53.4842 52.268 53.4582 52.382 53.4582 52.506C53.4582 52.662 53.5022 52.792 53.5902 52.896C53.6822 53 53.8022 53.09 53.9502 53.166C54.0982 53.242 54.2662 53.31 54.4542 53.37C54.6422 53.426 54.8342 53.488 55.0302 53.556C55.2302 53.62 55.4242 53.692 55.6122 53.772C55.8002 53.852 55.9682 53.952 56.1162 54.072C56.2642 54.192 56.3822 54.34 56.4702 54.516C56.5622 54.688 56.6082 54.896 56.6082 55.14C56.6082 55.42 56.5582 55.68 56.4582 55.92C56.3582 56.156 56.2102 56.362 56.0142 56.538C55.8182 56.71 55.5782 56.846 55.2942 56.946C55.0102 57.046 54.6822 57.096 54.3102 57.096C53.8862 57.096 53.5022 57.028 53.1582 56.892C52.8142 56.752 52.5222 56.574 52.2822 56.358L52.5342 55.95C52.5662 55.898 52.6042 55.858 52.6482 55.83C52.6922 55.802 52.7502 55.788 52.8222 55.788C52.8942 55.788 52.9702 55.816 53.0502 55.872C53.1302 55.928 53.2262 55.99 53.3382 56.058C53.4542 56.126 53.5922 56.188 53.7522 56.244C53.9162 56.3 54.1202 56.328 54.3642 56.328C54.5722 56.328 54.7542 56.302 54.9102 56.25C55.0662 56.194 55.1962 56.12 55.3002 56.028C55.4042 55.936 55.4802 55.83 55.5282 55.71C55.5802 55.59 55.6062 55.462 55.6062 55.326C55.6062 55.158 55.5602 55.02 55.4682 54.912C55.3802 54.8 55.2622 54.706 55.1142 54.63C54.9662 54.55 54.7962 54.482 54.6042 54.426C54.4162 54.366 54.2222 54.304 54.0222 54.24C53.8262 54.176 53.6322 54.104 53.4402 54.024C53.2522 53.94 53.0842 53.836 52.9362 53.712C52.7882 53.588 52.6682 53.436 52.5762 53.256C52.4882 53.072 52.4442 52.85 52.4442 52.59C52.4442 52.358 52.4922 52.136 52.5882 51.924C52.6842 51.708 52.8242 51.52 53.0082 51.36C53.1922 51.196 53.4182 51.066 53.6862 50.97C53.9542 50.874 54.2602 50.826 54.6042 50.826C55.0042 50.826 55.3622 50.89 55.6782 51.018C55.9982 51.142 56.2742 51.314 56.5062 51.534L56.2662 51.924Z" fill="#9499C3"/>
</g>
<defs>
<filter id="filter0_d_2710_122" x="0" y="0" width="78" height="78" filterUnits="userSpaceOnUse" color-interpolation-filters="sRGB">
<feFlood flood-opacity="0" result="BackgroundImageFix"/>
<feColorMatrix in="SourceAlpha" type="matrix" values="0 0 0 0 0 0 0 0 0 0 0 0 0 0 0 0 0 0 127 0" result="hardAlpha"/>
<feOffset dy="4"/>
<feGaussianBlur stdDeviation="2"/>
<feColorMatrix type="matrix" values="0 0 0 0 0 0 0 0 0 0 0 0 0 0 0 0 0 0 0.25 0"/>
<feBlend mode="normal" in2="BackgroundImageFix" result="effect1_dropShadow_2710_122"/>
<feBlend mode="normal" in="SourceGraphic" in2="effect1_dropShadow_2710_122" result="shape"/>
</filter>
</defs>
</svg>
