<svg width="78" height="78" viewBox="0 0 78 78" fill="none" xmlns="http://www.w3.org/2000/svg">
<g filter="url(#filter0_d_2710_235)">
<rect x="4" width="70" height="70" rx="8" fill="#191A29"/>
<rect x="4.5" y="0.5" width="69" height="69" rx="7.5" stroke="#32334A"/>
<path d="M49.6662 28.4129L52.1995 25.8795C53.2395 24.8395 53.2395 23.1462 52.1995 22.1062L49.6662 19.5862V15.9995C49.6662 14.5329 48.4662 13.3329 46.9995 13.3329H43.4129L40.8795 10.7995C39.8395 9.75953 38.1462 9.75953 37.1062 10.7995L34.5862 13.3329H30.9995C29.5329 13.3329 28.3329 14.5329 28.3329 15.9995V19.5862L25.7995 22.1195C24.7595 23.1595 24.7595 24.8529 25.7995 25.8929L28.3329 28.4262V31.9995C28.3329 33.4662 29.5329 34.6662 30.9995 34.6662H34.5862L37.1195 37.1995C38.1595 38.2395 39.8529 38.2395 40.8929 37.1995L43.4262 34.6662H46.9995C48.4662 34.6662 49.6662 33.4662 49.6662 31.9995V28.4129Z" fill="#38D9A9"/>
<path d="M21.322 53.784V57H20.164V48.402H22.702C23.246 48.402 23.718 48.466 24.118 48.594C24.522 48.718 24.856 48.896 25.12 49.128C25.384 49.36 25.58 49.64 25.708 49.968C25.84 50.296 25.906 50.662 25.906 51.066C25.906 51.466 25.836 51.832 25.696 52.164C25.556 52.496 25.35 52.782 25.078 53.022C24.81 53.262 24.476 53.45 24.076 53.586C23.676 53.718 23.218 53.784 22.702 53.784H21.322ZM21.322 52.86H22.702C23.034 52.86 23.326 52.816 23.578 52.728C23.834 52.64 24.048 52.518 24.22 52.362C24.392 52.202 24.522 52.012 24.61 51.792C24.698 51.572 24.742 51.33 24.742 51.066C24.742 50.518 24.572 50.09 24.232 49.782C23.896 49.474 23.386 49.32 22.702 49.32H21.322V52.86ZM28.3999 48.162V57H27.3319V48.162H28.3999ZM34.7463 57H34.2723C34.1683 57 34.0843 56.984 34.0203 56.952C33.9563 56.92 33.9143 56.852 33.8943 56.748L33.7743 56.184C33.6143 56.328 33.4583 56.458 33.3063 56.574C33.1543 56.686 32.9943 56.782 32.8263 56.862C32.6583 56.938 32.4783 56.996 32.2863 57.036C32.0983 57.076 31.8883 57.096 31.6563 57.096C31.4203 57.096 31.1983 57.064 30.9902 57C30.7863 56.932 30.6083 56.832 30.4563 56.7C30.3043 56.568 30.1823 56.402 30.0903 56.202C30.0023 55.998 29.9583 55.758 29.9583 55.482C29.9583 55.242 30.0243 55.012 30.1562 54.792C30.2883 54.568 30.5003 54.37 30.7923 54.198C31.0883 54.026 31.4743 53.886 31.9503 53.778C32.4263 53.666 33.0083 53.602 33.6963 53.586V53.112C33.6963 52.64 33.5943 52.284 33.3903 52.044C33.1903 51.8 32.8923 51.678 32.4963 51.678C32.2363 51.678 32.0163 51.712 31.8363 51.78C31.6603 51.844 31.5063 51.918 31.3743 52.002C31.2463 52.082 31.1343 52.156 31.0383 52.224C30.9463 52.288 30.8543 52.32 30.7623 52.32C30.6903 52.32 30.6263 52.302 30.5703 52.266C30.5183 52.226 30.4763 52.178 30.4443 52.122L30.2523 51.78C30.5883 51.456 30.9503 51.214 31.3383 51.054C31.7263 50.894 32.1563 50.814 32.6283 50.814C32.9683 50.814 33.2703 50.87 33.5343 50.982C33.7983 51.094 34.0203 51.25 34.2003 51.45C34.3803 51.65 34.5163 51.892 34.6083 52.176C34.7003 52.46 34.7463 52.772 34.7463 53.112V57ZM31.9743 56.346C32.1623 56.346 32.3343 56.328 32.4902 56.292C32.6463 56.252 32.7923 56.198 32.9283 56.13C33.0683 56.058 33.2003 55.972 33.3243 55.872C33.4523 55.772 33.5763 55.658 33.6963 55.53V54.264C33.2043 54.28 32.7863 54.32 32.4423 54.384C32.0983 54.444 31.8183 54.524 31.6023 54.624C31.3863 54.724 31.2283 54.842 31.1283 54.978C31.0323 55.114 30.9843 55.266 30.9843 55.434C30.9843 55.594 31.0103 55.732 31.0623 55.848C31.1143 55.964 31.1843 56.06 31.2723 56.136C31.3603 56.208 31.4643 56.262 31.5843 56.298C31.7043 56.33 31.8343 56.346 31.9743 56.346ZM36.3643 57V50.922H37.0003C37.1523 50.922 37.2483 50.996 37.2883 51.144L37.3723 51.804C37.6363 51.512 37.9303 51.276 38.2543 51.096C38.5823 50.916 38.9603 50.826 39.3883 50.826C39.7203 50.826 40.0123 50.882 40.2643 50.994C40.5203 51.102 40.7323 51.258 40.9003 51.462C41.0723 51.662 41.2023 51.904 41.2903 52.188C41.3783 52.472 41.4223 52.786 41.4223 53.13V57H40.3543V53.13C40.3543 52.67 40.2483 52.314 40.0363 52.062C39.8283 51.806 39.5083 51.678 39.0763 51.678C38.7603 51.678 38.4643 51.754 38.1883 51.906C37.9163 52.058 37.6643 52.264 37.4323 52.524V57H36.3643ZM45.4383 50.826C45.8023 50.826 46.1383 50.888 46.4463 51.012C46.7543 51.132 47.0203 51.308 47.2443 51.54C47.4683 51.768 47.6423 52.052 47.7663 52.392C47.8943 52.728 47.9583 53.112 47.9583 53.544C47.9583 53.712 47.9403 53.824 47.9043 53.88C47.8683 53.936 47.8003 53.964 47.7003 53.964H43.6562C43.6643 54.348 43.7163 54.682 43.8123 54.966C43.9083 55.25 44.0403 55.488 44.2083 55.68C44.3763 55.868 44.5763 56.01 44.8083 56.106C45.0403 56.198 45.3003 56.244 45.5883 56.244C45.8563 56.244 46.0863 56.214 46.2783 56.154C46.4743 56.09 46.6423 56.022 46.7823 55.95C46.9223 55.878 47.0383 55.812 47.1303 55.752C47.2263 55.688 47.3083 55.656 47.3763 55.656C47.4643 55.656 47.5323 55.69 47.5803 55.758L47.8803 56.148C47.7483 56.308 47.5903 56.448 47.4063 56.568C47.2223 56.684 47.0243 56.78 46.8123 56.856C46.6043 56.932 46.3883 56.988 46.1643 57.024C45.9403 57.064 45.7183 57.084 45.4983 57.084C45.0783 57.084 44.6903 57.014 44.3343 56.874C43.9823 56.73 43.6763 56.522 43.4163 56.25C43.1603 55.974 42.9603 55.634 42.8163 55.23C42.6723 54.826 42.6003 54.362 42.6003 53.838C42.6003 53.414 42.6643 53.018 42.7923 52.65C42.9243 52.282 43.1123 51.964 43.3563 51.696C43.6003 51.424 43.8983 51.212 44.2503 51.06C44.6023 50.904 44.9983 50.826 45.4383 50.826ZM45.4622 51.612C44.9463 51.612 44.5403 51.762 44.2443 52.062C43.9483 52.358 43.7643 52.77 43.6923 53.298H46.9983C46.9983 53.05 46.9643 52.824 46.8963 52.62C46.8283 52.412 46.7283 52.234 46.5963 52.086C46.4643 51.934 46.3023 51.818 46.1103 51.738C45.9223 51.654 45.7063 51.612 45.4622 51.612ZM51.1672 57.096C50.6872 57.096 50.3172 56.962 50.0572 56.694C49.8012 56.426 49.6732 56.04 49.6732 55.536V51.816H48.9412C48.8772 51.816 48.8232 51.798 48.7792 51.762C48.7352 51.722 48.7132 51.662 48.7132 51.582V51.156L49.7092 51.03L49.9552 49.152C49.9632 49.092 49.9892 49.044 50.0332 49.008C50.0772 48.968 50.1332 48.948 50.2012 48.948H50.7412V51.042H52.4812V51.816H50.7412V55.464C50.7412 55.72 50.8032 55.91 50.9272 56.034C51.0512 56.158 51.2112 56.22 51.4072 56.22C51.5192 56.22 51.6152 56.206 51.6952 56.178C51.7792 56.146 51.8512 56.112 51.9112 56.076C51.9712 56.04 52.0212 56.008 52.0612 55.98C52.1052 55.948 52.1432 55.932 52.1752 55.932C52.2312 55.932 52.2812 55.966 52.3252 56.034L52.6372 56.544C52.4532 56.716 52.2312 56.852 51.9712 56.952C51.7112 57.048 51.4432 57.096 51.1672 57.096ZM57.2818 51.924C57.2338 52.012 57.1598 52.056 57.0598 52.056C56.9998 52.056 56.9318 52.034 56.8558 51.99C56.7798 51.946 56.6858 51.898 56.5738 51.846C56.4658 51.79 56.3358 51.74 56.1838 51.696C56.0318 51.648 55.8518 51.624 55.6438 51.624C55.4638 51.624 55.3018 51.648 55.1578 51.696C55.0138 51.74 54.8898 51.802 54.7858 51.882C54.6858 51.962 54.6078 52.056 54.5518 52.164C54.4998 52.268 54.4738 52.382 54.4738 52.506C54.4738 52.662 54.5178 52.792 54.6058 52.896C54.6978 53 54.8178 53.09 54.9658 53.166C55.1138 53.242 55.2818 53.31 55.4698 53.37C55.6578 53.426 55.8498 53.488 56.0458 53.556C56.2458 53.62 56.4398 53.692 56.6278 53.772C56.8158 53.852 56.9838 53.952 57.1318 54.072C57.2798 54.192 57.3978 54.34 57.4858 54.516C57.5778 54.688 57.6238 54.896 57.6238 55.14C57.6238 55.42 57.5738 55.68 57.4738 55.92C57.3738 56.156 57.2258 56.362 57.0298 56.538C56.8338 56.71 56.5938 56.846 56.3098 56.946C56.0258 57.046 55.6978 57.096 55.3258 57.096C54.9018 57.096 54.5178 57.028 54.1738 56.892C53.8298 56.752 53.5378 56.574 53.2978 56.358L53.5498 55.95C53.5818 55.898 53.6198 55.858 53.6638 55.83C53.7078 55.802 53.7658 55.788 53.8378 55.788C53.9098 55.788 53.9858 55.816 54.0658 55.872C54.1458 55.928 54.2418 55.99 54.3538 56.058C54.4698 56.126 54.6078 56.188 54.7678 56.244C54.9318 56.3 55.1358 56.328 55.3798 56.328C55.5878 56.328 55.7698 56.302 55.9258 56.25C56.0818 56.194 56.2118 56.12 56.3158 56.028C56.4198 55.936 56.4958 55.83 56.5438 55.71C56.5958 55.59 56.6218 55.462 56.6218 55.326C56.6218 55.158 56.5758 55.02 56.4838 54.912C56.3958 54.8 56.2778 54.706 56.1298 54.63C55.9818 54.55 55.8118 54.482 55.6198 54.426C55.4318 54.366 55.2378 54.304 55.0378 54.24C54.8418 54.176 54.6478 54.104 54.4558 54.024C54.2678 53.94 54.0998 53.836 53.9518 53.712C53.8038 53.588 53.6838 53.436 53.5918 53.256C53.5038 53.072 53.4598 52.85 53.4598 52.59C53.4598 52.358 53.5078 52.136 53.6038 51.924C53.6998 51.708 53.8398 51.52 54.0238 51.36C54.2078 51.196 54.4338 51.066 54.7018 50.97C54.9698 50.874 55.2758 50.826 55.6198 50.826C56.0198 50.826 56.3778 50.89 56.6938 51.018C57.0138 51.142 57.2898 51.314 57.5218 51.534L57.2818 51.924Z" fill="#9499C3"/>
</g>
<defs>
<filter id="filter0_d_2710_235" x="0" y="0" width="78" height="78" filterUnits="userSpaceOnUse" color-interpolation-filters="sRGB">
<feFlood flood-opacity="0" result="BackgroundImageFix"/>
<feColorMatrix in="SourceAlpha" type="matrix" values="0 0 0 0 0 0 0 0 0 0 0 0 0 0 0 0 0 0 127 0" result="hardAlpha"/>
<feOffset dy="4"/>
<feGaussianBlur stdDeviation="2"/>
<feColorMatrix type="matrix" values="0 0 0 0 0 0 0 0 0 0 0 0 0 0 0 0 0 0 0.25 0"/>
<feBlend mode="normal" in2="BackgroundImageFix" result="effect1_dropShadow_2710_235"/>
<feBlend mode="normal" in="SourceGraphic" in2="effect1_dropShadow_2710_235" result="shape"/>
</filter>
</defs>
</svg>
