<svg width="70" height="70" viewBox="0 0 70 70" fill="none" xmlns="http://www.w3.org/2000/svg">
<path d="M45.6662 28.4134L48.1995 25.88C49.2395 24.84 49.2395 23.1467 48.1995 22.1067L45.6662 19.5867V16C45.6662 14.5334 44.4662 13.3334 42.9995 13.3334H39.4129L36.8795 10.8C35.8395 9.76002 34.1462 9.76002 33.1062 10.8L30.5862 13.3334H26.9995C25.5329 13.3334 24.3329 14.5334 24.3329 16V19.5867L21.7995 22.12C20.7595 23.16 20.7595 24.8534 21.7995 25.8934L24.3329 28.4267V32C24.3329 33.4667 25.5329 34.6667 26.9995 34.6667H30.5862L33.1195 37.2C34.1595 38.24 35.8529 38.24 36.8929 37.2L39.4262 34.6667H42.9995C44.4662 34.6667 45.6662 33.4667 45.6662 32V28.4134Z" fill="white"/>
<path d="M17.322 53.784V57H16.164V48.402H18.702C19.246 48.402 19.718 48.466 20.118 48.594C20.522 48.718 20.856 48.896 21.12 49.128C21.384 49.36 21.58 49.64 21.708 49.968C21.84 50.296 21.906 50.662 21.906 51.066C21.906 51.466 21.836 51.832 21.696 52.164C21.556 52.496 21.35 52.782 21.078 53.022C20.81 53.262 20.476 53.45 20.076 53.586C19.676 53.718 19.218 53.784 18.702 53.784H17.322ZM17.322 52.86H18.702C19.034 52.86 19.326 52.816 19.578 52.728C19.834 52.64 20.048 52.518 20.22 52.362C20.392 52.202 20.522 52.012 20.61 51.792C20.698 51.572 20.742 51.33 20.742 51.066C20.742 50.518 20.572 50.09 20.232 49.782C19.896 49.474 19.386 49.32 18.702 49.32H17.322V52.86ZM24.3999 48.162V57H23.3319V48.162H24.3999ZM30.7463 57H30.2723C30.1683 57 30.0843 56.984 30.0203 56.952C29.9563 56.92 29.9143 56.852 29.8943 56.748L29.7743 56.184C29.6143 56.328 29.4583 56.458 29.3063 56.574C29.1543 56.686 28.9943 56.782 28.8263 56.862C28.6583 56.938 28.4783 56.996 28.2863 57.036C28.0983 57.076 27.8883 57.096 27.6563 57.096C27.4203 57.096 27.1983 57.064 26.9902 57C26.7863 56.932 26.6083 56.832 26.4563 56.7C26.3043 56.568 26.1823 56.402 26.0903 56.202C26.0023 55.998 25.9583 55.758 25.9583 55.482C25.9583 55.242 26.0243 55.012 26.1562 54.792C26.2883 54.568 26.5003 54.37 26.7923 54.198C27.0883 54.026 27.4743 53.886 27.9503 53.778C28.4263 53.666 29.0083 53.602 29.6963 53.586V53.112C29.6963 52.64 29.5943 52.284 29.3903 52.044C29.1903 51.8 28.8923 51.678 28.4963 51.678C28.2363 51.678 28.0163 51.712 27.8363 51.78C27.6603 51.844 27.5063 51.918 27.3743 52.002C27.2463 52.082 27.1343 52.156 27.0383 52.224C26.9463 52.288 26.8543 52.32 26.7623 52.32C26.6903 52.32 26.6263 52.302 26.5703 52.266C26.5183 52.226 26.4763 52.178 26.4443 52.122L26.2523 51.78C26.5883 51.456 26.9503 51.214 27.3383 51.054C27.7263 50.894 28.1563 50.814 28.6283 50.814C28.9683 50.814 29.2703 50.87 29.5343 50.982C29.7983 51.094 30.0203 51.25 30.2003 51.45C30.3803 51.65 30.5163 51.892 30.6083 52.176C30.7003 52.46 30.7463 52.772 30.7463 53.112V57ZM27.9743 56.346C28.1623 56.346 28.3343 56.328 28.4902 56.292C28.6463 56.252 28.7923 56.198 28.9283 56.13C29.0683 56.058 29.2003 55.972 29.3243 55.872C29.4523 55.772 29.5763 55.658 29.6963 55.53V54.264C29.2043 54.28 28.7863 54.32 28.4423 54.384C28.0983 54.444 27.8183 54.524 27.6023 54.624C27.3863 54.724 27.2283 54.842 27.1283 54.978C27.0323 55.114 26.9843 55.266 26.9843 55.434C26.9843 55.594 27.0103 55.732 27.0623 55.848C27.1143 55.964 27.1843 56.06 27.2723 56.136C27.3603 56.208 27.4643 56.262 27.5843 56.298C27.7043 56.33 27.8343 56.346 27.9743 56.346ZM32.3643 57V50.922H33.0003C33.1523 50.922 33.2483 50.996 33.2883 51.144L33.3723 51.804C33.6363 51.512 33.9303 51.276 34.2543 51.096C34.5823 50.916 34.9603 50.826 35.3883 50.826C35.7203 50.826 36.0123 50.882 36.2643 50.994C36.5203 51.102 36.7323 51.258 36.9003 51.462C37.0723 51.662 37.2023 51.904 37.2903 52.188C37.3783 52.472 37.4223 52.786 37.4223 53.13V57H36.3543V53.13C36.3543 52.67 36.2483 52.314 36.0363 52.062C35.8283 51.806 35.5083 51.678 35.0763 51.678C34.7603 51.678 34.4643 51.754 34.1883 51.906C33.9163 52.058 33.6643 52.264 33.4323 52.524V57H32.3643ZM41.4383 50.826C41.8023 50.826 42.1383 50.888 42.4463 51.012C42.7543 51.132 43.0203 51.308 43.2443 51.54C43.4683 51.768 43.6423 52.052 43.7663 52.392C43.8943 52.728 43.9583 53.112 43.9583 53.544C43.9583 53.712 43.9403 53.824 43.9043 53.88C43.8683 53.936 43.8003 53.964 43.7003 53.964H39.6562C39.6643 54.348 39.7163 54.682 39.8123 54.966C39.9083 55.25 40.0403 55.488 40.2083 55.68C40.3763 55.868 40.5763 56.01 40.8083 56.106C41.0403 56.198 41.3003 56.244 41.5883 56.244C41.8563 56.244 42.0863 56.214 42.2783 56.154C42.4743 56.09 42.6423 56.022 42.7823 55.95C42.9223 55.878 43.0383 55.812 43.1303 55.752C43.2263 55.688 43.3083 55.656 43.3763 55.656C43.4643 55.656 43.5323 55.69 43.5803 55.758L43.8803 56.148C43.7483 56.308 43.5903 56.448 43.4063 56.568C43.2223 56.684 43.0243 56.78 42.8123 56.856C42.6043 56.932 42.3883 56.988 42.1643 57.024C41.9403 57.064 41.7183 57.084 41.4983 57.084C41.0783 57.084 40.6903 57.014 40.3343 56.874C39.9823 56.73 39.6763 56.522 39.4163 56.25C39.1603 55.974 38.9603 55.634 38.8163 55.23C38.6723 54.826 38.6003 54.362 38.6003 53.838C38.6003 53.414 38.6643 53.018 38.7923 52.65C38.9243 52.282 39.1123 51.964 39.3563 51.696C39.6003 51.424 39.8983 51.212 40.2503 51.06C40.6023 50.904 40.9983 50.826 41.4383 50.826ZM41.4622 51.612C40.9463 51.612 40.5403 51.762 40.2443 52.062C39.9483 52.358 39.7643 52.77 39.6923 53.298H42.9983C42.9983 53.05 42.9643 52.824 42.8963 52.62C42.8283 52.412 42.7283 52.234 42.5963 52.086C42.4643 51.934 42.3023 51.818 42.1103 51.738C41.9223 51.654 41.7063 51.612 41.4622 51.612ZM47.1672 57.096C46.6872 57.096 46.3172 56.962 46.0572 56.694C45.8012 56.426 45.6732 56.04 45.6732 55.536V51.816H44.9412C44.8772 51.816 44.8232 51.798 44.7792 51.762C44.7352 51.722 44.7132 51.662 44.7132 51.582V51.156L45.7092 51.03L45.9552 49.152C45.9632 49.092 45.9892 49.044 46.0332 49.008C46.0772 48.968 46.1332 48.948 46.2012 48.948H46.7412V51.042H48.4812V51.816H46.7412V55.464C46.7412 55.72 46.8032 55.91 46.9272 56.034C47.0512 56.158 47.2112 56.22 47.4072 56.22C47.5192 56.22 47.6152 56.206 47.6952 56.178C47.7792 56.146 47.8512 56.112 47.9112 56.076C47.9712 56.04 48.0212 56.008 48.0612 55.98C48.1052 55.948 48.1432 55.932 48.1752 55.932C48.2312 55.932 48.2812 55.966 48.3252 56.034L48.6372 56.544C48.4532 56.716 48.2312 56.852 47.9712 56.952C47.7112 57.048 47.4432 57.096 47.1672 57.096ZM53.2818 51.924C53.2338 52.012 53.1598 52.056 53.0598 52.056C52.9998 52.056 52.9318 52.034 52.8558 51.99C52.7798 51.946 52.6858 51.898 52.5738 51.846C52.4658 51.79 52.3358 51.74 52.1838 51.696C52.0318 51.648 51.8518 51.624 51.6438 51.624C51.4638 51.624 51.3018 51.648 51.1578 51.696C51.0138 51.74 50.8898 51.802 50.7858 51.882C50.6858 51.962 50.6078 52.056 50.5518 52.164C50.4998 52.268 50.4738 52.382 50.4738 52.506C50.4738 52.662 50.5178 52.792 50.6058 52.896C50.6978 53 50.8178 53.09 50.9658 53.166C51.1138 53.242 51.2818 53.31 51.4698 53.37C51.6578 53.426 51.8498 53.488 52.0458 53.556C52.2458 53.62 52.4398 53.692 52.6278 53.772C52.8158 53.852 52.9838 53.952 53.1318 54.072C53.2798 54.192 53.3978 54.34 53.4858 54.516C53.5778 54.688 53.6238 54.896 53.6238 55.14C53.6238 55.42 53.5738 55.68 53.4738 55.92C53.3738 56.156 53.2258 56.362 53.0298 56.538C52.8338 56.71 52.5938 56.846 52.3098 56.946C52.0258 57.046 51.6978 57.096 51.3258 57.096C50.9018 57.096 50.5178 57.028 50.1738 56.892C49.8298 56.752 49.5378 56.574 49.2978 56.358L49.5498 55.95C49.5818 55.898 49.6198 55.858 49.6638 55.83C49.7078 55.802 49.7658 55.788 49.8378 55.788C49.9098 55.788 49.9858 55.816 50.0658 55.872C50.1458 55.928 50.2418 55.99 50.3538 56.058C50.4698 56.126 50.6078 56.188 50.7678 56.244C50.9318 56.3 51.1358 56.328 51.3798 56.328C51.5878 56.328 51.7698 56.302 51.9258 56.25C52.0818 56.194 52.2118 56.12 52.3158 56.028C52.4198 55.936 52.4958 55.83 52.5438 55.71C52.5958 55.59 52.6218 55.462 52.6218 55.326C52.6218 55.158 52.5758 55.02 52.4838 54.912C52.3958 54.8 52.2778 54.706 52.1298 54.63C51.9818 54.55 51.8118 54.482 51.6198 54.426C51.4318 54.366 51.2378 54.304 51.0378 54.24C50.8418 54.176 50.6478 54.104 50.4558 54.024C50.2678 53.94 50.0998 53.836 49.9518 53.712C49.8038 53.588 49.6838 53.436 49.5918 53.256C49.5038 53.072 49.4598 52.85 49.4598 52.59C49.4598 52.358 49.5078 52.136 49.6038 51.924C49.6998 51.708 49.8398 51.52 50.0238 51.36C50.2078 51.196 50.4338 51.066 50.7018 50.97C50.9698 50.874 51.2758 50.826 51.6198 50.826C52.0198 50.826 52.3778 50.89 52.6938 51.018C53.0138 51.142 53.2898 51.314 53.5218 51.534L53.2818 51.924Z" fill="#9499C3"/>
</svg>
